ply
format ascii 1.0
comment TextureFile Dungeons_2_Texture_01_A.png
element vertex 307
property float x
property float y
property float z
property float nx
property float ny
property float nz
property uchar red
property uchar green
property uchar blue
property uchar alpha
property float texture_u
property float texture_v
element face 330
property list uchar int vertex_indices
end_header
114.4434 -1.5e-05 7.753906 0.1506118 -0.8944265 0.4210907 192 192 192 255 0.017903 0.970248
385.5568 -1.5e-05 7.753906 -0.3529353 -0.4472131 0.8218499 192 192 192 255 0.017903 0.756616
114.4434 299.2057 7.753906 0.2317344 -0.1385055 0.9628683 192 192 192 255 0.225724 0.970248
385.5568 299.2057 7.753906 -0.1364357 -0.2783859 0.9507295 192 192 192 255 0.225724 0.756616
119.6421 1.5e-05 5.894531 0.7818114 -0.2924256 0.5506889 192 192 192 255 0.017903 0.965024
381.227 1.5e-05 5.894531 -0.5352308 -0.7675737 0.3526452 192 192 192 255 0.017903 0.761155
381.227 294.9777 5.894531 -0.6700754 -0.3369535 0.6614086 192 192 192 255 0.222788 0.761155
119.6421 294.9777 5.894531 0.3210032 -0.6736071 0.6657405 192 192 192 255 0.222788 0.965024
385.5568 -1.5e-05 -7.751953 -0.2790222 -0.7071058 -0.6497293 192 192 192 255 0.225724 0.756616
385.5568 299.2057 -7.751953 -0.1364357 -0.2783859 -0.9507295 192 192 192 255 0.017903 0.756616
381.227 294.9777 -5.892578 -0.4397592 -0.5905216 -0.6766803 192 192 192 255 0.020839 0.761155
381.227 1.5e-05 -5.892578 -0.869849 -0.3632548 -0.3337792 192 192 192 255 0.225724 0.761155
114.4434 299.2057 -7.751953 0.2317344 -0.1385055 -0.9628683 192 192 192 255 0.017903 0.970248
119.6421 294.9777 -5.892578 0.5769352 -0.445677 -0.6844836 192 192 192 255 0.020839 0.965025
114.4434 -1.5e-05 -7.751953 0.238134 -0.7071061 -0.6658027 192 192 192 255 0.225724 0.970248
119.6421 1.5e-05 -5.892578 0.5202691 -0.6217568 -0.5854388 192 192 192 255 0.225724 0.965025
1.6e-05 500 30.54102 -0.0002148813 0.0002148813 1 192 192 192 255 0.129474 0.986993
1.7e-05 332.7773 30.54102 -0.3270369 -0.1787194 0.9279581 192 192 192 255 0.006415 0.907416
86.60416 332.7773 30.54102 9.065113e-05 -0.0005634672 0.9999999 192 192 192 255 0.045139 0.907416
187.5126 382.6432 30.54102 0.0001695717 -0.03186354 0.9994923 192 192 192 255 0.090259 0.929713
2.1e-05 357.7455 30.54102 -0.5682303 0.3020029 0.7654467 192 192 192 255 0.006415 0.918580
1.7e-05 475.9546 30.54102 -0.0006448036 -0.0001142334 0.9999998 192 192 192 255 0.006415 0.730308
92.68567 357.7455 30.54102 -0.1252209 0.2348472 0.9639328 192 192 192 255 0.047858 0.918580
193.4564 411.7177 30.54102 -0.06384273 0.0986537 0.9930718 192 192 192 255 0.092917 0.942713
193.4564 475.9546 30.54102 -0.000108075 -0.0002282357 1 192 192 192 255 0.092917 0.971436
1.7e-05 373.064 20.92969 -0.0005174231 6.874997e-05 0.9999999 192 192 192 255 0.006415 0.684302
88.26746 373.064 20.92969 -0.04961673 0.09275128 0.9944523 192 192 192 255 0.045883 0.684302
1.7e-05 460.6361 20.92969 -0.0005172995 -0.0001374671 0.9999999 192 192 192 255 0.006415 0.723459
176.9564 420.5652 20.92969 -0.2478459 0.461991 0.8515496 192 192 192 255 0.085539 0.705541
176.9564 460.6361 20.92969 -0.2135161 -0.1127273 0.970414 192 192 192 255 0.085539 0.723459
187.5126 372.3139 23.80078 1.999311e-05 -0.06457432 0.9979129 192 192 192 255 0.090259 0.925094
86.60416 322.4481 23.80078 0.0004797492 -0.1074868 0.9942064 192 192 192 255 0.045139 0.902797
1.7e-05 322.4481 23.80078 -0.8106092 -0.2214911 0.5420836 192 192 192 255 0.006415 0.902797
114.4434 299.2058 17.19434 0.2672613 -0.5345225 0.8017837 192 192 192 255 0.057587 0.892404
100 310.9771 17.19434 0.0003277253 -0.498292 0.8670093 192 192 192 255 0.051129 0.897668
86.60416 0 23.80078 0.2109369 -0.715352 0.6661661 192 192 192 255 0.045139 0.758618
100 0 17.19434 0.1054685 -0.715352 0.690759 192 192 192 255 0.051129 0.758618
114.4434 0 17.19434 0.6666667 -0.6666667 0.3333333 192 192 192 255 0.057587 0.758618
1.7e-05 249.6032 23.80078 -0.7870291 0.0926749 0.6099153 192 192 192 255 0.006415 0.870225
53.2361 0 23.80078 0.4970865 -0.4166338 0.7611316 192 192 192 255 0.030219 0.758618
53.23612 207.579 23.80078 0.5468268 0.000174233 0.8372458 192 192 192 255 0.030219 0.851435
1.7e-05 231.8633 33.01562 -0.0002553695 9.494165e-05 1 192 192 192 255 0.006415 0.862293
1.7e-05 0 33.01562 -6.365633e-05 -0.164501 0.9863769 192 192 192 255 0.006415 0.758618
39.13612 200.7457 33.01562 0.02558079 4.206205e-05 0.9996728 192 192 192 255 0.023914 0.848379
39.1361 0 33.01562 0.2636182 -0.7062355 0.6570669 192 192 192 255 0.023914 0.758618
500.0001 500 30.54102 0.0002878913 0.0005757827 0.9999998 192 192 192 255 0.229984 0.982187
500.0001 332.7773 30.54102 0.327037 -0.1787194 0.9279581 192 192 192 255 0.229984 0.907416
413.396 332.7773 30.54102 -0.04554885 -0.2831215 0.9580019 192 192 192 255 0.191260 0.907416
312.4875 382.6432 30.54102 -0.0004725357 -0.1691414 0.9855917 192 192 192 255 0.146140 0.929713
500.0001 357.7455 30.54102 0.5682303 0.3020028 0.7654466 192 192 192 255 0.229984 0.918580
500.0001 475.9546 30.54102 0.005818618 -0.2371939 0.971445 192 192 192 255 0.229984 0.730308
407.3145 357.7455 30.54102 0.08605058 0.2529523 0.9636444 192 192 192 255 0.188541 0.918580
306.5437 411.7177 30.54102 0.000226497 8.352855e-05 1 192 192 192 255 0.143482 0.942713
306.5437 475.9546 30.54102 0.0002269991 -0.2367964 0.9715593 192 192 192 255 0.143482 0.971436
500.0001 373.064 20.92969 0.0005174232 6.874998e-05 0.9999999 192 192 192 255 0.229984 0.684302
411.7327 373.064 20.92969 3.20362e-05 0.0001972485 1 192 192 192 255 0.190516 0.684302
500.0001 460.6361 20.92969 0.000397268 -0.1394356 0.9902311 192 192 192 255 0.229984 0.723459
323.0437 420.5652 20.92969 0.2616544 0.2423628 0.9342362 192 192 192 255 0.150860 0.705541
323.0437 460.6361 20.92969 0.0002434861 -0.5310724 0.8473264 192 192 192 255 0.150860 0.723459
312.4875 372.3139 23.80078 -1.449195e-05 -0.05313699 0.9985873 192 192 192 255 0.146140 0.925094
413.396 322.4481 23.80078 -0.02691241 -0.0868438 0.9958584 192 192 192 255 0.191260 0.902797
500.0001 322.4481 23.80078 0.8106092 -0.2214912 0.5420834 192 192 192 255 0.229984 0.902797
385.5568 299.2058 17.19434 -0.2357023 -0.2357023 0.9428091 192 192 192 255 0.178812 0.892404
400.0001 310.9771 17.19434 -0.2493351 -0.2478938 0.9361521 192 192 192 255 0.185270 0.897668
413.396 0 23.80078 -0.2463694 -0.0002756488 0.969176 192 192 192 255 0.191260 0.758618
400.0001 0 17.19434 -0.4421365 -0.0006456265 0.8969476 192 192 192 255 0.185270 0.758618
385.5568 -0 17.19434 -0.6666667 -0.6666667 0.3333333 192 192 192 255 0.178812 0.758618
500.0001 249.6032 23.80078 0.679861 0.1101646 0.7250192 192 192 192 255 0.229984 0.870225
446.764 0 23.80078 -9.125414e-05 -0.05606193 0.9984273 192 192 192 255 0.206180 0.758618
446.764 207.579 23.80078 -0.0001552867 0.0001088432 1 192 192 192 255 0.206180 0.851435
500.0001 231.8633 33.01562 0.5236511 0.1946838 0.8293899 192 192 192 255 0.229984 0.862293
500.0001 -0 33.01562 0.0003869663 -0.9999999 0.0001934832 192 192 192 255 0.229984 0.758618
460.864 200.7457 33.01562 -0.3761042 0.1128983 0.9196736 192 192 192 255 0.212485 0.848379
460.864 0 33.01562 -0.0001306765 -0.9999998 0.0006776877 192 192 192 255 0.212485 0.758618
1.6e-05 500 -30.54102 -0.0001031265 0.0001031265 -1 192 192 192 255 0.102161 0.986993
1.7e-05 332.7773 -30.54102 -0.0003924119 -0.0002144456 -0.9999999 192 192 192 255 0.010219 0.835184
86.60416 332.7773 -30.54102 0.0001104549 -0.000686563 -0.9999998 192 192 192 255 0.048943 0.835184
187.5126 382.6432 -30.54102 0.0909192 -0.3745585 -0.9227349 192 192 192 255 0.094063 0.812887
1.8e-05 357.7455 -30.54102 -0.002373864 0.2320603 -0.9726985 192 192 192 255 0.010219 0.824020
1.7e-05 475.9546 -30.54102 -0.0006448036 -0.0001142333 -0.9999998 192 192 192 255 0.102161 0.976241
92.68567 357.7455 -30.54102 -0.0009314744 0.2325597 -0.9725817 192 192 192 255 0.051663 0.824020
193.4564 411.7177 -30.54102 -0.1629913 0.06010867 -0.9847948 192 192 192 255 0.096721 0.799887
193.4564 475.9546 -30.54102 -6.824424e-05 -0.00014412 -1 192 192 192 255 0.096721 0.771164
1.7e-05 373.064 -20.92969 -0.0004303912 0.1024169 -0.9947415 192 192 192 255 0.010219 0.576043
88.26746 373.064 -20.92969 -2.728396e-05 0.08873577 -0.9960552 192 192 192 255 0.049687 0.576043
1.7e-05 460.6361 -20.92969 -0.0002586498 -0.0001374671 -1 192 192 192 255 0.106459 0.969392
176.9564 420.5652 -20.92969 -0.2616545 0.2423628 -0.9342362 192 192 192 255 0.089343 0.554803
176.9564 460.6361 -20.92969 -0.2135161 -0.1127273 -0.970414 192 192 192 255 0.089343 0.536886
187.5126 372.3139 -23.80078 2.106326e-05 -8.677402e-05 -1 192 192 192 255 0.094063 0.817506
86.60416 322.4481 -23.80078 0.000806894 -0.1077586 -0.9941768 192 192 192 255 0.048943 0.839802
1.7e-05 322.4481 -23.80078 -0.9009589 -0.1641189 -0.401669 192 192 192 255 0.105175 0.907603
114.4434 299.2058 -17.19434 0.5345225 -0.2672613 -0.8017837 192 192 192 255 0.061391 0.850195
100 310.9771 -17.19434 0.0003326482 -0.4983132 -0.8669971 192 192 192 255 0.054933 0.844932
86.60416 0 -23.80078 0.2109369 -0.715352 -0.6661661 192 192 192 255 0.061490 0.772860
100 0 -17.19434 0.1054685 -0.715352 -0.690759 192 192 192 255 0.064444 0.766870
114.4434 -0 -17.19434 0.5773503 -0.5773503 -0.5773503 192 192 192 255 0.064444 0.760413
1.7e-05 249.6032 -23.80078 -0.500681 0.1300377 -0.8558089 192 192 192 255 0.105175 0.875031
53.2361 0 -23.80078 0.00162529 -0.9999838 -0.005457838 192 192 192 255 0.061490 0.787781
53.23612 207.579 -23.80078 0.2587353 0.1813523 -0.9487716 192 192 192 255 0.034023 0.891165
1.7e-05 231.8633 -33.01562 -0.5236512 0.1946838 -0.8293899 192 192 192 255 0.010219 0.880306
1.7e-05 -0 -33.01562 -0.0003869662 -0.9999999 -0.0001934831 192 192 192 255 0.057370 0.811584
39.13612 200.7457 -33.01562 0.3761041 0.1128983 -0.9196737 192 192 192 255 0.027718 0.894220
39.1361 0 -33.01562 0.0001306763 -0.9999998 -0.0006776872 192 192 192 255 0.057370 0.794085
500.0001 500 -30.54102 0.0003620282 0.0001810141 -0.9999999 192 192 192 255 0.233788 0.760413
500.0001 332.7773 -30.54102 0.327037 -0.1787194 -0.9279581 192 192 192 255 0.233788 0.835184
413.396 332.7773 -30.54102 -0.04554885 -0.2831215 -0.9580019 192 192 192 255 0.195064 0.835184
312.4875 382.6432 -30.54102 -0.09134027 -0.2805646 -0.9554792 192 192 192 255 0.149944 0.812887
500.0001 357.7455 -30.54102 0.5682303 0.3020028 -0.7654466 192 192 192 255 0.233788 0.824020
500.0001 475.9546 -30.54102 0.004837438 -0.5307474 -0.8475163 192 192 192 255 0.233788 0.530037
407.3145 357.7455 -30.54102 0.08605058 0.2529523 -0.9636444 192 192 192 255 0.192345 0.824020
306.5437 411.7177 -30.54102 0.1629913 0.06010862 -0.9847948 192 192 192 255 0.147286 0.799887
306.5437 475.9546 -30.54102 4.868837e-05 -0.03643161 -0.9993362 192 192 192 255 0.147286 0.771164
500.0001 373.064 -20.92969 0.0005174232 6.874998e-05 -0.9999999 192 192 192 255 0.157565 0.930235
411.7327 373.064 -20.92969 3.20362e-05 0.0001972485 -1 192 192 192 255 0.194321 0.576043
500.0001 460.6361 -20.92969 0.0001950282 -0.1478773 -0.9890057 192 192 192 255 0.157565 0.969392
323.0437 420.5652 -20.92969 0.2616544 0.2423628 -0.9342362 192 192 192 255 0.154664 0.554803
323.0437 460.6361 -20.92969 0.0003286611 -0.5309342 -0.8474131 192 192 192 255 0.154664 0.536886
312.4875 372.3139 -23.80078 -1.874478e-05 -0.0001165134 -1 192 192 192 255 0.149944 0.817506
413.396 322.4481 -23.80078 -0.000101429 -0.1071726 -0.9942405 192 192 192 255 0.195064 0.839802
500.0001 322.4481 -23.80078 0.9009589 -0.1641189 -0.401669 192 192 192 255 0.158848 0.907603
385.5568 299.2058 -17.19434 -0.4082483 -0.4082483 -0.8164966 192 192 192 255 0.128106 0.894198
400.0001 310.9771 -17.19434 -0.0001625958 -0.4987783 -0.8667296 192 192 192 255 0.189074 0.844932
413.396 0 -23.80078 -0.2109369 -0.715352 -0.6661661 192 192 192 255 0.195064 0.983981
400.0001 -0 -17.19434 -0.1054685 -0.715352 -0.690759 192 192 192 255 0.189074 0.983981
385.5568 -0 -17.19434 -0.5773503 -0.5773503 -0.5773503 192 192 192 255 0.128106 0.760413
500.0001 249.6032 -23.80078 0.679861 0.1101646 -0.7250192 192 192 192 255 0.233788 0.872374
446.764 0 -23.80078 -0.5081004 -0.3696318 -0.7779501 192 192 192 255 0.029351 0.784216
446.764 207.579 -23.80078 -0.5464876 0.0003945962 -0.8374671 192 192 192 255 0.209984 0.891165
500.0001 231.8633 -33.01562 0.0002553696 9.494169e-05 -1 192 192 192 255 0.162969 0.867099
500.0001 0 -33.01562 6.465332e-05 -0.1670774 -0.9859438 192 192 192 255 0.233788 0.983981
460.864 200.7457 -33.01562 -0.022319 4.451795e-05 -0.9997509 192 192 192 255 0.216289 0.894220
460.864 0 -33.01562 -0.06154342 -0.9326293 -0.355549 192 192 192 255 0.216289 0.983981
487.2762 475.9546 30.54102 -0.01411639 -0.256284 0.9664984 192 192 192 255 0.224295 0.730308
361.1731 475.9546 30.54102 0.008585071 -0.318347 0.9479354 192 192 192 255 0.167909 0.730308
440.1809 485.3057 30.54102 0 -0.1647956 0.9863278 192 192 192 255 0.203237 0.975617
437.3593 467.2278 25.06543 -1.172011e-09 -0.4474587 0.8943046 192 192 192 255 0.201975 0.726406
105.0053 364.3438 30.54102 -0.1170614 0.2534991 0.9602265 192 192 192 255 0.053367 0.921530
146.6464 399.4747 23.56934 -0.2043823 0.381599 0.9014488 192 192 192 255 0.071986 0.696111
150.0715 378.4276 30.54102 -0.05758639 0.1075186 0.9925339 192 192 192 255 0.073518 0.927828
201.8925 382.6432 30.54102 0.008235385 -0.1157574 0.9932434 192 192 192 255 0.096689 0.929713
284.9533 382.6432 30.54102 -0.01151367 -0.1850803 0.9826559 192 192 192 255 0.133828 0.929713
246.6454 394.34 30.54102 0 -0.1059868 0.9943675 192 192 192 255 0.116700 0.934943
245.3563 376.9659 26.83691 0 -0.409885 0.9121372 192 192 192 255 0.116123 0.927174
413.396 153.2493 23.80078 -0.06443506 0.005506258 0.9979067 192 192 192 255 0.191260 0.827142
413.396 260.9482 23.80078 -0.1713715 -0.006574546 0.9851846 192 192 192 255 0.191260 0.875298
428.3981 175.5569 23.80078 -0.03457034 0 0.9994023 192 192 192 255 0.197968 0.837116
406.0275 181.8518 20.16699 -0.3195898 0 0.947556 192 192 192 255 0.187965 0.839931
214.9294 322.4481 23.80078 -0.001979355 -0.1093241 0.9940042 192 192 192 255 0.102518 0.902797
119.0454 322.4481 23.80078 0.01131498 -0.1610463 0.986882 192 192 192 255 0.059645 0.902797
154.0869 334.673 23.80078 -7.001054e-10 -0.0691696 0.997605 192 192 192 255 0.075313 0.908263
157.9536 315.6235 19.87012 -1.214193e-09 -0.4162301 0.9092594 192 192 192 255 0.077042 0.899745
39.1361 55.98616 33.01562 0.1042028 0.00751079 0.9945278 192 192 192 255 0.023914 0.783652
39.13612 172.3478 33.01562 0.4239294 -0.02625313 0.9053147 192 192 192 255 0.023914 0.835681
48.54429 140.6435 26.86719 0.4051475 -3.503338e-08 0.9142514 192 192 192 255 0.028121 0.821505
29.22119 137.5569 33.01562 0.1052457 -9.539795e-09 0.9944463 192 192 192 255 0.019481 0.820125
460.864 43.67924 -33.01562 -0.2115808 0.006417172 -0.9773394 192 192 192 255 0.216289 0.964451
460.864 177.3421 -33.01562 -0.4232639 -0.03462721 -0.9053445 192 192 192 255 0.216289 0.904685
450.6139 150.8831 -26.31641 -0.4499027 -8.077744e-08 -0.8930776 192 192 192 255 0.211706 0.916516
471.5659 145.3403 -33.01562 0 0 -1 192 192 192 255 0.221074 0.918994
471.5659 145.3403 -33.01562 -0.3045518 -7.00616e-08 -0.9524958 192 192 192 255 0.221074 0.918994
105.8434 322.4481 -23.80078 0.01016201 -0.152828 -0.9882005 192 192 192 255 0.057546 0.839802
259.4996 322.4481 -23.80078 -0.003453372 -0.1123866 -0.9936586 192 192 192 255 0.126251 0.839802
191.3256 338.5718 -23.80078 0 -0.07957233 -0.9968292 192 192 192 255 0.095768 0.832593
192.333 314.4239 -19.17969 0 -0.3634839 -0.9316005 192 192 192 255 0.096219 0.843390
345.7295 475.9546 -30.54102 0.02134289 -0.3802158 -0.9246516 192 192 192 255 0.164808 0.530037
465.7541 475.9546 -30.54102 -0.02755167 -0.436358 -0.8993512 192 192 192 255 0.218475 0.530037
411.1392 488.9551 -30.54102 0 -0.05532592 -0.9984684 192 192 192 255 0.194055 0.765351
413.0974 464.58 -23.4043 0 -0.4232743 -0.9060016 192 192 192 255 0.194931 0.535122
20.34192 357.7455 -30.54102 0.02183726 0.2451069 -0.9692501 192 192 192 255 0.019315 0.824020
79.90913 357.7455 -30.54102 -0.02512243 0.2392606 -0.9706303 192 192 192 255 0.045949 0.824020
46.93541 345.8726 -30.54102 -1.817337e-09 0.07996569 -0.9967976 192 192 192 255 0.031206 0.829328
50.61915 366.7278 -24.90527 -4.632227e-09 0.4313497 -0.9021848 192 192 192 255 0.032853 0.578876
381.227 294.9777 5.894531 -0.6700754 -0.3369535 0.6614086 192 192 192 255 0.127978 0.965874
381.227 294.9777 -5.892578 -0.4397592 -0.5905216 -0.6766803 192 192 192 255 0.115649 0.965874
381.227 1.5e-05 -5.892578 -0.869849 -0.3632548 -0.3337792 192 192 192 255 0.115649 0.760990
381.227 1.5e-05 5.894531 -0.5352308 -0.7675737 0.3526452 192 192 192 255 0.127978 0.760990
381.227 1.5e-05 5.894531 -0.5352308 -0.7675737 0.3526452 192 192 192 255 0.119544 0.869597
381.227 1.5e-05 -5.892578 -0.869849 -0.3632548 -0.3337792 192 192 192 255 0.119544 0.857267
385.5568 -1.5e-05 -7.751953 -0.2790222 -0.7071058 -0.6497293 192 192 192 255 0.124083 0.855323
385.5568 -1.5e-05 7.753906 -0.3529353 -0.4472131 0.8218499 192 192 192 255 0.124083 0.871541
119.6421 294.9777 5.894531 0.3210032 -0.6736071 0.6657405 192 192 192 255 0.127978 0.965367
119.6421 294.9777 -5.892578 0.5769352 -0.445677 -0.6844836 192 192 192 255 0.115649 0.965367
381.227 294.9777 -5.892578 -0.4397592 -0.5905216 -0.6766803 192 192 192 255 0.115649 0.761497
381.227 294.9777 5.894531 -0.6700754 -0.3369535 0.6614086 192 192 192 255 0.127978 0.761497
114.4434 -1.5e-05 7.753906 0.1506118 -0.8944265 0.4210907 192 192 192 255 0.119202 0.871541
114.4434 -1.5e-05 -7.751953 0.238134 -0.7071061 -0.6658027 192 192 192 255 0.119202 0.855323
119.6421 1.5e-05 -5.892578 0.5202691 -0.6217568 -0.5854388 192 192 192 255 0.124425 0.857267
119.6421 1.5e-05 5.894531 0.7818114 -0.2924256 0.5506889 192 192 192 255 0.124425 0.869597
119.6421 1.5e-05 5.894531 0.7818114 -0.2924256 0.5506889 192 192 192 255 0.115649 0.760990
119.6421 1.5e-05 -5.892578 0.5202691 -0.6217568 -0.5854388 192 192 192 255 0.127978 0.760990
119.6421 294.9777 -5.892578 0.5769352 -0.445677 -0.6844836 192 192 192 255 0.127978 0.965874
119.6421 294.9777 5.894531 0.3210032 -0.6736071 0.6657405 192 192 192 255 0.115649 0.965874
2.1e-05 357.7455 30.54102 -0.5682303 0.3020029 0.7654467 192 192 192 255 0.006415 0.677452
92.68567 357.7455 30.54102 -0.1252209 0.2348472 0.9639328 192 192 192 255 0.047858 0.677452
193.4564 411.7177 30.54102 -0.06384273 0.0986537 0.9930718 192 192 192 255 0.092917 0.701585
105.0053 364.3438 30.54102 -0.1170614 0.2534991 0.9602265 192 192 192 255 0.053367 0.680403
193.4564 475.9546 30.54102 -0.000108075 -0.0002282357 1 192 192 192 255 0.092917 0.730308
2.1e-05 357.7455 30.54102 -0.5682303 0.3020029 0.7654467 192 192 192 255 0.129474 0.923386
1.7e-05 373.064 20.92969 -0.0005174231 6.874997e-05 0.9999999 192 192 192 255 0.125176 0.930235
1.7e-05 322.4481 23.80078 -0.8106092 -0.2214911 0.5420836 192 192 192 255 0.126460 0.907603
1.7e-05 332.7773 30.54102 -0.3270369 -0.1787194 0.9279581 192 192 192 255 0.129474 0.912222
1.7e-05 475.9546 30.54102 -0.0006448036 -0.0001142334 0.9999998 192 192 192 255 0.129474 0.976241
1.7e-05 460.6361 20.92969 -0.0005172995 -0.0001374671 0.9999999 192 192 192 255 0.125176 0.969392
114.4434 0 17.19434 0.6666667 -0.6666667 0.3333333 192 192 192 255 0.079821 0.760413
100 0 17.19434 0.1054685 -0.715352 0.690759 192 192 192 255 0.079821 0.766870
1.7e-05 249.6032 23.80078 -0.7870291 0.0926749 0.6099153 192 192 192 255 0.126460 0.875031
1.7e-05 0 33.01562 -6.365633e-05 -0.164501 0.9863769 192 192 192 255 0.086895 0.811584
39.1361 0 33.01562 0.2636182 -0.7062355 0.6570669 192 192 192 255 0.086895 0.794085
53.2361 0 23.80078 0.4970865 -0.4166338 0.7611316 192 192 192 255 0.082775 0.787781
1.6e-05 500 30.54102 -0.0002148813 0.0002148813 1 192 192 192 255 0.006415 0.982187
500.0001 357.7455 30.54102 0.5682303 0.3020028 0.7654466 192 192 192 255 0.229984 0.677452
407.3145 357.7455 30.54102 0.08605058 0.2529523 0.9636444 192 192 192 255 0.188541 0.677452
306.5437 411.7177 30.54102 0.000226497 8.352855e-05 1 192 192 192 255 0.143482 0.701585
306.5437 475.9546 30.54102 0.0002269991 -0.2367964 0.9715593 192 192 192 255 0.143482 0.730308
500.0001 357.7455 30.54102 0.5682303 0.3020028 0.7654466 192 192 192 255 0.134550 0.923386
500.0001 332.7773 30.54102 0.327037 -0.1787194 0.9279581 192 192 192 255 0.134550 0.912222
500.0001 322.4481 23.80078 0.8106092 -0.2214912 0.5420834 192 192 192 255 0.137564 0.907603
500.0001 373.064 20.92969 0.0005174232 6.874998e-05 0.9999999 192 192 192 255 0.138848 0.930235
500.0001 460.6361 20.92969 0.000397268 -0.1394356 0.9902311 192 192 192 255 0.138848 0.969392
385.5568 -0 17.19434 -0.6666667 -0.6666667 0.3333333 192 192 192 255 0.143483 0.760413
385.5568 299.2058 17.19434 -0.2357023 -0.2357023 0.9428091 192 192 192 255 0.143483 0.894198
86.60416 0 23.80078 0.2109369 -0.715352 0.6661661 192 192 192 255 0.082775 0.772860
1.7e-05 475.9546 30.54102 -0.0006448036 -0.0001142334 0.9999998 192 192 192 255 0.006415 0.971436
361.1731 475.9546 30.54102 0.008585071 -0.318347 0.9479354 192 192 192 255 0.167909 0.971436
500.0001 475.9546 30.54102 0.005818618 -0.2371939 0.971445 192 192 192 255 0.229984 0.971436
487.2762 475.9546 30.54102 -0.01411639 -0.256284 0.9664984 192 192 192 255 0.224295 0.971436
1.7e-05 460.6361 -20.92969 -0.0002586498 -0.0001374671 -1 192 192 192 255 0.010219 0.536886
92.68567 357.7455 -30.54102 -0.0009314744 0.2325597 -0.9725817 192 192 192 255 0.051663 0.582892
79.90913 357.7455 -30.54102 -0.02512243 0.2392606 -0.9706303 192 192 192 255 0.045949 0.582892
1.8e-05 357.7455 -30.54102 -0.002373864 0.2320603 -0.9726985 192 192 192 255 0.010219 0.582892
20.34192 357.7455 -30.54102 0.02183726 0.2451069 -0.9692501 192 192 192 255 0.019315 0.582892
193.4564 411.7177 -30.54102 -0.1629913 0.06010867 -0.9847948 192 192 192 255 0.096721 0.558760
193.4564 475.9546 -30.54102 -6.824424e-05 -0.00014412 -1 192 192 192 255 0.096721 0.530037
1.7e-05 475.9546 -30.54102 -0.0006448036 -0.0001142333 -0.9999998 192 192 192 255 0.010219 0.530037
1.7e-05 322.4481 -23.80078 -0.9009589 -0.1641189 -0.401669 192 192 192 255 0.010219 0.839802
100 0 -17.19434 0.1054685 -0.715352 -0.690759 192 192 192 255 0.054933 0.983981
86.60416 0 -23.80078 0.2109369 -0.715352 -0.6661661 192 192 192 255 0.048943 0.983981
114.4434 -0 -17.19434 0.5773503 -0.5773503 -0.5773503 192 192 192 255 0.061391 0.983981
1.7e-05 249.6032 -23.80078 -0.500681 0.1300377 -0.8558089 192 192 192 255 0.010219 0.872374
1.8e-05 357.7455 -30.54102 -0.002373864 0.2320603 -0.9726985 192 192 192 255 0.102161 0.923386
1.7e-05 332.7773 -30.54102 -0.0003924119 -0.0002144456 -0.9999999 192 192 192 255 0.102161 0.912222
1.7e-05 373.064 -20.92969 -0.0004303912 0.1024169 -0.9947415 192 192 192 255 0.106459 0.930235
114.4434 299.2058 17.19434 0.2672613 -0.5345225 0.8017837 192 192 192 255 0.107501 0.881637
114.4434 299.2058 -17.19434 0.5345225 -0.2672613 -0.8017837 192 192 192 255 0.092124 0.881637
385.5568 299.2058 -17.19434 -0.4082483 -0.4082483 -0.8164966 192 192 192 255 0.092124 0.760413
385.5568 299.2058 17.19434 -0.2357023 -0.2357023 0.9428091 192 192 192 255 0.107501 0.760413
114.4434 0 17.19434 0.6666667 -0.6666667 0.3333333 192 192 192 255 0.110115 0.760413
114.4434 -0 -17.19434 0.5773503 -0.5773503 -0.5773503 192 192 192 255 0.125492 0.760413
114.4434 299.2058 -17.19434 0.5345225 -0.2672613 -0.8017837 192 192 192 255 0.125492 0.894198
114.4434 299.2058 17.19434 0.2672613 -0.5345225 0.8017837 192 192 192 255 0.110115 0.894198
385.5568 299.2058 -17.19434 -0.4082483 -0.4082483 -0.8164966 192 192 192 255 0.182616 0.850195
39.1361 0 -33.01562 0.0001306763 -0.9999998 -0.0006776872 192 192 192 255 0.027718 0.983981
1.7e-05 -0 -33.01562 -0.0003869662 -0.9999999 -0.0001934831 192 192 192 255 0.010219 0.983981
53.2361 0 -23.80078 0.00162529 -0.9999838 -0.005457838 192 192 192 255 0.034023 0.983981
1.7e-05 231.8633 33.01562 -0.0002553695 9.494165e-05 1 192 192 192 255 0.130580 0.867099
1.7e-05 231.8633 -33.01562 -0.5236512 0.1946838 -0.8293899 192 192 192 255 0.101055 0.867099
1.7e-05 -0 -33.01562 -0.0003869662 -0.9999999 -0.0001934831 192 192 192 255 0.101055 0.763424
1.7e-05 0 33.01562 -6.365633e-05 -0.164501 0.9863769 192 192 192 255 0.130580 0.763424
500.0001 373.064 -20.92969 0.0005174232 6.874998e-05 -0.9999999 192 192 192 255 0.233788 0.576043
500.0001 460.6361 -20.92969 0.0001950282 -0.1478773 -0.9890057 192 192 192 255 0.233788 0.536886
1.6e-05 500 -30.54102 -0.0001031265 0.0001031265 -1 192 192 192 255 0.010219 0.760413
500.0001 357.7455 -30.54102 0.5682303 0.3020028 -0.7654466 192 192 192 255 0.233788 0.582892
407.3145 357.7455 -30.54102 0.08605058 0.2529523 -0.9636444 192 192 192 255 0.192345 0.582892
306.5437 411.7177 -30.54102 0.1629913 0.06010862 -0.9847948 192 192 192 255 0.147286 0.558760
306.5437 475.9546 -30.54102 4.868837e-05 -0.03643161 -0.9993362 192 192 192 255 0.147286 0.530037
500.0001 322.4481 -23.80078 0.9009589 -0.1641189 -0.401669 192 192 192 255 0.233788 0.839802
385.5568 -0 -17.19434 -0.5773503 -0.5773503 -0.5773503 192 192 192 255 0.182616 0.983981
500.0001 357.7455 -30.54102 0.5682303 0.3020028 -0.7654466 192 192 192 255 0.161862 0.923386
500.0001 332.7773 -30.54102 0.327037 -0.1787194 -0.9279581 192 192 192 255 0.161862 0.912222
500.0001 475.9546 30.54102 0.005818618 -0.2371939 0.971445 192 192 192 255 0.134550 0.976241
500.0001 475.9546 -30.54102 0.004837438 -0.5307474 -0.8475163 192 192 192 255 0.161862 0.976241
500.0001 500 -30.54102 0.0003620282 0.0001810141 -0.9999999 192 192 192 255 0.161862 0.986993
500.0001 500 30.54102 0.0002878913 0.0005757827 0.9999998 192 192 192 255 0.134550 0.986993
413.396 0 23.80078 -0.2463694 -0.0002756488 0.969176 192 192 192 255 0.050635 0.799136
413.396 0 -23.80078 -0.2109369 -0.715352 -0.6661661 192 192 192 255 0.029351 0.799136
446.764 0 23.80078 -9.125414e-05 -0.05606193 0.9984273 192 192 192 255 0.050635 0.784216
500.0001 231.8633 33.01562 0.5236511 0.1946838 0.8293899 192 192 192 255 0.133444 0.867099
500.0001 249.6032 -23.80078 0.679861 0.1101646 -0.7250192 192 192 192 255 0.158848 0.875031
500.0001 249.6032 23.80078 0.679861 0.1101646 0.7250192 192 192 192 255 0.137564 0.875031
500.0001 231.8633 -33.01562 0.0002553696 9.494169e-05 -1 192 192 192 255 0.233788 0.880306
446.764 0 -23.80078 -0.5081004 -0.3696318 -0.7779501 192 192 192 255 0.209984 0.983981
500.0001 0 -33.01562 6.465332e-05 -0.1670774 -0.9859438 192 192 192 255 0.025230 0.760413
500.0001 -0 33.01562 0.0003869663 -0.9999999 0.0001934832 192 192 192 255 0.054756 0.760413
460.864 0 -33.01562 -0.06154342 -0.9326293 -0.355549 192 192 192 255 0.025230 0.777911
460.864 0 33.01562 -0.0001306765 -0.9999998 0.0006776877 192 192 192 255 0.054756 0.777911
400.0001 0 17.19434 -0.4421365 -0.0006456265 0.8969476 192 192 192 255 0.047681 0.805126
400.0001 -0 -17.19434 -0.1054685 -0.715352 -0.690759 192 192 192 255 0.032305 0.805126
385.5568 -0 17.19434 -0.6666667 -0.6666667 0.3333333 192 192 192 255 0.047681 0.811584
385.5568 -0 -17.19434 -0.5773503 -0.5773503 -0.5773503 192 192 192 255 0.032305 0.811584
500.0001 500 30.54102 0.0002878913 0.0005757827 0.9999998 192 192 192 255 0.146097 0.760413
500.0001 500 -30.54102 0.0003620282 0.0001810141 -0.9999999 192 192 192 255 0.173409 0.760413
1.6e-05 500 -30.54102 -0.0001031265 0.0001031265 -1 192 192 192 255 0.173409 0.983981
1.6e-05 500 30.54102 -0.0002148813 0.0002148813 1 192 192 192 255 0.146097 0.983981
1.7e-05 475.9546 -30.54102 -0.0006448036 -0.0001142333 -0.9999998 192 192 192 255 0.010219 0.771164
345.7295 475.9546 -30.54102 0.02134289 -0.3802158 -0.9246516 192 192 192 255 0.164808 0.771164
413.0974 464.58 -23.4043 0 -0.4232743 -0.9060016 192 192 192 255 0.194931 0.776250
500.0001 -0 33.01562 0.0003869663 -0.9999999 0.0001934832 192 192 192 255 0.133444 0.763424
500.0001 0 -33.01562 6.465332e-05 -0.1670774 -0.9859438 192 192 192 255 0.162969 0.763424
437.3593 467.2278 25.06543 -1.172011e-09 -0.4474587 0.8943046 192 192 192 255 0.201975 0.967533
146.6464 399.4747 23.56934 -0.2043823 0.381599 0.9014488 192 192 192 255 0.071986 0.937239
460.864 177.3421 -33.01562 -0.4232639 -0.03462721 -0.9053445 192 192 192 255 0.089510 0.820178
471.5659 145.3403 -33.01562 0 0 -1 192 192 192 255 0.089510 0.805869
471.5659 145.3403 -33.01562 -0.3045518 -7.00616e-08 -0.9524958 192 192 192 255 0.089510 0.805869
460.864 43.67924 -33.01562 -0.2115808 0.006417172 -0.9773394 192 192 192 255 0.089510 0.760413
465.7541 475.9546 -30.54102 -0.02755167 -0.436358 -0.8993512 192 192 192 255 0.218475 0.771164
500.0001 475.9546 -30.54102 0.004837438 -0.5307474 -0.8475163 192 192 192 255 0.233788 0.771164
50.61915 366.7278 -24.90527 -4.632227e-09 0.4313497 -0.9021848 192 192 192 255 0.032853 0.820004
3 8 11 10 
3 8 10 9 
3 9 10 13 
3 9 13 12 
3 12 13 15 
3 12 15 14 
3 1 3 6 
3 1 6 5 
3 3 2 7 
3 3 7 6 
3 2 0 4 
3 2 4 7 
3 172 173 174 
3 172 174 175 
3 176 177 178 
3 176 178 179 
3 180 181 182 
3 180 182 183 
3 184 185 186 
3 184 186 187 
3 188 189 190 
3 188 190 191 
3 25 26 27 
3 26 28 29 
3 26 29 27 
3 17 18 22 
3 17 22 20 
3 23 138 19 
3 19 138 18 
3 138 136 18 
3 18 136 22 
3 24 23 52 
3 24 52 53 
3 19 139 23 
3 23 139 52 
3 139 141 52 
3 141 140 52 
3 140 48 52 
3 192 193 26 
3 192 26 25 
3 194 28 137 
3 28 26 137 
3 193 195 26 
3 195 137 26 
3 194 196 29 
3 194 29 28 
3 27 29 196 
3 27 196 21 
3 19 30 139 
3 48 140 59 
3 139 30 142 
3 30 59 142 
3 59 140 142 
3 19 18 31 
3 19 31 30 
3 18 17 32 
3 18 32 31 
3 34 31 35 
3 34 35 36 
3 33 34 36 
3 33 36 37 
3 31 32 38 
3 31 38 40 
3 197 198 199 
3 197 199 200 
3 201 16 74 
3 201 74 79 
3 202 201 79 
3 202 79 85 
3 203 204 94 
3 203 94 95 
3 34 33 62 
3 34 62 63 
3 31 34 148 
3 60 147 63 
3 148 34 150 
3 34 63 150 
3 63 147 150 
3 31 148 30 
3 148 149 30 
3 60 59 147 
3 59 30 147 
3 30 149 147 
3 41 42 43 
3 44 151 42 
3 152 43 154 
3 43 42 154 
3 151 154 42 
3 31 40 39 
3 31 39 35 
3 205 199 90 
3 205 90 96 
3 39 40 44 
3 43 152 40 
3 152 153 40 
3 40 153 44 
3 153 151 44 
3 40 38 41 
3 40 41 43 
3 206 100 207 
3 100 102 207 
3 207 102 208 
3 208 102 97 
3 54 56 55 
3 55 56 58 
3 55 58 57 
3 46 49 51 
3 46 51 47 
3 47 51 52 
3 47 52 48 
3 53 45 209 
3 53 209 24 
3 210 54 55 
3 210 55 211 
3 211 55 57 
3 211 57 212 
3 212 57 58 
3 212 58 213 
3 213 58 133 
3 50 132 56 
3 132 135 56 
3 56 135 58 
3 135 133 58 
3 48 59 60 
3 48 60 47 
3 47 60 61 
3 47 61 46 
3 60 63 144 
3 65 64 63 
3 144 63 146 
3 63 64 146 
3 64 143 146 
3 62 66 65 
3 62 65 63 
3 60 69 67 
3 60 67 61 
3 214 215 216 
3 214 216 217 
3 218 217 112 
3 218 112 114 
3 217 216 119 
3 217 119 112 
3 219 220 120 
3 219 120 124 
3 73 71 70 
3 73 70 72 
3 60 144 69 
3 144 145 69 
3 69 145 68 
3 145 143 68 
3 143 64 68 
3 68 73 72 
3 68 72 69 
3 69 72 70 
3 69 70 67 
3 221 208 97 
3 221 97 93 
3 204 221 93 
3 204 93 94 
3 24 209 222 
3 53 223 45 
3 223 134 45 
3 224 45 225 
3 134 225 45 
3 83 226 84 
3 84 226 87 
3 84 87 86 
3 80 76 169 
3 169 76 170 
3 76 75 170 
3 170 75 168 
3 75 78 168 
3 76 80 81 
3 76 81 77 
3 82 111 110 
3 82 110 81 
3 81 110 106 
3 81 106 77 
3 227 228 84 
3 229 83 230 
3 228 171 84 
3 84 171 83 
3 83 171 230 
3 227 84 86 
3 227 86 231 
3 231 86 87 
3 231 87 232 
3 226 233 232 
3 226 232 87 
3 77 106 117 
3 77 117 88 
3 77 88 89 
3 77 89 76 
3 76 89 234 
3 76 234 75 
3 92 235 236 
3 92 236 89 
3 91 237 235 
3 91 235 92 
3 89 98 238 
3 89 238 234 
3 239 240 90 
3 239 90 241 
3 242 243 244 
3 242 244 245 
3 202 85 241 
3 202 241 198 
3 198 241 90 
3 198 90 199 
3 246 247 248 
3 246 248 249 
3 92 121 250 
3 92 250 91 
3 89 160 92 
3 118 121 161 
3 160 163 92 
3 92 163 121 
3 163 161 121 
3 118 161 117 
3 89 88 160 
3 160 88 162 
3 117 161 88 
3 88 161 162 
3 251 252 99 
3 251 99 101 
3 89 236 253 
3 89 253 98 
3 254 255 256 
3 254 256 257 
3 253 251 101 
3 253 101 98 
3 98 101 99 
3 98 99 238 
3 258 113 259 
3 113 115 116 
3 113 116 259 
3 104 105 109 
3 104 109 107 
3 105 106 110 
3 105 110 109 
3 103 166 260 
3 166 111 260 
3 111 82 260 
3 261 262 113 
3 261 113 258 
3 262 263 115 
3 262 115 113 
3 263 264 116 
3 263 116 115 
3 264 164 116 
3 108 259 165 
3 164 167 116 
3 116 167 259 
3 259 167 165 
3 106 105 118 
3 106 118 117 
3 105 104 265 
3 105 265 118 
3 121 118 122 
3 121 122 123 
3 250 121 123 
3 250 123 266 
3 118 265 125 
3 118 125 127 
3 267 112 119 
3 267 119 268 
3 269 270 271 
3 269 271 272 
3 218 114 270 
3 218 270 269 
3 273 274 126 
3 273 126 275 
3 276 128 277 
3 276 277 278 
3 279 129 130 
3 131 155 129 
3 156 130 158 
3 130 129 158 
3 155 158 129 
3 118 127 280 
3 118 280 122 
3 278 277 119 
3 278 119 216 
3 131 280 155 
3 130 156 127 
3 156 157 127 
3 127 157 280 
3 280 157 155 
3 127 125 279 
3 127 279 130 
3 281 282 283 
3 282 284 283 
3 283 284 126 
3 275 126 284 
3 285 286 274 
3 285 274 273 
3 287 288 286 
3 287 286 285 
3 289 290 291 
3 289 291 292 
3 82 293 260 
3 294 166 295 
3 205 96 255 
3 205 255 254 
3 296 297 128 
3 296 128 276 
3 134 298 225 
3 223 298 134 
3 299 138 23 
3 136 138 299 
3 140 141 142 
3 142 141 139 
3 146 145 144 
3 143 145 146 
3 147 149 150 
3 150 149 148 
3 152 154 153 
3 153 154 151 
3 159 157 156 
3 300 301 302 
3 302 301 303 
3 155 157 159 
3 160 162 163 
3 163 162 161 
3 111 166 294 
3 304 166 103 
3 304 103 305 
3 295 166 304 
3 169 170 306 
3 306 170 168 
