ply
format ascii 1.0
comment TextureFile Dungeons_2_Texture_01_A.png
element vertex 310
property float x
property float y
property float z
property float nx
property float ny
property float nz
property uchar red
property uchar green
property uchar blue
property uchar alpha
property float texture_u
property float texture_v
element face 274
property list uchar int vertex_indices
end_header
131.9853 500 23.8291 0.1643852 0.3469091 0.9233806 192 192 192 255 0.143755 0.862266
199.1014 444.5073 23.8291 0.2835593 -0.1440886 0.9480678 192 192 192 255 0.119102 0.832449
131.9853 389.0145 23.8291 0.09653234 -0.4520743 0.8867414 192 192 192 255 0.094449 0.862266
0 389.0145 23.8291 -0.7071068 -0.3538982 0.6121733 192 192 192 255 0.094449 0.920902
0 500 23.8291 -1.907251e-05 -0.0001431403 1 192 192 192 255 0.143755 0.920902
126.3965 488.8462 30.27734 5.98964e-05 0.0003112512 0.9999999 192 192 192 255 0.346464 0.775611
172.1438 439.9929 30.27734 0.000190318 4.619042e-05 1 192 192 192 255 0.327721 0.758060
126.3965 400.1687 30.27734 0.0001409071 -0.0002901063 0.9999999 192 192 192 255 0.312443 0.775611
0 400.1687 30.27734 -0.4597282 -0.2300882 0.8577351 192 192 192 255 0.312443 0.824103
0 488.8462 30.27734 -0.4597289 0.2300943 0.8577331 192 192 192 255 0.346464 0.824103
286.2722 437.5336 23.8291 0.5486958 -0.2373856 0.8016115 192 192 192 255 0.135216 0.873955
250.0001 387.3123 23.8291 -0.1082393 -0.3534166 0.9291829 192 192 192 255 0.119102 0.851644
213.7279 437.5336 23.8291 -0.5827287 -0.1051914 0.8058301 192 192 192 255 0.102988 0.873955
213.7279 500 23.8291 -0.4684583 0.7071066 0.5296668 192 192 192 255 0.102988 0.901707
286.2722 500 23.8291 0.4684644 0.7071069 0.5296612 192 192 192 255 0.135216 0.901707
278.9816 441.7155 30.27734 0.0008874046 -0.0001722034 0.9999996 192 192 192 255 0.445734 0.961998
252.8102 406.7554 30.27734 0.0002796437 -0.0004970116 0.9999999 192 192 192 255 0.435694 0.948586
221.0187 441.7155 30.27734 -0.0007073787 -0.0003044394 0.9999997 192 192 192 255 0.423497 0.961998
221.0187 500 30.27734 -0.3123707 0.4715028 0.8246877 192 192 192 255 0.423497 0.984359
278.9816 500 30.27734 0.3123752 0.4715037 0.8246854 192 192 192 255 0.445734 0.984359
368.5334 389.0145 23.8291 -0.0003551099 -0.5003245 0.8658379 192 192 192 255 0.094449 0.890970
301.4173 444.5072 23.8291 -0.285332 0.08173195 0.9549375 192 192 192 255 0.119102 0.920787
368.5334 500 23.8291 -0.08793775 0.4369832 0.8951607 192 192 192 255 0.143755 0.890970
500 500 23.8291 0.7071068 0.3538952 0.612175 192 192 192 255 0.143755 0.832564
500 389.0145 23.8291 0.001094938 -0.5004761 0.8657497 192 192 192 255 0.094449 0.832564
374.1222 400.1683 30.27734 -5.420306e-05 -0.0130179 0.9999153 192 192 192 255 0.329073 0.922177
325.2133 441.3108 30.27734 -0.0001955724 -9.516799e-05 1 192 192 192 255 0.344857 0.940942
374.1222 488.8457 30.27734 -3.16303e-05 6.601003e-05 1 192 192 192 255 0.363094 0.922177
500 488.8457 30.27734 9.81442e-05 4.911954e-05 1 192 192 192 255 0.363094 0.873884
500 400.1683 30.27734 0.0003662265 -0.06445715 0.9979204 192 192 192 255 0.329073 0.873884
99.27448 312.3155 23.80078 2.128208e-05 -0.0001111545 1 192 192 192 255 0.146786 0.943695
400.7256 312.3155 23.80078 -5.757182e-06 -0.0001519086 1 192 192 192 255 0.146786 0.809771
500.2594 500 23.8291 1.777409e-05 -0.0001420307 1 192 192 192 255 0.230168 0.765552
131.9853 500 -23.80371 0.1777771 0.3703915 -0.9117048 192 192 192 255 0.094449 0.862266
199.1014 444.5073 -23.80371 0.2847468 -0.1206257 -0.950983 192 192 192 255 0.119102 0.832449
131.9853 389.0145 -23.80371 0.0001550893 -0.5004071 -0.8657902 192 192 192 255 0.143755 0.862266
0 389.0145 -23.80371 -0.0005800034 -0.5004919 -0.8657411 192 192 192 255 0.143755 0.920902
0 500 -23.80371 -3.732272e-05 1.867069e-05 -1 192 192 192 255 0.129683 0.987799
126.3965 488.8462 -30.25195 1.706919e-05 8.423252e-05 -1 192 192 192 255 0.283363 0.853581
173.9202 443.1585 -30.25195 0.0001905074 6.508625e-05 -1 192 192 192 255 0.300891 0.835348
126.3965 400.1687 -30.25195 3.171702e-05 -0.007540651 -0.9999716 192 192 192 255 0.317384 0.853581
0 400.1687 -30.25195 -0.001731976 -0.06445675 -0.997919 192 192 192 255 0.317384 0.902072
0 488.8462 -30.25195 -4.75483e-05 2.379792e-05 -1 192 192 192 255 0.283363 0.902072
286.2722 437.5336 -23.80371 0.526127 -0.2273569 -0.8194506 192 192 192 255 0.135216 0.879395
250.0001 387.3123 -23.80371 -0.1298239 -0.3506415 -0.9274677 192 192 192 255 0.119102 0.901707
213.7279 437.5336 -23.80371 -0.5869743 -0.1072413 -0.8024715 192 192 192 255 0.102988 0.879395
213.7279 500 -23.80371 -0.4684583 0.7071066 -0.5296668 192 192 192 255 0.102988 0.851644
286.2722 500 -23.80371 0.4684644 0.7071069 -0.5296612 192 192 192 255 0.135216 0.851644
278.9816 441.7155 -30.25195 0.0008854835 -0.0001675891 -0.9999996 192 192 192 255 0.476671 0.963487
251.3706 407.3397 -30.25195 0.0002436466 -0.0004934749 -0.9999999 192 192 192 255 0.466079 0.976676
221.0187 441.7155 -30.25195 -0.000732954 -0.0003158366 -0.9999997 192 192 192 255 0.454434 0.963487
221.0187 500 -30.25195 -0.3123707 0.4715028 -0.8246877 192 192 192 255 0.454434 0.941126
278.9816 500 -30.25195 0.3123752 0.4715037 -0.8246854 192 192 192 255 0.476671 0.941126
368.5334 389.0145 -23.80371 -0.2005579 -0.41304 -0.8883549 192 192 192 255 0.143755 0.890970
301.4173 444.5072 -23.80371 -0.2987081 -0.3600716 -0.8838111 192 192 192 255 0.119102 0.920787
368.5334 500 -23.80371 -0.1007515 0.459622 -0.8823813 192 192 192 255 0.094449 0.890970
500 500 -23.80371 0.7071068 0.3538952 -0.612175 192 192 192 255 0.094449 0.832564
500 389.0145 -23.80371 0.0006428859 -0.5004948 -0.8657393 192 192 192 255 0.117670 0.852022
371.3447 394.6253 -27.04688 -0.07847963 -0.3866657 -0.9188746 192 192 192 255 0.141263 0.889721
320.4962 444.5072 -30.25195 -0.2983546 -0.3604994 -0.883756 192 192 192 255 0.119102 0.912311
374.1222 488.8457 -30.25195 -6.385787e-05 0.0001307542 -1 192 192 192 255 0.099404 0.888487
500 488.8457 -30.25195 9.155109e-05 4.58198e-05 -1 192 192 192 255 0.099404 0.832564
500 400.1683 -30.25195 0.0001080486 -0.06445716 -0.9979205 192 192 192 255 0.120534 0.856977
128.6046 331.8821 -23.80371 4.126667e-06 -9.126197e-06 -1 192 192 192 255 0.082725 0.930665
400.7257 312.3155 -23.80078 -1.321715e-06 -1.20079e-05 -1 192 192 192 255 0.091417 0.809771
66.51874 303.8703 -23.80371 8.517721e-06 -1.121575e-05 -1 192 192 192 255 0.095169 0.958247
500.2594 500 -23.80371 9.479279e-06 3.01313e-06 -1 192 192 192 255 0.129683 0.765552
500.0001 312.3155 23.80078 0.0001073348 -0.0001509592 1 192 192 192 255 0.146786 0.765667
500.0001 312.3155 -23.80078 0.0002146697 -1.575708e-05 -1 192 192 192 255 0.091417 0.765667
0 312.3155 23.80078 -0.0001610022 -0.0001508851 1 192 192 192 255 0.146786 0.987799
0 364.2664 -23.80371 -0.000332235 -3.21375e-09 -1 192 192 192 255 0.068338 0.987799
269.6033 340.0066 23.80078 -1.438948e-05 -0.000133079 1 192 192 192 255 0.159089 0.868024
144.6284 340.0066 23.80078 1.582077e-05 -9.731403e-05 1 192 192 192 255 0.159089 0.923546
385.023 400.1683 30.27734 0.002251 -0.03643505 0.9993335 192 192 192 255 0.329073 0.917995
472.7052 400.1683 30.27734 -0.0057071 -0.09138039 0.9957997 192 192 192 255 0.329073 0.884356
442.8032 411.367 30.27734 4.585883e-10 -0.0373355 0.9993028 192 192 192 255 0.333369 0.895828
432.9087 394.0425 26.73535 1.029263e-09 -0.3812823 0.9244587 192 192 192 255 0.096682 0.862370
346.0085 329.2654 -23.80078 8.508659e-06 -2.399909e-05 -1 192 192 192 255 0.083887 0.834080
407.4854 400.1683 -30.25195 -0.003040488 -0.08111964 -0.9966998 192 192 192 255 0.138800 0.873665
361.4924 410.6108 -30.25195 -0.1606781 -0.2879767 -0.9440615 192 192 192 255 0.134161 0.894098
374.1222 414.5863 -30.25195 -0.002293988 -0.01010363 -0.9999464 192 192 192 255 0.132395 0.888487
106.0872 400.1687 -30.25195 -0.007985561 -0.1045702 -0.9944855 192 192 192 255 0.317384 0.861372
11.54291 400.1687 -30.25195 0.006721056 -0.08413731 -0.9964315 192 192 192 255 0.317384 0.897644
59.37726 414.8357 -30.25195 0 -0.03538549 -0.9993737 192 192 192 255 0.311757 0.879292
64.43701 394.3828 -26.90723 0 -0.3496921 -0.9368647 192 192 192 255 0.141370 0.892275
159.8589 246.7154 17.19434 0.2357023 -0.2357023 0.9428091 192 192 192 255 0.079056 0.928311
142.9716 260.9771 17.19434 0.2410224 -0.2193671 0.9454027 192 192 192 255 0.071553 0.934647
129.5757 0 23.80078 0.08597065 -0.0002748605 0.9962977 192 192 192 255 0.008036 0.930233
142.9716 0 17.19434 0.442178 -0.0005080964 0.8969272 192 192 192 255 0.071553 0.818704
159.8589 0 17.19434 0.6666667 -0.6666667 0.3333333 192 192 192 255 0.079056 0.818704
0 258.7374 23.80078 -0.6805925 0.1110431 0.7241985 192 192 192 255 0.122984 0.987799
66.41071 0 23.80078 4.278162e-05 -0.0001173027 1 192 192 192 255 0.008036 0.958295
66.41077 207.579 23.80078 6.168753e-05 4.409419e-05 1 192 192 192 255 0.100256 0.958295
0 240.9975 33.01562 -0.5254434 0.1960928 0.8279232 192 192 192 255 0.115102 0.987799
0 0 33.01562 -0.6666667 -0.6666667 0.3333333 192 192 192 255 0.008036 0.987799
52.31073 200.7457 33.01562 0.3745882 0.1139913 0.9201575 192 192 192 255 0.097220 0.964559
52.31073 0 33.01562 0.155681 -0.5691482 0.8073621 192 192 192 255 0.008036 0.964559
129.5757 274.7197 23.80078 0.0188613 -0.01625649 0.9996899 192 192 192 255 0.130084 0.930233
159.8589 246.7154 -17.19434 0.4082483 -0.4082483 -0.8164966 192 192 192 255 0.079056 0.825040
142.9716 260.9771 -17.19434 0.4420392 -0.0001469832 -0.8969957 192 192 192 255 0.071553 0.818704
129.5757 0 -23.80078 0.1899894 -0.0002433847 -0.9817861 192 192 192 255 0.108528 0.854619
142.9716 0 -17.19434 0.4421046 -0.0007692651 -0.8969632 192 192 192 255 0.111463 0.848668
159.8589 -0 -17.19434 0.5773503 -0.5773503 -0.5773503 192 192 192 255 0.111463 0.841165
0 258.7374 -23.80078 -0.6806002 0.1110275 -0.7241935 192 192 192 255 0.108528 0.880557
66.41071 0 -23.80078 4.743957e-05 -0.0001300743 -1 192 192 192 255 0.108528 0.882681
66.41077 207.579 -23.80078 6.212627e-05 3.009267e-05 -1 192 192 192 255 0.137948 0.958295
0 240.9975 -33.01562 -0.5254434 0.1960928 -0.8279232 192 192 192 255 0.104434 0.872676
0 0 -33.01562 -0.5773503 -0.5773503 -0.5773503 192 192 192 255 0.104434 0.765610
52.31073 200.7457 -33.01562 0.3745882 0.1139913 -0.9201575 192 192 192 255 0.140984 0.964559
52.31073 -0 -33.01562 0.1108678 -0.8106347 -0.5749607 192 192 192 255 0.104434 0.888945
129.5757 274.7197 -23.80078 0.01880109 -6.483956e-05 -0.9998233 192 192 192 255 0.108120 0.930233
340.1412 246.7154 17.19434 -0.2672613 -0.5345225 0.8017837 192 192 192 255 0.159148 0.928311
357.0286 260.9771 17.19434 -0.0001905472 -0.4328596 0.9014614 192 192 192 255 0.166651 0.934647
370.4244 0 23.80078 -0.2109374 -0.7153519 0.6661659 192 192 192 255 0.008036 0.823233
357.0286 0 17.19434 -0.1054687 -0.715352 0.6907589 192 192 192 255 0.166651 0.818704
340.1412 0 17.19434 -0.6666667 -0.6666667 0.3333333 192 192 192 255 0.159148 0.818704
500.0001 258.7374 23.80078 0.6805924 0.111043 0.7241985 192 192 192 255 0.122984 0.765667
433.5894 0 23.80078 -0.5468022 -0.0008575909 0.8372614 192 192 192 255 0.008036 0.795171
433.5894 207.579 23.80078 -0.3186373 9.074131e-05 0.9478768 192 192 192 255 0.100256 0.795171
500.0001 240.9975 33.01562 0.0001848275 6.89766e-05 1 192 192 192 255 0.115102 0.765667
500.0001 0 33.01562 9.221116e-05 -9.221116e-05 1 192 192 192 255 0.008036 0.765667
447.6895 200.7457 33.01562 -0.0197401 2.95827e-05 0.9998052 192 192 192 255 0.097220 0.788907
447.6895 -0 33.01562 -0.3244365 -0.0002702042 0.9459075 192 192 192 255 0.008036 0.788907
370.4244 274.7197 23.80078 -2.359647e-05 -0.03813105 0.9992728 192 192 192 255 0.130084 0.823233
340.1412 246.7154 -17.19434 -0.5345225 -0.2672613 -0.8017837 192 192 192 255 0.159148 0.825040
357.0286 260.9771 -17.19434 -0.1530597 -0.07496504 -0.9853695 192 192 192 255 0.166651 0.818704
370.4244 0 -23.80078 -0.2109374 -0.7153519 -0.6661659 192 192 192 255 0.108528 0.898731
357.0286 0 -17.19434 -0.1054687 -0.715352 -0.6907589 192 192 192 255 0.111463 0.904683
340.1412 -0 -17.19434 -0.5773503 -0.5773503 -0.5773503 192 192 192 255 0.111463 0.912185
500.0001 258.7374 -23.80078 0.6805924 0.111043 -0.7241985 192 192 192 255 0.129676 0.880557
433.5894 0 -23.80078 -0.5468364 -0.0007427999 -0.8372392 192 192 192 255 0.108528 0.870669
433.5894 207.579 -23.80078 -0.1946296 0.0001345782 -0.9808769 192 192 192 255 0.137948 0.795171
500.0001 240.9975 -33.01562 0.0001848275 6.89766e-05 -1 192 192 192 255 0.133770 0.872676
500.0001 0 -33.01562 4.663185e-05 -4.663185e-05 -1 192 192 192 255 0.133770 0.765610
447.6895 200.7457 -33.01562 -0.01129415 3.224145e-05 -0.9999362 192 192 192 255 0.140984 0.788907
447.6895 -0 -33.01562 -0.1374384 -0.001087819 -0.9905097 192 192 192 255 0.104434 0.864406
370.4244 274.7197 -23.80078 -6.331597e-05 -0.000124048 -1 192 192 192 255 0.169150 0.615826
447.6895 169.2932 33.01562 -0.2437919 -0.01211259 0.969752 192 192 192 255 0.083247 0.788907
447.6895 63.70683 33.01562 -0.05781934 0.006628085 0.9983051 192 192 192 255 0.036339 0.788907
461.1243 117.1971 33.01562 -0.07117824 0 0.9974636 192 192 192 255 0.060103 0.782938
441.2771 118.8882 28.8252 -0.3792951 9.274913e-10 0.9252757 192 192 192 255 0.060854 0.791755
129.5757 142.0337 23.80078 0.110457 0.001734857 0.9938794 192 192 192 255 0.071137 0.930233
129.5757 240.88 23.80078 0.1178541 -0.005783178 0.9930141 192 192 192 255 0.115050 0.930233
137.285 203.1019 19.99902 0.4423136 1.317299e-10 0.8968605 192 192 192 255 0.070598 0.609384
120.7897 206.4011 23.80078 0.01867658 1.895887e-10 0.9998256 192 192 192 255 0.099733 0.934136
137.2852 203.1019 19.99902 0.2245867 2.279812e-09 0.9744542 192 192 192 255 0.120815 0.871502
129.5757 239.6377 -23.80078 0.1118915 -0.005187255 -0.9937069 192 192 192 255 0.123706 0.930233
129.5757 116.2015 -23.80078 0.04690045 0.003123293 -0.9988947 192 192 192 255 0.178544 0.930233
117.9669 174.3231 -23.80078 0.02195723 0 -0.9997589 192 192 192 255 0.152722 0.935390
137.4698 178.1919 -19.90723 0.3227248 0 -0.9464929 192 192 192 255 0.071525 0.656278
447.6895 54.84332 -33.01562 -0.1741776 0.005738847 -0.9846975 192 192 192 255 0.205803 0.788907
447.6895 184.2516 -33.01562 -0.4050457 -0.0321696 -0.9137303 192 192 192 255 0.148312 0.788907
437.6509 140.7981 -26.45508 -0.4462788 0 -0.894894 192 192 192 255 0.167616 0.793367
459.0896 148.2409 -33.01562 -0.0946309 0 -0.9955124 192 192 192 255 0.164310 0.783842
262.2339 274.7197 23.80078 -0.001897122 -0.0769897 0.9970301 192 192 192 255 0.122961 0.639396
158.7421 274.7197 23.80078 0.004892629 -0.1006347 0.9949114 192 192 192 255 0.079590 0.639396
217.1292 284.881 23.80078 -5.013839e-10 -0.0531345 0.9985874 192 192 192 255 0.134598 0.891336
209.3113 266.5942 19.89453 -6.568358e-10 -0.3612228 0.9324796 192 192 192 255 0.100783 0.635991
126.3965 488.8462 30.27734 5.98964e-05 0.0003112512 0.9999999 192 192 192 255 0.138800 0.864749
172.1438 439.9929 30.27734 0.000190318 4.619042e-05 1 192 192 192 255 0.117096 0.844425
126.3965 400.1687 30.27734 0.0001409071 -0.0002901063 0.9999999 192 192 192 255 0.099404 0.864749
0 400.1687 30.27734 -0.4597282 -0.2300882 0.8577351 192 192 192 255 0.099404 0.920902
0 488.8462 30.27734 -0.4597289 0.2300943 0.8577331 192 192 192 255 0.138800 0.920902
0 400.1687 30.27734 -0.4597282 -0.2300882 0.8577351 192 192 192 255 0.120534 0.856977
0 488.8462 30.27734 -0.4597289 0.2300943 0.8577331 192 192 192 255 0.120534 0.896374
0 500 23.8291 -1.907251e-05 -0.0001431403 1 192 192 192 255 0.117670 0.901329
0 389.0145 23.8291 -0.7071068 -0.3538982 0.6121733 192 192 192 255 0.117670 0.852022
278.9816 441.7155 30.27734 0.0008874046 -0.0001722034 0.9999996 192 192 192 255 0.131977 0.875813
252.8102 406.7554 30.27734 0.0002796437 -0.0004970116 0.9999999 192 192 192 255 0.120350 0.860282
221.0187 441.7155 30.27734 -0.0007073787 -0.0003044394 0.9999997 192 192 192 255 0.106227 0.875813
221.0187 500 30.27734 -0.3123707 0.4715028 0.8246877 192 192 192 255 0.106227 0.901707
278.9816 500 30.27734 0.3123752 0.4715037 0.8246854 192 192 192 255 0.131977 0.901707
221.0187 500 30.27734 -0.3123707 0.4715028 0.8246877 192 192 192 255 0.117670 0.889551
278.9816 500 30.27734 0.3123752 0.4715037 0.8246854 192 192 192 255 0.117670 0.863800
286.2722 500 23.8291 0.4684644 0.7071069 0.5296612 192 192 192 255 0.120534 0.860561
213.7279 500 23.8291 -0.4684583 0.7071066 0.5296668 192 192 192 255 0.120534 0.892790
374.1222 400.1683 30.27734 -5.420306e-05 -0.0130179 0.9999153 192 192 192 255 0.099404 0.888487
325.2133 441.3108 30.27734 -0.0001955724 -9.516799e-05 1 192 192 192 255 0.117682 0.910215
374.1222 488.8457 30.27734 -3.16303e-05 6.601003e-05 1 192 192 192 255 0.138800 0.888487
500 488.8457 30.27734 9.81442e-05 4.911954e-05 1 192 192 192 255 0.138800 0.832564
500 400.1683 30.27734 0.0003662265 -0.06445715 0.9979204 192 192 192 255 0.099404 0.832564
472.7052 400.1683 30.27734 -0.0057071 -0.09138039 0.9957997 192 192 192 255 0.099404 0.844690
385.023 400.1683 30.27734 0.002251 -0.03643505 0.9993335 192 192 192 255 0.099404 0.883644
500 488.8457 30.27734 9.81442e-05 4.911954e-05 1 192 192 192 255 0.117670 0.896373
500 400.1683 30.27734 0.0003662265 -0.06445715 0.9979204 192 192 192 255 0.117670 0.856977
500 389.0145 23.8291 0.001094938 -0.5004761 0.8657497 192 192 192 255 0.120534 0.852022
500 500 23.8291 0.7071068 0.3538952 0.612175 192 192 192 255 0.120534 0.901329
0 500 23.8291 -1.907251e-05 -0.0001431403 1 192 192 192 255 0.230168 0.987799
0 500 23.8291 -1.907251e-05 -0.0001431403 1 192 192 192 255 0.108521 0.987799
500.2594 500 23.8291 1.777409e-05 -0.0001420307 1 192 192 192 255 0.108521 0.765552
173.9202 443.1585 -30.25195 0.0001905074 6.508625e-05 -1 192 192 192 255 0.119701 0.843636
126.3965 488.8462 -30.25195 1.706919e-05 8.423252e-05 -1 192 192 192 255 0.099404 0.864749
126.3965 400.1687 -30.25195 3.171702e-05 -0.007540651 -0.9999716 192 192 192 255 0.138800 0.864749
0 400.1687 -30.25195 -0.001731976 -0.06445675 -0.997919 192 192 192 255 0.138800 0.920902
11.54291 400.1687 -30.25195 0.006721056 -0.08413731 -0.9964315 192 192 192 255 0.138800 0.915774
106.0872 400.1687 -30.25195 -0.007985561 -0.1045702 -0.9944855 192 192 192 255 0.138800 0.873771
0 500 -23.80371 -3.732272e-05 1.867069e-05 -1 192 192 192 255 0.094449 0.920902
0 488.8462 -30.25195 -4.75483e-05 2.379792e-05 -1 192 192 192 255 0.099404 0.920902
0 400.1687 -30.25195 -0.001731976 -0.06445675 -0.997919 192 192 192 255 0.117670 0.856977
0 389.0145 -23.80371 -0.0005800034 -0.5004919 -0.8657411 192 192 192 255 0.120534 0.852022
0 500 -23.80371 -3.732272e-05 1.867069e-05 -1 192 192 192 255 0.120534 0.901329
0 488.8462 -30.25195 -4.75483e-05 2.379792e-05 -1 192 192 192 255 0.117670 0.896374
251.3706 407.3397 -30.25195 0.0002436466 -0.0004934749 -0.9999999 192 192 192 255 0.119711 0.892809
278.9816 441.7155 -30.25195 0.0008854835 -0.0001675891 -0.9999996 192 192 192 255 0.131977 0.877538
221.0187 441.7155 -30.25195 -0.000732954 -0.0003158366 -0.9999997 192 192 192 255 0.106227 0.877538
221.0187 500 -30.25195 -0.3123707 0.4715028 -0.8246877 192 192 192 255 0.106227 0.851644
278.9816 500 -30.25195 0.3123752 0.4715037 -0.8246854 192 192 192 255 0.131977 0.851644
221.0187 500 -30.25195 -0.3123707 0.4715028 -0.8246877 192 192 192 255 0.120534 0.889551
213.7279 500 -23.80371 -0.4684583 0.7071066 -0.5296668 192 192 192 255 0.117670 0.892790
286.2722 500 -23.80371 0.4684644 0.7071069 -0.5296612 192 192 192 255 0.117670 0.860561
278.9816 500 -30.25195 0.3123752 0.4715037 -0.8246854 192 192 192 255 0.120534 0.863800
500 488.8457 -30.25195 9.155109e-05 4.58198e-05 -1 192 192 192 255 0.120534 0.896373
500 500 -23.80371 0.7071068 0.3538952 -0.612175 192 192 192 255 0.117670 0.901329
0 500 -23.80371 -3.732272e-05 1.867069e-05 -1 192 192 192 255 0.008036 0.987799
500.2594 500 -23.80371 9.479279e-06 3.01313e-06 -1 192 192 192 255 0.008036 0.765552
442.8032 411.367 30.27734 4.585883e-10 -0.0373355 0.9993028 192 192 192 255 0.104379 0.857974
500 389.0145 -23.80371 0.0006428859 -0.5004948 -0.8657393 192 192 192 255 0.143755 0.832564
500 400.1683 -30.25195 0.0001080486 -0.06445716 -0.9979205 192 192 192 255 0.138800 0.832564
374.1222 414.5863 -30.25195 -0.002293988 -0.01010363 -0.9999464 192 192 192 255 0.403195 0.937345
361.4924 410.6108 -30.25195 -0.1606781 -0.2879767 -0.9440615 192 192 192 255 0.404720 0.942191
320.4962 444.5072 -30.25195 -0.2983546 -0.3604994 -0.883756 192 192 192 255 0.391716 0.957919
374.1222 488.8457 -30.25195 -6.385787e-05 0.0001307542 -1 192 192 192 255 0.374705 0.937345
500 488.8457 -30.25195 9.155109e-05 4.58198e-05 -1 192 192 192 255 0.374705 0.889052
407.4854 400.1683 -30.25195 -0.003040488 -0.08111964 -0.9966998 192 192 192 255 0.408727 0.924546
500 400.1683 -30.25195 0.0001080486 -0.06445716 -0.9979205 192 192 192 255 0.408727 0.889052
59.37726 414.8357 -30.25195 0 -0.03538549 -0.9993737 192 192 192 255 0.132284 0.894523
159.8589 0 17.19434 0.6666667 -0.6666667 0.3333333 192 192 192 255 0.126740 0.841165
142.9716 0 17.19434 0.442178 -0.0005080964 0.8969272 192 192 192 255 0.126740 0.848668
0 258.7374 23.80078 -0.6805925 0.1110431 0.7241985 192 192 192 255 0.129676 0.880557
0 312.3155 23.80078 -0.0001610022 -0.0001508851 1 192 192 192 255 0.129676 0.904360
0 364.2664 -23.80371 -0.000332235 -3.21375e-09 -1 192 192 192 255 0.108527 0.927440
66.41071 0 23.80078 4.278162e-05 -0.0001173027 1 192 192 192 255 0.129676 0.882681
52.31073 0 33.01562 0.155681 -0.5691482 0.8073621 192 192 192 255 0.133770 0.888945
129.5757 0 23.80078 0.08597065 -0.0002748605 0.9962977 192 192 192 255 0.129676 0.854619
0 0 33.01562 -0.6666667 -0.6666667 0.3333333 192 192 192 255 0.133770 0.765610
0 240.9975 33.01562 -0.5254434 0.1960928 0.8279232 192 192 192 255 0.133770 0.872676
129.5757 274.7197 23.80078 0.0188613 -0.01625649 0.9996899 192 192 192 255 0.067368 0.639396
129.5757 240.88 23.80078 0.1178541 -0.005783178 0.9930141 192 192 192 255 0.067368 0.625215
142.9716 260.9771 17.19434 0.2410224 -0.2193671 0.9454027 192 192 192 255 0.072981 0.633637
129.5757 0 23.80078 0.08597065 -0.0002748605 0.9962977 192 192 192 255 0.067368 0.524270
142.9716 0 17.19434 0.442178 -0.0005080964 0.8969272 192 192 192 255 0.072981 0.524270
129.5757 142.0337 23.80078 0.110457 0.001734857 0.9938794 192 192 192 255 0.067368 0.583791
159.8589 -0 -17.19434 0.5773503 -0.5773503 -0.5773503 192 192 192 255 0.079056 0.934647
142.9716 0 -17.19434 0.4421046 -0.0007692651 -0.8969632 192 192 192 255 0.071553 0.934647
0 258.7374 -23.80078 -0.6806002 0.1110275 -0.7241935 192 192 192 255 0.115220 0.987799
52.31073 -0 -33.01562 0.1108678 -0.8106347 -0.5749607 192 192 192 255 0.230168 0.964559
0 0 -33.01562 -0.5773503 -0.5773503 -0.5773503 192 192 192 255 0.230168 0.987799
0 240.9975 -33.01562 -0.5254434 0.1960928 -0.8279232 192 192 192 255 0.123101 0.987799
66.41071 0 -23.80078 4.743957e-05 -0.0001300743 -1 192 192 192 255 0.230168 0.958295
129.5757 0 -23.80078 0.1899894 -0.0002433847 -0.9817861 192 192 192 255 0.230168 0.930233
159.8589 0 17.19434 0.6666667 -0.6666667 0.3333333 192 192 192 255 0.111463 0.821872
159.8589 -0 -17.19434 0.5773503 -0.5773503 -0.5773503 192 192 192 255 0.126741 0.821872
159.8589 246.7154 -17.19434 0.4082483 -0.4082483 -0.8164966 192 192 192 255 0.126741 0.931479
159.8589 246.7154 17.19434 0.2357023 -0.2357023 0.9428091 192 192 192 255 0.111463 0.931479
129.5757 274.7197 -23.80078 0.01880109 -6.483956e-05 -0.9998233 192 192 192 255 0.068217 0.615826
142.9716 260.9771 -17.19434 0.4420392 -0.0001469832 -0.8969957 192 192 192 255 0.073831 0.621585
129.5757 239.6377 -23.80078 0.1118915 -0.005187255 -0.9937069 192 192 192 255 0.068217 0.630527
142.9716 0 -17.19434 0.4421046 -0.0007692651 -0.8969632 192 192 192 255 0.073831 0.730953
129.5757 0 -23.80078 0.1899894 -0.0002433847 -0.9817861 192 192 192 255 0.068217 0.730953
129.5757 116.2015 -23.80078 0.04690045 0.003123293 -0.9988947 192 192 192 255 0.068217 0.682256
357.0286 260.9771 -17.19434 -0.1530597 -0.07496504 -0.9853695 192 192 192 255 0.163536 0.621585
370.4244 274.7197 -23.80078 -6.331597e-05 -0.000124048 -1 192 192 192 255 0.108120 0.823233
0 0 33.01562 -0.6666667 -0.6666667 0.3333333 192 192 192 255 0.133770 0.912185
0 0 -33.01562 -0.5773503 -0.5773503 -0.5773503 192 192 192 255 0.104434 0.912185
340.1412 0 17.19434 -0.6666667 -0.6666667 0.3333333 192 192 192 255 0.126740 0.912185
357.0286 0 17.19434 -0.1054687 -0.715352 0.6907589 192 192 192 255 0.126740 0.904683
500.0001 258.7374 23.80078 0.6805924 0.111043 0.7241985 192 192 192 255 0.108528 0.880557
500.0001 312.3155 -23.80078 0.0002146697 -1.575708e-05 -1 192 192 192 255 0.129676 0.904360
500.0001 312.3155 23.80078 0.0001073348 -0.0001509592 1 192 192 192 255 0.108528 0.904360
433.5894 0 23.80078 -0.5468022 -0.0008575909 0.8372614 192 192 192 255 0.129676 0.870669
447.6895 -0 33.01562 -0.3244365 -0.0002702042 0.9459075 192 192 192 255 0.133770 0.864406
370.4244 0 23.80078 -0.2109374 -0.7153519 0.6661659 192 192 192 255 0.129676 0.898731
500.0001 0 33.01562 9.221116e-05 -9.221116e-05 1 192 192 192 255 0.104434 0.765610
500.0001 240.9975 33.01562 0.0001848275 6.89766e-05 1 192 192 192 255 0.104434 0.872676
159.8589 246.7154 -17.19434 0.4082483 -0.4082483 -0.8164966 192 192 192 255 0.111463 0.916722
340.1412 246.7154 -17.19434 -0.5345225 -0.2672613 -0.8017837 192 192 192 255 0.111463 0.836629
340.1412 246.7154 17.19434 -0.2672613 -0.5345225 0.8017837 192 192 192 255 0.126741 0.836629
159.8589 246.7154 17.19434 0.2357023 -0.2357023 0.9428091 192 192 192 255 0.126741 0.916722
357.0286 260.9771 17.19434 -0.0001905472 -0.4328596 0.9014614 192 192 192 255 0.162686 0.633637
357.0286 0 17.19434 -0.1054687 -0.715352 0.6907589 192 192 192 255 0.162686 0.524270
370.4244 0 23.80078 -0.2109374 -0.7153519 0.6661659 192 192 192 255 0.168300 0.524270
370.4244 274.7197 23.80078 -2.359647e-05 -0.03813105 0.9992728 192 192 192 255 0.168300 0.639396
158.7421 274.7197 23.80078 0.004892629 -0.1006347 0.9949114 192 192 192 255 0.130084 0.917275
262.2339 274.7197 23.80078 -0.001897122 -0.0769897 0.9970301 192 192 192 255 0.130084 0.871298
357.0286 0 -17.19434 -0.1054687 -0.715352 -0.6907589 192 192 192 255 0.166651 0.934647
340.1412 -0 -17.19434 -0.5773503 -0.5773503 -0.5773503 192 192 192 255 0.159148 0.934647
500.0001 258.7374 -23.80078 0.6805924 0.111043 -0.7241985 192 192 192 255 0.115220 0.765667
500.0001 240.9975 -33.01562 0.0001848275 6.89766e-05 -1 192 192 192 255 0.123101 0.765667
500.0001 0 -33.01562 4.663185e-05 -4.663185e-05 -1 192 192 192 255 0.230168 0.765667
447.6895 -0 -33.01562 -0.1374384 -0.001087819 -0.9905097 192 192 192 255 0.230168 0.788907
433.5894 0 -23.80078 -0.5468364 -0.0007427999 -0.8372392 192 192 192 255 0.230168 0.795171
370.4244 0 -23.80078 -0.2109374 -0.7153519 -0.6661659 192 192 192 255 0.230168 0.823233
340.1412 0 17.19434 -0.6666667 -0.6666667 0.3333333 192 192 192 255 0.126741 0.821872
340.1412 246.7154 17.19434 -0.2672613 -0.5345225 0.8017837 192 192 192 255 0.126741 0.931479
340.1412 246.7154 -17.19434 -0.5345225 -0.2672613 -0.8017837 192 192 192 255 0.111463 0.931479
340.1412 -0 -17.19434 -0.5773503 -0.5773503 -0.5773503 192 192 192 255 0.111463 0.821872
370.4244 0 -23.80078 -0.2109374 -0.7153519 -0.6661659 192 192 192 255 0.169150 0.730953
357.0286 0 -17.19434 -0.1054687 -0.715352 -0.6907589 192 192 192 255 0.163536 0.730953
500.0001 0 -33.01562 4.663185e-05 -4.663185e-05 -1 192 192 192 255 0.104434 0.841165
500.0001 0 33.01562 9.221116e-05 -9.221116e-05 1 192 192 192 255 0.133770 0.841165
137.285 203.1019 19.99902 0.4423136 1.317299e-10 0.8968605 192 192 192 255 0.120814 0.871502
129.5757 240.88 23.80078 0.1178541 -0.005783178 0.9930141 192 192 192 255 0.117389 0.854719
137.2852 203.1019 19.99902 0.2245867 2.279812e-09 0.9744542 192 192 192 255 0.098267 0.926808
129.5757 142.0337 23.80078 0.110457 0.001734857 0.9938794 192 192 192 255 0.117389 0.898632
137.4698 178.1919 -19.90723 0.3227248 0 -0.9464929 192 192 192 255 0.151004 0.926726
209.3113 266.5942 19.89453 -6.568358e-10 -0.3612228 0.9324796 192 192 192 255 0.126474 0.894809
0 500 -23.80371 -3.732272e-05 1.867069e-05 -1 192 192 192 255 0.108527 0.987741
0 500 23.8291 -1.907251e-05 -0.0001431403 1 192 192 192 255 0.129688 0.987741
500.2594 500 23.8291 1.777409e-05 -0.0001420307 1 192 192 192 255 0.108516 0.987741
500.2594 500 -23.80371 9.479279e-06 3.01313e-06 -1 192 192 192 255 0.129677 0.987741
3 5 7 6 
3 5 9 8 
3 5 8 7 
3 0 158 159 
3 0 159 1 
3 1 159 160 
3 1 160 2 
3 2 160 161 
3 2 161 3 
3 4 162 158 
3 4 158 0 
3 163 164 165 
3 163 165 166 
3 15 17 16 
3 15 19 18 
3 15 18 17 
3 10 167 168 
3 10 168 11 
3 11 168 169 
3 11 169 12 
3 12 169 170 
3 12 170 13 
3 14 171 167 
3 14 167 10 
3 172 173 174 
3 172 174 175 
3 25 27 26 
3 25 73 27 
3 27 73 28 
3 73 75 28 
3 75 74 28 
3 74 29 28 
3 20 176 177 
3 20 177 21 
3 21 177 178 
3 21 178 22 
3 22 178 179 
3 22 179 23 
3 180 181 24 
3 176 20 182 
3 182 20 76 
3 20 24 76 
3 24 181 76 
3 183 184 185 
3 183 185 186 
3 32 187 31 
3 31 187 71 
3 71 187 72 
3 187 30 72 
3 66 37 188 
3 66 188 189 
3 38 39 40 
3 38 40 42 
3 40 81 42 
3 81 83 42 
3 41 42 82 
3 83 82 42 
3 33 34 190 
3 33 190 191 
3 34 35 192 
3 34 192 190 
3 193 194 36 
3 192 35 195 
3 194 84 36 
3 36 84 35 
3 35 84 195 
3 196 33 191 
3 196 191 197 
3 198 199 200 
3 198 200 201 
3 48 49 50 
3 48 50 51 
3 48 51 52 
3 43 44 202 
3 43 202 203 
3 44 45 204 
3 44 204 202 
3 45 46 205 
3 45 205 204 
3 47 43 203 
3 47 203 206 
3 207 208 209 
3 207 209 210 
3 58 79 80 
3 58 80 78 
3 54 55 60 
3 54 60 59 
3 55 56 61 
3 55 61 60 
3 211 212 57 
3 211 57 62 
3 213 63 65 
3 213 214 63 
3 63 214 77 
3 77 214 64 
3 32 31 67 
3 214 68 64 
3 187 69 30 
3 213 65 70 
3 76 215 182 
3 181 215 76 
3 53 58 216 
3 58 78 216 
3 216 78 217 
3 54 59 53 
3 53 59 58 
3 59 79 58 
3 218 219 220 
3 218 220 221 
3 221 222 218 
3 218 222 223 
3 223 222 224 
3 194 225 84 
3 84 225 195 
3 85 86 88 
3 85 88 89 
3 30 69 90 
3 30 90 92 
3 226 227 101 
3 226 101 102 
3 96 95 93 
3 96 93 94 
3 97 92 142 
3 142 92 144 
3 92 91 144 
3 144 91 141 
3 91 87 141 
3 228 229 230 
3 228 230 103 
3 91 92 95 
3 91 95 96 
3 92 90 93 
3 92 93 95 
3 231 232 109 
3 231 109 104 
3 233 231 104 
3 233 104 100 
3 227 233 100 
3 227 100 101 
3 234 235 106 
3 234 106 107 
3 72 30 97 
3 236 237 238 
3 239 240 241 
3 237 143 238 
3 238 143 240 
3 143 241 240 
3 30 92 97 
3 235 228 103 
3 235 103 106 
3 98 242 243 
3 98 243 99 
3 65 105 244 
3 65 244 70 
3 245 246 247 
3 245 247 108 
3 110 146 105 
3 146 148 105 
3 105 148 248 
3 148 147 248 
3 147 249 248 
3 248 245 108 
3 248 108 105 
3 105 108 247 
3 105 247 244 
3 250 251 252 
3 250 252 253 
3 98 99 125 
3 98 125 124 
3 63 110 65 
3 254 255 256 
3 257 258 255 
3 256 255 149 
3 255 258 149 
3 258 259 149 
3 255 254 136 
3 255 136 260 
3 65 110 105 
3 110 63 77 
3 110 77 261 
3 109 232 262 
3 109 262 263 
3 111 115 114 
3 111 114 112 
3 31 118 116 
3 31 116 67 
3 264 128 127 
3 264 127 265 
3 119 121 120 
3 121 137 120 
3 137 139 120 
3 139 138 120 
3 122 120 138 
3 123 113 117 
3 123 117 118 
3 266 129 267 
3 266 267 268 
3 117 122 118 
3 121 118 137 
3 137 118 140 
3 118 122 140 
3 122 138 140 
3 118 121 119 
3 118 119 116 
3 269 130 135 
3 269 135 270 
3 271 126 130 
3 271 130 269 
3 265 127 126 
3 265 126 271 
3 272 133 132 
3 272 132 273 
3 85 111 112 
3 85 112 86 
3 274 275 276 
3 274 276 277 
3 71 123 31 
3 278 279 280 
3 278 280 281 
3 281 154 278 
3 236 238 155 
3 155 238 157 
3 238 278 157 
3 278 154 157 
3 31 123 118 
3 273 132 129 
3 273 129 266 
3 97 282 72 
3 123 71 283 
3 282 156 72 
3 71 72 283 
3 156 283 72 
3 124 125 284 
3 124 284 285 
3 64 68 286 
3 64 286 131 
3 287 288 134 
3 289 150 288 
3 151 134 153 
3 134 288 153 
3 150 153 288 
3 261 131 290 
3 261 290 291 
3 289 290 150 
3 134 151 131 
3 151 152 131 
3 131 152 290 
3 290 152 150 
3 131 286 287 
3 131 287 134 
3 292 293 294 
3 292 294 295 
3 77 64 261 
3 260 136 296 
3 260 296 297 
3 64 131 261 
3 135 298 299 
3 135 299 270 
3 140 139 137 
3 138 139 140 
3 145 300 301 
3 142 144 302 
3 302 144 141 
3 303 300 145 
3 146 304 148 
3 148 304 147 
3 153 152 151 
3 150 152 153 
3 305 156 282 
3 283 156 305 
3 306 230 229 
3 306 229 307 
3 308 268 267 
3 308 267 309 
