ply
format ascii 1.0
comment TextureFile Dungeons_2_Texture_01_A.png
element vertex 160
property float x
property float y
property float z
property float nx
property float ny
property float nz
property uchar red
property uchar green
property uchar blue
property uchar alpha
property float texture_u
property float texture_v
element face 244
property list uchar int vertex_indices
end_header
366.8165 126.1485 18.76424 -0.005666424 0.00164554 0.9999826 192 192 192 255 0.179177 0.809216
133.1834 126.1485 18.76424 0.3102575 0.09488248 0.9459057 192 192 192 255 0.061832 0.809216
133.1834 500 18.76424 3.83445e-05 0.0001087198 1 192 192 192 255 0.061832 0.996987
366.8165 500 18.76424 -0.05554611 0.0001007249 0.9984561 192 192 192 255 0.179177 0.996987
344.6532 95.16019 18.76424 -8.096667e-05 0.0001715839 1 192 192 192 255 0.168045 0.793652
158.5589 93.12726 18.76424 8.574629e-05 0.0001241707 1 192 192 192 255 0.074577 0.792631
361.0121 131.5238 13.0575 -0.3846784 0.09054594 0.9185989 192 192 192 255 0.180534 0.542350
138.9881 131.5238 13.0575 0.3548541 0.1085209 0.928602 192 192 192 255 0.062827 0.542350
162.4508 101.5614 13.0575 0.09575979 0.3348739 0.9373844 192 192 192 255 0.075266 0.526465
337.5492 101.5614 13.0575 -0.15663 0.3319289 0.9302098 192 192 192 255 0.168095 0.526465
361.0121 500 13.0575 -0.7004134 0.003799673 0.7137274 192 192 192 255 0.180534 0.737699
138.9881 500 13.0575 0.2944189 0.628965 0.7195281 192 192 192 255 0.064748 0.996987
463.5927 14.22009 18.76424 0.002915796 -0.002760828 0.999992 192 192 192 255 0.227784 0.751563
36.40733 14.22009 18.76424 -0.00578095 -0.002736853 0.9999796 192 192 192 255 0.013225 0.751563
463.5927 500.2594 18.76424 0.0001271797 0.0001274508 1 192 192 192 255 0.227784 0.997117
36.40733 500.2594 18.76424 -5.867341e-05 5.879848e-05 1 192 192 192 255 0.013225 0.997117
133.1834 351.8083 18.76424 0.08134535 -0.027472 0.9963073 192 192 192 255 0.059750 0.659134
133.1834 196.3064 18.76424 0.2095413 0.03821028 0.9770529 192 192 192 255 0.061832 0.844454
121.5172 260.0369 18.76424 0.2603243 0.01906239 0.965333 192 192 192 255 0.055973 0.876463
123.8108 324.3017 18.76424 0.02623721 -0.003335332 0.9996502 192 192 192 255 0.057125 0.908741
138.9881 310.2259 13.0575 0.2630834 -8.468482e-10 0.9647731 192 192 192 255 0.062827 0.637089
366.8165 162.1574 18.76424 -0.1268593 0.05189164 0.9905625 192 192 192 255 0.179177 0.827302
366.8165 206.2214 18.76424 -0.09653858 -0.01736889 0.9951777 192 192 192 255 0.179177 0.849434
372.4077 175.3975 18.76424 -0.2533952 0 0.9673628 192 192 192 255 0.181985 0.833952
364.4995 183.1007 15.484 -0.387664 3.281603e-05 0.9218007 192 192 192 255 0.178013 0.837821
366.8165 291.5237 18.76424 -0.1448098 0.02534651 0.9891348 192 192 192 255 0.183612 0.627174
366.8165 403.369 18.76424 -0.04433614 -0.002140355 0.9990144 192 192 192 255 0.179177 0.948453
376.7523 347.8421 18.76424 -0.0479422 0 0.9988501 192 192 192 255 0.188879 0.657032
364.3851 335.8209 15.0873 -0.2858798 -2.358478e-06 0.9582655 192 192 192 255 0.182323 0.650659
361.0121 338.0419 13.0575 -0.3234712 -0.001046647 0.9462374 192 192 192 255 0.180534 0.651836
36.40719 500.0813 0 -0.5538818 0.8325953 -1.67859e-11 192 192 192 255 0.013225 0.997028
463.5926 7.845421 0 0.8135825 -0.5777569 0.06542601 192 192 192 255 0.227784 0.748361
36.40719 7.845421 0 -0.4669576 -0.8842797 0 192 192 192 255 0.013225 0.748361
463.5926 500.0813 0 0.3156211 0.9488853 0 192 192 192 255 0.227784 0.997028
366.8165 126.1485 -18.76424 -0.005666424 0.00164554 -0.9999826 192 192 192 255 0.183612 0.539500
133.1834 126.1485 -18.76424 0.3033552 0.08615464 -0.9489747 192 192 192 255 0.059750 0.539500
133.1834 500 -18.76424 3.83445e-05 0.0001087198 -1 192 192 192 255 0.061832 0.996987
366.8165 500 -18.76424 -0.05554611 0.0001007249 -0.9984561 192 192 192 255 0.179177 0.996987
344.6532 95.16019 -18.76424 -8.083477e-05 0.0001736613 -1 192 192 192 255 0.171862 0.523071
156.1256 93.55051 -18.76424 8.122659e-05 0.0001185854 -1 192 192 192 255 0.071913 0.522218
361.0121 131.5238 -13.0575 -0.3846784 0.09054594 -0.9185989 192 192 192 255 0.180534 0.542350
138.9881 131.5238 -13.0575 0.3469652 0.0985401 -0.932687 192 192 192 255 0.062827 0.542350
162.4508 101.5614 -13.0575 0.09142198 0.3329609 -0.9384983 192 192 192 255 0.075266 0.526465
337.5492 101.5614 -13.0575 -0.1566424 0.3365225 -0.9285557 192 192 192 255 0.168095 0.526465
361.0121 500 -13.0575 -0.7004134 0.003799673 -0.7137274 192 192 192 255 0.180534 0.737699
138.9881 500 -13.0575 0.2944189 0.628965 -0.7195281 192 192 192 255 0.064748 0.996987
463.5927 14.22009 -18.76424 0.00291303 -0.005516418 -0.9999806 192 192 192 255 0.227784 0.751563
36.40733 14.22009 -18.76424 -0.005780949 -0.002736852 -0.9999796 192 192 192 255 0.013225 0.751563
463.5927 500.2594 -18.76424 0.0001271797 0.0001274508 -1 192 192 192 255 0.227784 0.997117
36.40733 500.2594 -18.76424 -5.867341e-05 5.879848e-05 -1 192 192 192 255 0.013225 0.997117
133.1834 351.8083 -18.76424 0.08134535 -0.027472 -0.9963073 192 192 192 255 0.059750 0.659134
133.1834 196.3064 -18.76424 0.2095413 0.03821028 -0.9770529 192 192 192 255 0.061832 0.844454
121.5172 260.0369 -18.76424 0.2603243 0.01906239 -0.965333 192 192 192 255 0.055973 0.876463
123.8108 324.3017 -18.76424 0.02623721 -0.003335332 -0.9996502 192 192 192 255 0.057125 0.908741
138.9881 310.2259 -13.0575 0.2630834 -8.468482e-10 -0.9647731 192 192 192 255 0.062827 0.637089
366.8165 162.1574 -18.76424 -0.1268593 0.05189164 -0.9905625 192 192 192 255 0.179177 0.827302
366.8165 206.2214 -18.76424 -0.09653858 -0.01736889 -0.9951777 192 192 192 255 0.179177 0.849434
372.4077 175.3975 -18.76424 -0.2533952 0 -0.9673628 192 192 192 255 0.181985 0.833952
364.4995 183.1007 -15.484 -0.387664 3.281603e-05 -0.9218007 192 192 192 255 0.178013 0.837821
366.8165 291.5237 -18.76424 -0.1448098 0.02534651 -0.9891348 192 192 192 255 0.183612 0.627174
366.8165 403.369 -18.76424 -0.04433614 -0.002140355 -0.9990144 192 192 192 255 0.179177 0.948453
376.7523 347.8421 -18.76424 -0.0479422 0 -0.9988501 192 192 192 255 0.188879 0.657032
364.3851 335.8209 -15.0873 -0.2858798 -2.358478e-06 -0.9582655 192 192 192 255 0.182323 0.650659
361.0121 338.0419 -13.0575 -0.3234712 -0.001046647 -0.9462374 192 192 192 255 0.180534 0.651836
356.7963 14.22009 18.76424 -0.1701503 -0.6595994 0.7321049 192 192 192 255 0.174144 0.751563
356.7962 7.845421 0 -0.3761337 -0.9264358 -0.01550324 192 192 192 255 0.174144 0.748361
356.7963 14.22009 -18.76424 -0.4120974 -0.7237619 -0.553484 192 192 192 255 0.174144 0.751563
143.2036 14.22009 18.76424 0.4120968 -0.7237622 0.553484 192 192 192 255 0.066865 0.751563
143.2037 7.845421 0 0.3761332 -0.9264359 0.01550326 192 192 192 255 0.066865 0.748361
143.2036 14.22009 -18.76424 0.1701501 -0.6595995 -0.7321049 192 192 192 255 0.066865 0.751563
196.6018 14.22009 18.76424 -0.1701507 -0.6595997 0.7321045 192 192 192 255 0.093685 0.751563
196.6018 7.845421 0 -0.3761343 -0.9264355 -0.01550386 192 192 192 255 0.093685 0.748361
196.6018 14.22009 -18.76424 -0.4120984 -0.7237625 -0.5534825 192 192 192 255 0.093685 0.751563
303.3982 14.22009 18.76424 0.4120984 -0.7237627 0.5534821 192 192 192 255 0.147324 0.751563
303.3982 7.845421 0 0.3761341 -0.9264355 0.01550397 192 192 192 255 0.147324 0.748361
303.3982 14.22009 -18.76424 0.1701506 -0.6595999 -0.7321044 192 192 192 255 0.147324 0.751563
276.6991 14.22009 18.76424 -0.1701501 -0.6595998 0.7321046 192 192 192 255 0.133914 0.751563
276.699 7.845421 0 -0.376133 -0.9264359 -0.01550356 192 192 192 255 0.133914 0.748361
276.6991 14.22009 -18.76424 -0.4120969 -0.7237628 -0.5534832 192 192 192 255 0.133914 0.751563
223.3009 14.22009 18.76424 0.4120989 -0.7237634 0.5534809 192 192 192 255 0.107095 0.751563
223.3008 7.845421 0 0.3761343 -0.9264355 0.01550445 192 192 192 255 0.107095 0.748361
223.3009 14.22009 -18.76424 0.1701508 -0.6596002 -0.7321041 192 192 192 255 0.107095 0.751563
116.5045 14.22009 18.76424 -0.1701504 -0.6596 0.7321042 192 192 192 255 0.053455 0.751563
116.5046 7.845421 0 -0.3761336 -0.9264358 -0.015504 192 192 192 255 0.053455 0.748361
116.5045 14.22009 -18.76424 -0.4120978 -0.7237632 -0.5534819 192 192 192 255 0.053455 0.751563
63.10642 14.22009 18.76424 0.001967104 -0.007625621 0.999969 192 192 192 255 0.026635 0.751563
63.10632 7.845421 0 0.4947975 -0.8690083 0 192 192 192 255 0.026635 0.748361
63.10642 14.22009 -18.76424 0.001967104 -0.00762562 -0.999969 192 192 192 255 0.026635 0.751563
383.4954 14.22009 18.76424 0.4120978 -0.7237632 0.5534819 192 192 192 255 0.187554 0.751563
383.4953 7.845421 0 0.3761335 -0.9264358 0.01550401 192 192 192 255 0.187554 0.748361
383.4954 14.22009 -18.76424 0.1701504 -0.6596 -0.7321042 192 192 192 255 0.187554 0.751563
436.8936 14.22009 18.76424 -0.001967106 -0.007625615 0.999969 192 192 192 255 0.214374 0.751563
436.8935 7.845421 0 -0.3761342 -0.9264355 -0.01550367 192 192 192 255 0.214374 0.748361
436.8936 14.22009 -18.76424 -0.003935168 -0.00691128 -0.9999684 192 192 192 255 0.214374 0.751563
263.3481 26.94094 18.76424 -0.0003673348 -0.000904766 0.9999995 192 192 192 255 0.127209 0.757952
236.6518 26.94094 18.76424 0.0001893334 -0.0004663362 0.9999999 192 192 192 255 0.113800 0.757952
236.6517 20.56626 0 0.374126 -0.9214884 0.10435 192 192 192 255 0.113800 0.754750
263.3481 20.56628 0 -0.3741243 -0.9214889 -0.104351 192 192 192 255 0.127209 0.754751
263.3481 26.94094 -18.76424 -0.0001836957 -0.0004524527 -0.9999999 192 192 192 255 0.127209 0.757952
236.6518 26.94094 -18.76424 0.0003762037 -0.0009266058 -0.9999995 192 192 192 255 0.113800 0.757952
423.5427 26.94094 18.76424 -0.000619386 -0.001525574 0.9999987 192 192 192 255 0.207668 0.757952
396.8463 26.94094 18.76424 0.0001225326 -0.0003018042 0.9999999 192 192 192 255 0.194260 0.757952
396.8463 20.56628 0 0.3741247 -0.9214889 0.1043505 192 192 192 255 0.194260 0.754751
423.5427 20.56626 0 -0.3741259 -0.9214883 -0.1043509 192 192 192 255 0.207668 0.754750
423.5427 26.94094 -18.76424 -0.0003097736 -0.0007629858 -0.9999997 192 192 192 255 0.207668 0.757952
396.8463 26.94094 -18.76424 0.0002450849 -0.000603657 -0.9999998 192 192 192 255 0.194260 0.757952
103.1537 26.94094 18.76424 -0.0002526101 -0.0006221914 0.9999998 192 192 192 255 0.046749 0.757952
76.45733 26.94094 18.76424 0.000635424 -0.00111599 0.9999992 192 192 192 255 0.033341 0.757952
76.45729 20.5663 0 0.3000776 -0.9511899 0.07204945 192 192 192 255 0.033341 0.754751
103.1536 20.5663 0 -0.374125 -0.9214888 -0.1043502 192 192 192 255 0.046749 0.754751
103.1537 26.94094 -18.76424 -0.0001254925 -0.0003090943 -0.9999999 192 192 192 255 0.046749 0.757952
76.45733 26.94094 -18.76424 0.0006319405 -0.001556502 -0.9999986 192 192 192 255 0.033341 0.757952
343.4454 26.94094 18.76424 -0.0002450851 -0.0006036566 0.9999998 192 192 192 255 0.167439 0.757952
316.7491 26.94094 18.76424 0.0001225328 -0.0003018038 0.9999999 192 192 192 255 0.154030 0.757952
343.4454 20.56624 0 -0.3741252 -0.9214885 -0.1043516 192 192 192 255 0.167439 0.754750
316.749 20.56625 0 0.3741257 -0.9214884 0.1043508 192 192 192 255 0.154030 0.754750
316.7491 26.94094 -18.76424 0.0002450853 -0.0006036561 -0.9999998 192 192 192 255 0.154030 0.757952
343.4454 26.94094 -18.76424 -0.0001225327 -0.000301804 -0.9999999 192 192 192 255 0.167439 0.757952
183.2509 26.94094 18.76424 -0.0002526103 -0.0006221903 0.9999998 192 192 192 255 0.086979 0.757952
156.5546 26.94094 18.76424 0.0001262944 -0.0003110696 0.9999999 192 192 192 255 0.073570 0.757952
183.2509 20.56625 0 -0.3741259 -0.9214883 -0.1043509 192 192 192 255 0.086979 0.754750
156.5546 20.56625 0 0.3741247 -0.9214888 0.1043515 192 192 192 255 0.073571 0.754750
156.5546 26.94094 -18.76424 0.0002510051 -0.0006182387 -0.9999998 192 192 192 255 0.073570 0.757952
183.2509 26.94094 -18.76424 -0.0001254926 -0.0003090937 -0.9999999 192 192 192 255 0.086979 0.757952
138.9881 500 13.0575 0.2944189 0.628965 0.7195281 192 192 192 255 0.062827 0.737699
133.1834 126.1485 18.76424 0.3102575 0.09488248 0.9459057 192 192 192 255 0.059750 0.539500
158.5589 93.12726 18.76424 8.574629e-05 0.0001241707 1 192 192 192 255 0.073203 0.521994
344.6532 95.16019 18.76424 -8.096667e-05 0.0001715839 1 192 192 192 255 0.171862 0.523071
366.8165 126.1485 18.76424 -0.005666424 0.00164554 0.9999826 192 192 192 255 0.183612 0.539500
133.1834 500 18.76424 3.83445e-05 0.0001087198 1 192 192 192 255 0.059750 0.737699
361.0121 500 13.0575 -0.7004134 0.003799673 0.7137274 192 192 192 255 0.176262 0.996987
133.1834 351.8083 18.76424 0.08134535 -0.027472 0.9963073 192 192 192 255 0.061832 0.922556
123.8108 324.3017 18.76424 0.02623721 -0.003335332 0.9996502 192 192 192 255 0.054781 0.644552
133.1834 196.3064 18.76424 0.2095413 0.03821028 0.9770529 192 192 192 255 0.059750 0.576694
121.5172 260.0369 18.76424 0.2603243 0.01906239 0.965333 192 192 192 255 0.053565 0.610481
366.8165 403.369 18.76424 -0.04433614 -0.002140355 0.9990144 192 192 192 255 0.183612 0.686470
376.7523 347.8421 18.76424 -0.0479422 0 0.9988501 192 192 192 255 0.184167 0.920564
366.8165 291.5237 18.76424 -0.1448098 0.02534651 0.9891348 192 192 192 255 0.179177 0.892278
366.8165 162.1574 18.76424 -0.1268593 0.05189164 0.9905625 192 192 192 255 0.183612 0.558590
364.4995 183.1007 15.484 -0.387664 3.281603e-05 0.9218007 192 192 192 255 0.182383 0.569693
366.8165 206.2214 18.76424 -0.09653858 -0.01736889 0.9951777 192 192 192 255 0.183612 0.581951
366.8165 500 18.76424 -0.05554611 0.0001007249 0.9984561 192 192 192 255 0.183612 0.737699
138.9881 500 -13.0575 0.2944189 0.628965 -0.7195281 192 192 192 255 0.062827 0.737699
133.1834 500 -18.76424 3.83445e-05 0.0001087198 -1 192 192 192 255 0.059750 0.737699
361.0121 500 -13.0575 -0.7004134 0.003799673 -0.7137274 192 192 192 255 0.176262 0.996987
133.1834 126.1485 -18.76424 0.3033552 0.08615464 -0.9489747 192 192 192 255 0.061832 0.809216
133.1834 351.8083 -18.76424 0.08134535 -0.027472 -0.9963073 192 192 192 255 0.061832 0.922556
123.8108 324.3017 -18.76424 0.02623721 -0.003335332 -0.9996502 192 192 192 255 0.054781 0.644552
133.1834 196.3064 -18.76424 0.2095413 0.03821028 -0.9770529 192 192 192 255 0.059750 0.576694
121.5172 260.0369 -18.76424 0.2603243 0.01906239 -0.965333 192 192 192 255 0.053565 0.610481
366.8165 403.369 -18.76424 -0.04433614 -0.002140355 -0.9990144 192 192 192 255 0.183612 0.686470
366.8165 291.5237 -18.76424 -0.1448098 0.02534651 -0.9891348 192 192 192 255 0.179177 0.892278
376.7523 347.8421 -18.76424 -0.0479422 0 -0.9988501 192 192 192 255 0.184167 0.920564
364.4995 183.1007 -15.484 -0.387664 3.281603e-05 -0.9218007 192 192 192 255 0.182383 0.569693
366.8165 162.1574 -18.76424 -0.1268593 0.05189164 -0.9905625 192 192 192 255 0.183612 0.558590
366.8165 206.2214 -18.76424 -0.09653858 -0.01736889 -0.9951777 192 192 192 255 0.183612 0.581951
366.8165 126.1485 -18.76424 -0.005666424 0.00164554 -0.9999826 192 192 192 255 0.179177 0.809216
156.1256 93.55051 -18.76424 8.122659e-05 0.0001185854 -1 192 192 192 255 0.073355 0.792843
366.8165 500 -18.76424 -0.05554611 0.0001007249 -0.9984561 192 192 192 255 0.183612 0.737699
344.6532 95.16019 -18.76424 -8.083477e-05 0.0001736613 -1 192 192 192 255 0.168045 0.793652
3 2 11 30 
3 2 30 15 
3 6 7 8 
3 6 8 9 
3 29 10 124 
3 29 124 20 
3 5 1 13 
3 5 13 107 
3 12 0 4 
3 12 4 100 
3 14 3 26 
3 7 125 126 
3 7 126 8 
3 127 128 6 
3 127 6 9 
3 124 129 16 
3 124 16 20 
3 14 33 130 
3 14 130 3 
3 19 15 13 
3 19 13 18 
3 17 18 13 
3 17 13 1 
3 131 2 19 
3 14 12 31 
3 14 31 33 
3 132 20 16 
3 133 20 134 
3 134 20 132 
3 21 23 24 
3 24 23 22 
3 135 28 27 
3 27 28 25 
3 22 136 137 
3 6 128 138 
3 6 138 139 
3 29 6 139 
3 29 139 28 
3 29 28 135 
3 29 135 10 
3 25 28 139 
3 25 139 140 
3 0 12 14 
3 0 14 23 
3 14 26 136 
3 14 136 22 
3 14 22 23 
3 23 21 0 
3 19 2 15 
3 107 13 85 
3 127 9 8 
3 127 8 126 
3 10 135 141 
3 133 125 7 
3 133 7 20 
3 29 20 7 
3 29 7 6 
3 33 30 11 
3 33 11 130 
3 30 32 13 
3 30 13 15 
3 91 92 31 
3 91 31 12 
3 36 49 30 
3 36 30 45 
3 40 43 42 
3 40 42 41 
3 63 54 142 
3 63 142 44 
3 48 60 37 
3 41 42 39 
3 41 39 35 
3 38 43 40 
3 38 40 34 
3 142 54 50 
3 142 50 143 
3 48 37 144 
3 48 144 33 
3 53 52 47 
3 53 47 49 
3 51 145 47 
3 51 47 52 
3 146 53 36 
3 48 33 31 
3 48 31 46 
3 147 50 54 
3 148 149 54 
3 149 147 54 
3 55 58 57 
3 58 56 57 
3 150 61 62 
3 61 59 62 
3 56 151 152 
3 40 153 154 
3 40 154 34 
3 63 62 153 
3 63 153 40 
3 63 44 150 
3 63 150 62 
3 59 155 153 
3 59 153 62 
3 156 57 48 
3 156 48 46 
3 48 152 60 
3 48 57 56 
3 48 56 152 
3 57 156 55 
3 53 49 36 
3 157 111 47 
3 157 47 145 
3 38 39 42 
3 38 42 43 
3 44 158 150 
3 148 54 41 
3 148 41 35 
3 63 40 41 
3 63 41 54 
3 33 144 45 
3 33 45 30 
3 30 49 47 
3 30 47 32 
3 92 93 46 
3 92 46 31 
3 82 83 68 
3 82 68 67 
3 83 84 69 
3 83 69 68 
3 76 77 74 
3 76 74 73 
3 77 78 75 
3 77 75 74 
3 70 71 80 
3 70 80 79 
3 71 72 81 
3 71 81 80 
3 32 86 85 
3 32 85 13 
3 32 47 87 
3 32 87 86 
3 64 65 89 
3 64 89 88 
3 65 66 90 
3 65 90 89 
3 94 95 96 
3 94 96 97 
3 97 96 99 
3 97 99 98 
3 100 101 102 
3 100 102 103 
3 103 102 105 
3 103 105 104 
3 106 107 108 
3 106 108 109 
3 109 108 111 
3 109 111 110 
3 112 113 115 
3 112 115 114 
3 114 115 116 
3 114 116 117 
3 118 119 121 
3 118 121 120 
3 120 121 122 
3 120 122 123 
3 79 80 96 
3 79 96 95 
3 80 81 99 
3 80 99 96 
3 112 114 65 
3 112 65 64 
3 114 117 66 
3 114 66 65 
3 118 120 71 
3 118 71 70 
3 120 123 72 
3 120 72 71 
3 88 89 102 
3 88 102 101 
3 89 90 105 
3 89 105 102 
3 86 108 107 
3 86 107 85 
3 86 87 111 
3 86 111 108 
3 73 74 115 
3 73 115 113 
3 74 75 116 
3 74 116 115 
3 94 97 77 
3 94 77 76 
3 97 98 78 
3 97 78 77 
3 67 68 121 
3 67 121 119 
3 68 69 122 
3 68 122 121 
3 106 109 83 
3 106 83 82 
3 109 110 84 
3 109 84 83 
3 100 103 92 
3 100 92 91 
3 103 104 93 
3 103 93 92 
3 106 5 107 
3 119 106 82 
3 119 82 67 
3 95 118 70 
3 95 70 79 
3 113 94 76 
3 113 76 73 
3 101 112 64 
3 101 64 88 
3 12 100 91 
3 157 122 110 
3 47 111 87 
3 46 93 104 
3 46 104 159 
3 46 159 156 
3 117 105 90 
3 117 90 66 
3 98 116 75 
3 98 75 78 
3 123 99 81 
3 123 81 72 
3 110 122 69 
3 110 69 84 
3 157 110 111 
3 157 99 123 
3 157 123 122 
3 159 104 105 
3 159 117 116 
3 159 105 117 
3 159 98 99 
3 159 99 157 
3 159 116 98 
3 118 5 119 
3 119 5 106 
3 101 4 112 
3 95 5 118 
3 100 4 101 
3 113 4 94 
3 112 4 113 
3 94 4 5 
3 94 5 95 
