ply
format ascii 1.0
comment TextureFile Dungeons_2_Texture_01_A.png
element vertex 246
property float x
property float y
property float z
property float nx
property float ny
property float nz
property uchar red
property uchar green
property uchar blue
property uchar alpha
property float texture_u
property float texture_v
element face 248
property list uchar int vertex_indices
end_header
125.5665 434.7556 -30.54131 0.4457517 -0.006530962 -0.8951328 192 192 192 255 0.147701 0.872014
87.10324 500 -30.54131 0.1478198 0.4972246 -0.8549368 192 192 192 255 0.130857 0.843443
-7e-06 500 -30.54131 -5.848473e-05 3.129545e-05 -1 192 192 192 255 0.092715 0.843443
105.2671 433.3109 -39.00127 0.0002909052 -4.538811e-06 -1 192 192 192 255 0.138811 0.872646
79.41821 488.8457 -39.00078 4.097732e-05 5.417594e-05 -1 192 192 192 255 0.127492 0.848327
-3.1e-05 488.8457 -39.00078 -0.0002327457 0.000140643 -1 192 192 192 255 0.092715 0.848327
87.10324 369.5113 -30.54131 0.0003824915 -0.6040473 -0.7969484 192 192 192 255 0.130857 0.900584
-3.1e-05 369.5113 -30.54131 -0.00177485 -0.6042762 -0.796773 192 192 192 255 0.122060 0.843443
79.41821 380.6656 -39.00078 0.0001729341 -0.02948317 -0.9995653 192 192 192 255 0.127492 0.895700
-3.1e-05 380.6656 -39.00078 -8.8439e-05 -0.01701571 -0.9998553 192 192 192 255 0.092715 0.895700
125.5665 434.7556 30.54131 0.429696 -0.0254228 0.9026157 192 192 192 255 0.147701 0.872013
87.10324 500 30.54131 0.1362257 0.4861656 0.8631834 192 192 192 255 0.130857 0.900584
-7e-06 500 30.54131 -3.856845e-05 5.022147e-05 1 192 192 192 255 0.092715 0.900584
103.1968 428.5693 39.00127 0.0003050008 -1.925934e-05 1 192 192 192 255 0.137905 0.869304
79.41821 488.8457 39.00078 0.0002848469 0.0003860008 0.9999999 192 192 192 255 0.127492 0.895700
-3.1e-05 488.8457 39.00078 -0.46658 0.2819438 0.8383382 192 192 192 255 0.092715 0.895700
87.10324 369.5113 30.54131 0.1539917 -0.5032637 0.8503013 192 192 192 255 0.130857 0.843443
-3.1e-05 369.5113 30.54131 -0.8944277 -0.2702411 0.3563271 192 192 192 255 0.118355 0.843443
79.41821 380.6656 39.00078 0.0003246037 -0.0004243394 0.9999999 192 192 192 255 0.127492 0.848327
-3.1e-05 380.6656 39.00078 -0.3299218 -0.3987285 0.8556677 192 192 192 255 0.092715 0.848327
374.4335 434.7556 30.54131 -0.4429487 0.008819988 0.8965036 192 192 192 255 0.092715 0.872013
412.8968 500 30.54131 -0.1522915 0.5015891 0.851596 192 192 192 255 0.109558 0.900584
500 500 30.54131 3.140881e-05 1.679615e-05 1 192 192 192 255 0.147701 0.900584
395.0461 436.7372 39.00127 -0.000292674 6.208228e-06 1 192 192 192 255 0.101741 0.872881
420.5818 488.8457 39.00078 -0.0002988768 0.0003918789 0.9999999 192 192 192 255 0.112923 0.895700
500 488.8457 39.00078 0.4665797 0.2819435 0.8383384 192 192 192 255 0.147701 0.895700
412.8968 369.5113 30.54131 -0.1461616 -0.4956205 0.8561525 192 192 192 255 0.109558 0.843443
500 369.5113 30.54131 0.8944272 -0.270241 0.3563282 192 192 192 255 0.122060 0.843443
420.5818 380.6656 39.00078 -0.0002859876 -0.0003793297 0.9999999 192 192 192 255 0.112923 0.848327
500 380.6656 39.00078 0.3299217 -0.3987283 0.8556678 192 192 192 255 0.147701 0.848327
374.4335 434.7556 -30.54131 -0.438998 0.01379068 -0.8983822 192 192 192 255 0.092714 0.872013
412.8968 500 -30.54131 -0.1528072 0.5020961 -0.8512048 192 192 192 255 0.109558 0.843443
500 500 -30.54131 2.092736e-05 2.725032e-05 -1 192 192 192 255 0.147701 0.843443
395.5261 437.9252 -39.00127 -0.0002956722 9.90004e-06 -1 192 192 192 255 0.101951 0.870626
420.5818 488.8457 -39.00078 -0.0003056879 0.0004004421 -0.9999999 192 192 192 255 0.112923 0.848327
500 488.8457 -39.00078 0.4665797 0.2819435 -0.8383384 192 192 192 255 0.147701 0.848327
412.8968 369.5113 -30.54131 -0.1432067 -0.4927809 -0.8582883 192 192 192 255 0.109558 0.900585
500 369.5113 -30.54131 0.8944272 -0.270241 -0.3563282 192 192 192 255 0.118355 0.843443
420.5818 380.6656 -39.00078 -0.00028516 -0.000380509 -0.9999999 192 192 192 255 0.112923 0.895700
500 380.6656 -39.00078 0.3299217 -0.3987283 -0.8556678 192 192 192 255 0.147701 0.895700
413.6171 250 -30.54131 -0.00531568 -6.004615e-06 -0.9999859 192 192 192 255 0.207418 0.872013
413.6171 250 30.54131 -0.005057376 -1.202983e-05 0.9999872 192 192 192 255 0.207418 0.872013
86.13301 250 -30.54131 7.663655e-05 -3.094415e-05 -1 192 192 192 255 0.032997 0.872013
86.13301 250 30.54131 8.17264e-05 -1.547155e-05 1 192 192 192 255 0.032997 0.872013
337.0872 363.7631 -30.54131 -2.983016e-05 -0.006693264 -0.9999776 192 192 192 255 0.171943 0.822196
337.0872 363.7631 30.54131 -1.361882e-05 -0.02236554 0.9997499 192 192 192 255 0.171943 0.921831
159.9015 363.7631 -30.54131 1.412401e-05 -0.0203668 -0.9997926 192 192 192 255 0.068472 0.822196
159.9015 363.7631 30.54131 3.063018e-05 -0.006509065 0.9999788 192 192 192 255 0.068472 0.921831
355.6627 500 30.54131 -4.014466e-05 0.0003408278 1 192 192 192 255 0.166478 0.981490
144.3372 500 30.54131 8.072074e-05 0.0003636192 0.9999999 192 192 192 255 0.073937 0.981490
144.3372 500 -30.54131 0.05768731 0.03409114 -0.9977525 192 192 192 255 0.073937 0.762537
355.6627 500 -30.54131 -8.072068e-05 0.000363619 -0.9999999 192 192 192 255 0.133582 0.825743
319.2217 434.7556 -30.54131 -1.086793e-05 3.073566e-05 -1 192 192 192 255 0.150520 0.791108
180.7782 434.7556 -30.54131 0.004047047 0.002273068 -0.9999893 192 192 192 255 0.089895 0.791108
319.6185 434.7556 30.54131 -2.30193e-05 0.01459409 0.9998935 192 192 192 255 0.150694 0.952919
180.7782 434.7556 30.54131 1.323597e-05 0.006383516 0.9999797 192 192 192 255 0.089895 0.952919
332.7939 500 20.87391 -0.1462516 0.6614435 0.735597 192 192 192 255 0.156464 0.730485
167.206 500 20.87391 0.1013288 0.8562715 0.5064895 192 192 192 255 0.083952 0.730485
192.5157 454.7556 20.87391 0.0002534498 0.4348137 0.9005204 192 192 192 255 0.095035 0.712694
307.4842 454.7556 20.87391 -0.0001358379 0.4349889 0.9004359 192 192 192 255 0.145380 0.712694
332.7939 500 -20.87391 -0.1013288 0.8562715 -0.5064895 192 192 192 255 0.129349 0.835758
167.206 500 -20.87391 0.3796929 0.2145433 -0.8998914 192 192 192 255 0.129349 0.908270
307.4842 454.7556 -20.87391 -0.1571252 0.1777527 -0.9714503 192 192 192 255 0.145380 0.551658
192.5157 454.7556 -20.87391 0.3792893 0.2126503 -0.9005107 192 192 192 255 0.095035 0.551658
1.7e-05 0 30.54131 -0.6666667 -0.3333333 0.6666667 192 192 192 255 0.133582 0.891357
1.7e-05 0 -30.54131 -0.4082483 -0.8164966 -0.4082483 192 192 192 255 0.106833 0.891357
86.13301 0 -30.54131 0.3516774 -0.6453674 -0.6781033 192 192 192 255 0.106833 0.869091
86.13301 0 30.54131 0.2344778 -0.860586 0.4521194 192 192 192 255 0.133582 0.869091
413.6171 0 -30.54131 -0.1584656 -0.0005396662 -0.9873644 192 192 192 255 0.106833 0.874935
413.6171 0 30.54131 -0.1584656 -0.000245794 0.9873645 192 192 192 255 0.133582 0.874935
500 0 -30.54131 3.156147e-05 -1.578074e-05 -1 192 192 192 255 0.106833 0.852670
500 0 30.54131 1.575261e-05 -3.150523e-05 1 192 192 192 255 0.133582 0.852670
97.15034 245.7165 -14.90922 0.4357224 -0.08248621 -0.8962935 192 192 192 255 0.038865 0.873890
97.15034 245.7165 14.90921 0.4076994 -0.1646203 0.8981544 192 192 192 255 0.038865 0.870138
165.0818 350.3631 -14.90922 -0.006591862 -0.7822564 -0.6229218 192 192 192 255 0.071497 0.828064
165.0817 350.3631 14.90921 -0.00953425 -0.8041306 0.5943763 192 192 192 255 0.071497 0.915963
331.9069 350.3631 14.90921 0.00547374 -0.7771268 0.6293203 192 192 192 255 0.168918 0.915963
402.5997 245.7165 14.90921 -0.8503262 0.005001476 0.5262321 192 192 192 255 0.201550 0.870138
331.9069 350.3631 -14.90922 0.01090535 -0.8099346 -0.5864189 192 192 192 255 0.168918 0.828064
402.5997 245.7164 -14.90922 -0.8170926 -0.0001728123 -0.5765065 192 192 192 255 0.201550 0.873890
97.15034 0 14.90919 0.01493397 -0.9996952 0.01966049 192 192 192 255 0.038865 0.762537
97.15034 0 -14.90919 0.007605898 -0.9996837 -0.02397084 192 192 192 255 0.114766 0.863223
402.5997 0 -14.90919 -0.8320913 -0.01441419 -0.5544514 192 192 192 255 0.201550 0.981490
402.5997 0 14.90919 -0.8290453 -0.01930684 0.5588481 192 192 192 255 0.125650 0.880804
109.4416 238.0126 -14.90921 0.399245 -0.07812392 -0.9135098 192 192 192 255 0.128371 0.661622
109.4416 238.0126 14.90922 0.4474012 -0.1342728 0.8841963 192 192 192 255 0.049419 0.627462
170.1261 333.2765 -14.90922 0.2134629 -0.3890046 -0.8961635 192 192 192 255 0.128371 0.696325
170.1261 333.2765 14.90921 0.1236121 -0.3709675 0.9203821 192 192 192 255 0.076938 0.662165
326.7063 333.2765 14.9092 -0.1454371 -0.2712872 0.951447 192 192 192 255 0.163478 0.662165
390.3085 238.0126 14.90921 -0.4459076 -0.1394993 0.8841416 192 192 192 255 0.190997 0.627462
326.7063 333.2765 -14.90923 -0.2449895 -0.3111259 -0.9182488 192 192 192 255 0.112044 0.696325
390.3085 238.0125 -14.90922 -0.3098344 -0.09692966 -0.9458368 192 192 192 255 0.112044 0.661622
109.4416 0 14.90921 0.007128099 -0.9996567 0.02521471 192 192 192 255 0.049419 0.533866
109.4416 0 -14.90922 0.007129497 -0.9998507 -0.01573638 192 192 192 255 0.128371 0.568026
390.3085 0 -14.90922 -0.01425262 -0.9994034 -0.03145873 192 192 192 255 0.112044 0.568026
390.3085 0 14.90921 -0.007129497 -0.9998507 0.0157364 192 192 192 255 0.190997 0.533866
413.6171 225.9849 30.54131 -0.2477766 -0.007751954 0.9687862 192 192 192 255 0.207418 0.861497
413.6171 123.7278 30.54131 -0.191643 0.003232502 0.9814594 192 192 192 255 0.207418 0.816718
426.3858 155.7929 30.54131 -0.06985887 0 0.9975569 192 192 192 255 0.214219 0.830760
407.6281 164.0235 24.0725 -0.7268745 -3.670189e-08 0.6867704 192 192 192 255 0.204228 0.834364
178.1583 363.7631 30.54131 0.0123289 -0.212722 0.977035 192 192 192 255 0.079133 0.921831
267.2827 363.7631 30.54131 -0.00389443 -0.1674442 0.9858739 192 192 192 255 0.131180 0.921831
211.7181 377.4749 30.54131 1.434003e-07 -0.05363838 0.9985604 192 192 192 255 0.098731 0.927836
211.1382 356.0832 23.72107 0 -0.6520861 0.7581449 192 192 192 255 0.098393 0.918468
413.6171 56.3525 -30.54131 -0.1952211 0.00324335 -0.9807539 192 192 192 255 0.207418 0.956813
413.6171 224.668 -30.54131 -0.3183131 -0.001772465 -0.947984 192 192 192 255 0.207418 0.883107
407.6021 88.19556 -24.04444 -0.6265163 -9.083446e-10 -0.7794083 192 192 192 255 0.204215 0.942868
422.0466 87.20226 -30.54131 -0.07014079 -2.446825e-10 -0.9975371 192 192 192 255 0.211908 0.943304
318.0621 363.7631 -30.54131 -0.01204791 -0.2284841 -0.9734731 192 192 192 255 0.160833 0.822196
222.0061 363.7631 -30.54131 0.004985774 -0.212706 -0.9771035 192 192 192 255 0.104739 0.822196
285.8436 376.5602 -30.54128 0 -0.04192577 -0.9991208 192 192 192 255 0.136563 0.816592
279.9862 355.1676 -22.90796 0 -0.6541224 -0.7563888 192 192 192 255 0.138598 0.825960
149.6814 490.4318 -30.54131 0.07611501 0.02968822 -0.996657 192 192 192 255 0.076278 0.766727
172.8026 449.0352 -30.54131 0.07863604 0.05944235 -0.9951296 192 192 192 255 0.086402 0.784855
174.9197 470.0149 -24.70292 0.3062646 0.1711973 -0.9364259 192 192 192 255 0.087330 0.545658
148.7792 467.065 -30.54128 0.03687865 0.02059785 -0.9991075 192 192 192 255 0.075882 0.776959
270.1024 434.7557 30.54131 -0.007847266 0.1270581 0.9918642 192 192 192 255 0.129011 0.952919
199.7213 434.7556 30.54131 0.007709719 0.1638102 0.9864618 192 192 192 255 0.098190 0.952919
263.9274 446.4955 24.86663 -7.433832e-08 0.3795469 0.9251725 192 192 192 255 0.126307 0.709445
250.3444 425.3673 30.54128 -3.750001e-08 0.04512833 0.9989812 192 192 192 255 0.120359 0.948808
62.80717 380.6656 -39.00078 -0.01400735 -0.1228955 -0.9923208 192 192 192 255 0.120218 0.895700
22.74377 380.6656 -39.00078 0.01193543 -0.1121175 -0.9936233 192 192 192 255 0.102674 0.895700
39.4655 372.6798 -32.94434 0 -0.5016368 -0.8650783 192 192 192 255 0.109997 0.899197
47.27113 391.5661 -39.00078 1.637096e-09 -0.05206538 -0.9986437 192 192 192 255 0.113415 0.890926
174.3985 326.2631 6.33126 0.5045248 -0.7421371 0.4412338 192 192 192 255 0.117487 0.696325
116.9651 238.0126 6.331271 0.9315506 -0.2773036 0.2351942 192 192 192 255 0.117487 0.661622
116.9651 0 6.331267 0.02351437 -0.9996468 0.01238626 192 192 192 255 0.117487 0.568026
382.785 0 6.331267 -0.02351438 -0.9996468 0.01238629 192 192 192 255 0.122929 0.649546
382.785 238.0125 6.331267 -0.9284496 -0.2875935 0.2350984 192 192 192 255 0.122929 0.661622
322.5901 326.2631 6.331255 -0.3559144 -0.8350367 0.4195697 192 192 192 255 0.122929 0.696325
174.3985 326.2631 -6.331276 0.4628367 -0.850624 -0.2494416 192 192 192 255 0.122929 0.696325
116.9651 238.0126 -6.331266 0.8556259 -0.3048856 -0.4182692 192 192 192 255 0.122929 0.661622
116.9651 0 -6.331271 0.03259204 -0.9993935 -0.01226786 192 192 192 255 0.122929 0.568026
382.785 0 -6.331271 -0.02560513 -0.9996533 -0.00613554 192 192 192 255 0.117487 0.568026
382.785 238.0125 -6.331271 -0.8444202 -0.2627486 -0.4668165 192 192 192 255 0.117487 0.661622
322.5901 326.2631 -6.331284 -0.4534291 -0.8101826 -0.371492 192 192 192 255 0.117487 0.696325
-7e-06 500 -30.54131 -5.848473e-05 3.129545e-05 -1 192 192 192 255 0.122060 0.900584
-3.1e-05 488.8457 -39.00078 -0.0002327457 0.000140643 -1 192 192 192 255 0.118355 0.895700
-3.1e-05 380.6656 -39.00078 -8.8439e-05 -0.01701571 -0.9998553 192 192 192 255 0.118355 0.848327
-3.1e-05 369.5113 -30.54131 -0.00177485 -0.6042762 -0.796773 192 192 192 255 0.092715 0.900584
-3.1e-05 380.6656 39.00078 -0.3299218 -0.3987285 0.8556677 192 192 192 255 0.122060 0.848327
-3.1e-05 488.8457 39.00078 -0.46658 0.2819438 0.8383382 192 192 192 255 0.122060 0.895700
-7e-06 500 30.54131 -3.856845e-05 5.022147e-05 1 192 192 192 255 0.118355 0.900584
-3.1e-05 369.5113 30.54131 -0.8944277 -0.2702411 0.3563271 192 192 192 255 0.092715 0.843443
500 500 30.54131 3.140881e-05 1.679615e-05 1 192 192 192 255 0.122060 0.900584
500 488.8457 39.00078 0.4665797 0.2819435 0.8383384 192 192 192 255 0.118355 0.895700
500 380.6656 39.00078 0.3299217 -0.3987283 0.8556678 192 192 192 255 0.118355 0.848327
500 369.5113 30.54131 0.8944272 -0.270241 0.3563282 192 192 192 255 0.147701 0.843443
500 380.6656 -39.00078 0.3299217 -0.3987283 -0.8556678 192 192 192 255 0.122060 0.848327
500 488.8457 -39.00078 0.4665797 0.2819435 -0.8383384 192 192 192 255 0.122060 0.895700
500 500 -30.54131 2.092736e-05 2.725032e-05 -1 192 192 192 255 0.118355 0.900584
500 369.5113 -30.54131 0.8944272 -0.270241 -0.3563282 192 192 192 255 0.147701 0.900585
-7e-06 500 -30.54131 -5.848473e-05 3.129545e-05 -1 192 192 192 255 0.010731 0.762537
-7e-06 500 30.54131 -3.856845e-05 5.022147e-05 1 192 192 192 255 0.010731 0.981490
322.5901 326.2631 -6.331284 -0.4534291 -0.8101826 -0.371492 192 192 192 255 0.117487 0.593320
174.3985 326.2631 -6.331276 0.4628367 -0.850624 -0.2494416 192 192 192 255 0.117487 0.671032
170.1261 333.2765 -14.90922 0.2134629 -0.3890046 -0.8961635 192 192 192 255 0.112044 0.671032
326.7063 333.2765 -14.90923 -0.2449895 -0.3111259 -0.9182488 192 192 192 255 0.112044 0.593320
500 500 -30.54131 2.092736e-05 2.725032e-05 -1 192 192 192 255 0.229684 0.762537
500 500 30.54131 3.140881e-05 1.679615e-05 1 192 192 192 255 0.229684 0.981490
167.206 500 20.87391 0.1013288 0.8562715 0.5064895 192 192 192 255 0.111067 0.908270
332.7939 500 20.87391 -0.1462516 0.6614435 0.735597 192 192 192 255 0.111067 0.835758
167.206 500 -20.87391 0.3796929 0.2145433 -0.8998914 192 192 192 255 0.083952 0.533866
332.7939 500 -20.87391 -0.1013288 0.8562715 -0.5064895 192 192 192 255 0.156464 0.533866
144.3372 500 -30.54131 0.05768731 0.03409114 -0.9977525 192 192 192 255 0.133582 0.918284
-7e-06 500 -30.54131 -5.848473e-05 3.129545e-05 -1 192 192 192 255 0.133582 0.981490
-7e-06 500 30.54131 -3.856845e-05 5.022147e-05 1 192 192 192 255 0.106833 0.981490
144.3372 500 30.54131 8.072074e-05 0.0003636192 0.9999999 192 192 192 255 0.106833 0.918284
500 500 -30.54131 2.092736e-05 2.725032e-05 -1 192 192 192 255 0.133582 0.762537
355.6627 500 30.54131 -4.014466e-05 0.0003408278 1 192 192 192 255 0.106833 0.825743
500 500 30.54131 3.140881e-05 1.679615e-05 1 192 192 192 255 0.106833 0.762537
355.6627 500 -30.54131 -8.072068e-05 0.000363619 -0.9999999 192 192 192 255 0.166478 0.762537
144.3372 500 30.54131 8.072074e-05 0.0003636192 0.9999999 192 192 192 255 0.073937 0.730485
180.7782 434.7556 30.54131 1.323597e-05 0.006383516 0.9999797 192 192 192 255 0.089895 0.704829
319.6185 434.7556 30.54131 -2.30193e-05 0.01459409 0.9998935 192 192 192 255 0.150694 0.704829
270.1024 434.7557 30.54131 -0.007847266 0.1270581 0.9918642 192 192 192 255 0.129011 0.704829
199.7213 434.7556 30.54131 0.007709719 0.1638102 0.9864618 192 192 192 255 0.098190 0.704829
355.6627 500 30.54131 -4.014466e-05 0.0003408278 1 192 192 192 255 0.166478 0.730485
355.6627 500 -30.54131 -8.072068e-05 0.000363619 -0.9999999 192 192 192 255 0.166478 0.533866
319.2217 434.7556 -30.54131 -1.086793e-05 3.073566e-05 -1 192 192 192 255 0.150520 0.559523
180.7782 434.7556 -30.54131 0.004047047 0.002273068 -0.9999893 192 192 192 255 0.089895 0.559523
172.8026 449.0352 -30.54131 0.07863604 0.05944235 -0.9951296 192 192 192 255 0.086402 0.553908
149.6814 490.4318 -30.54131 0.07611501 0.02968822 -0.996657 192 192 192 255 0.076278 0.537629
144.3372 500 -30.54131 0.05768731 0.03409114 -0.9977525 192 192 192 255 0.073937 0.533866
-7e-06 500 -30.54131 -5.848473e-05 3.129545e-05 -1 192 192 192 255 0.106833 0.981490
1.7e-05 0 -30.54131 -0.4082483 -0.8164966 -0.4082483 192 192 192 255 0.106833 0.762537
1.7e-05 0 30.54131 -0.6666667 -0.3333333 0.6666667 192 192 192 255 0.133582 0.762537
-7e-06 500 30.54131 -3.856845e-05 5.022147e-05 1 192 192 192 255 0.133582 0.981490
86.13301 0 -30.54131 0.3516774 -0.6453674 -0.6781033 192 192 192 255 0.032997 0.981490
1.7e-05 0 -30.54131 -0.4082483 -0.8164966 -0.4082483 192 192 192 255 0.010731 0.981490
1.7e-05 0 30.54131 -0.6666667 -0.3333333 0.6666667 192 192 192 255 0.010731 0.762537
86.13301 0 30.54131 0.2344778 -0.860586 0.4521194 192 192 192 255 0.032997 0.762537
500 0 -30.54131 3.156147e-05 -1.578074e-05 -1 192 192 192 255 0.229684 0.981490
413.6171 0 -30.54131 -0.1584656 -0.0005396662 -0.9873644 192 192 192 255 0.207418 0.981490
500 0 -30.54131 3.156147e-05 -1.578074e-05 -1 192 192 192 255 0.133582 0.762537
500 500 -30.54131 2.092736e-05 2.725032e-05 -1 192 192 192 255 0.133582 0.981490
500 500 30.54131 3.140881e-05 1.679615e-05 1 192 192 192 255 0.106833 0.981490
500 0 30.54131 1.575261e-05 -3.150523e-05 1 192 192 192 255 0.106833 0.762537
500 0 30.54131 1.575261e-05 -3.150523e-05 1 192 192 192 255 0.229684 0.762537
413.6171 0 30.54131 -0.1584656 -0.000245794 0.9873645 192 192 192 255 0.207418 0.762537
97.15034 0 14.90919 0.01493397 -0.9996952 0.01966049 192 192 192 255 0.125650 0.863223
97.15034 0 -14.90919 0.007605898 -0.9996837 -0.02397084 192 192 192 255 0.038865 0.981490
402.5997 0 -14.90919 -0.8320913 -0.01441419 -0.5544514 192 192 192 255 0.114766 0.880804
402.5997 0 14.90919 -0.8290453 -0.01930684 0.5588481 192 192 192 255 0.201550 0.762537
97.15034 245.7165 -14.90922 0.4357224 -0.08248621 -0.8962935 192 192 192 255 0.038865 0.633860
165.0818 350.3631 -14.90922 -0.006591862 -0.7822564 -0.6229218 192 192 192 255 0.071497 0.592709
170.1261 333.2765 -14.90922 0.2134629 -0.3890046 -0.8961635 192 192 192 255 0.076938 0.602186
109.4416 238.0126 -14.90921 0.399245 -0.07812392 -0.9135098 192 192 192 255 0.049419 0.636890
165.0817 350.3631 14.90921 -0.00953425 -0.8041306 0.5943763 192 192 192 255 0.071497 0.671642
97.15034 245.7165 14.90921 0.4076994 -0.1646203 0.8981544 192 192 192 255 0.038865 0.630491
402.5997 245.7165 14.90921 -0.8503262 0.005001476 0.5262321 192 192 192 255 0.201550 0.630491
331.9069 350.3631 14.90921 0.00547374 -0.7771268 0.6293203 192 192 192 255 0.168918 0.671642
331.9069 350.3631 -14.90922 0.01090535 -0.8099346 -0.5864189 192 192 192 255 0.168918 0.592709
402.5997 245.7164 -14.90922 -0.8170926 -0.0001728123 -0.5765065 192 192 192 255 0.201550 0.633860
390.3085 238.0125 -14.90922 -0.3098344 -0.09692966 -0.9458368 192 192 192 255 0.190997 0.636890
326.7063 333.2765 -14.90923 -0.2449895 -0.3111259 -0.9182488 192 192 192 255 0.163478 0.602186
97.15034 0 14.90919 0.01493397 -0.9996952 0.01966049 192 192 192 255 0.038865 0.533866
97.15034 0 -14.90919 0.007605898 -0.9996837 -0.02397084 192 192 192 255 0.114766 0.624282
109.4416 0 -14.90922 0.007129497 -0.9998507 -0.01573638 192 192 192 255 0.112045 0.614805
116.9651 0 -6.331271 0.03259204 -0.9993935 -0.01226786 192 192 192 255 0.117487 0.614805
97.15034 0 -14.90919 0.007605898 -0.9996837 -0.02397084 192 192 192 255 0.038865 0.730485
109.4416 0 -14.90922 0.007129497 -0.9998507 -0.01573638 192 192 192 255 0.049419 0.730485
402.5997 0 -14.90919 -0.8320913 -0.01441419 -0.5544514 192 192 192 255 0.201550 0.730485
390.3085 0 -14.90922 -0.01425262 -0.9994034 -0.03145873 192 192 192 255 0.190997 0.730485
402.5997 0 -14.90919 -0.8320913 -0.01441419 -0.5544514 192 192 192 255 0.114766 0.640069
382.785 0 -6.331271 -0.02560513 -0.9996533 -0.00613554 192 192 192 255 0.117487 0.649546
390.3085 0 -14.90922 -0.01425262 -0.9994034 -0.03145873 192 192 192 255 0.112045 0.649546
402.5997 0 14.90919 -0.8290453 -0.01930684 0.5588481 192 192 192 255 0.201550 0.533866
174.9197 470.0149 -24.70292 0.3062646 0.1711973 -0.9364259 192 192 192 255 0.087330 0.775668
263.9274 446.4955 24.86663 -7.433832e-08 0.3795469 0.9251725 192 192 192 255 0.126307 0.958060
109.4416 238.0126 14.90922 0.4474012 -0.1342728 0.8841963 192 192 192 255 0.112045 0.661622
170.1261 333.2765 14.90921 0.1236121 -0.3709675 0.9203821 192 192 192 255 0.112045 0.696325
109.4416 0 14.90921 0.007128099 -0.9996567 0.02521471 192 192 192 255 0.112045 0.568026
97.15034 0 14.90919 0.01493397 -0.9996952 0.01966049 192 192 192 255 0.125650 0.624282
116.9651 0 6.331267 0.02351437 -0.9996468 0.01238626 192 192 192 255 0.122929 0.614805
109.4416 0 14.90921 0.007128099 -0.9996567 0.02521471 192 192 192 255 0.128371 0.614805
402.5997 0 14.90919 -0.8290453 -0.01930684 0.5588481 192 192 192 255 0.125650 0.640069
390.3085 0 14.90921 -0.007129497 -0.9998507 0.0157364 192 192 192 255 0.128371 0.649546
390.3085 238.0126 14.90921 -0.4459076 -0.1394993 0.8841416 192 192 192 255 0.128371 0.661622
382.785 0 6.331267 -0.02351438 -0.9996468 0.01238629 192 192 192 255 0.122929 0.568026
390.3085 0 14.90921 -0.007129497 -0.9998507 0.0157364 192 192 192 255 0.128371 0.568026
326.7063 333.2765 14.9092 -0.1454371 -0.2712872 0.951447 192 192 192 255 0.128371 0.696325
170.1261 333.2765 14.90921 0.1236121 -0.3709675 0.9203821 192 192 192 255 0.128371 0.671032
174.3985 326.2631 6.33126 0.5045248 -0.7421371 0.4412338 192 192 192 255 0.122929 0.671032
322.5901 326.2631 6.331255 -0.3559144 -0.8350367 0.4195697 192 192 192 255 0.122929 0.593320
326.7063 333.2765 14.9092 -0.1454371 -0.2712872 0.951447 192 192 192 255 0.128371 0.593320
3 4 3 8 
3 5 4 9 
3 9 4 121 
3 121 4 123 
3 8 120 4 
3 4 120 123 
3 0 3 4 
3 0 4 1 
3 1 4 5 
3 1 5 2 
3 7 136 137 
3 7 137 138 
3 0 6 8 
3 0 8 3 
3 9 121 139 
3 121 122 139 
3 139 122 6 
3 122 120 6 
3 6 120 8 
3 14 18 13 
3 15 19 18 
3 15 18 14 
3 10 11 14 
3 10 14 13 
3 11 12 15 
3 11 15 14 
3 17 140 141 
3 17 141 142 
3 10 13 18 
3 10 18 16 
3 16 18 19 
3 16 19 143 
3 24 23 28 
3 25 24 28 
3 25 28 29 
3 20 23 24 
3 20 24 21 
3 21 24 25 
3 21 25 22 
3 27 144 145 
3 27 145 146 
3 20 26 28 
3 20 28 23 
3 26 147 29 
3 26 29 28 
3 34 38 33 
3 35 39 38 
3 35 38 34 
3 30 31 34 
3 30 34 33 
3 31 32 35 
3 31 35 34 
3 37 148 149 
3 37 149 150 
3 30 33 38 
3 30 38 36 
3 36 38 39 
3 36 39 151 
3 65 66 67 
3 65 67 64 
3 68 70 71 
3 68 71 69 
3 131 84 86 
3 131 86 130 
3 46 152 53 
3 153 55 49 
3 134 135 90 
3 134 90 91 
3 154 155 156 
3 154 156 157 
3 44 52 158 
3 159 45 41 
3 40 44 158 
3 46 42 152 
3 153 43 47 
3 53 152 113 
3 113 152 115 
3 115 152 112 
3 152 50 112 
3 153 47 55 
3 159 54 45 
3 56 57 58 
3 56 58 59 
3 60 61 160 
3 60 160 161 
3 162 163 62 
3 162 62 63 
3 164 165 166 
3 164 166 167 
3 159 48 54 
3 168 51 169 
3 168 169 170 
3 158 52 171 
3 45 54 101 
3 47 100 55 
3 100 102 55 
3 54 116 101 
3 116 119 101 
3 101 119 102 
3 119 117 102 
3 117 55 102 
3 44 108 52 
3 46 53 109 
3 108 110 52 
3 52 110 53 
3 110 109 53 
3 172 173 58 
3 172 58 57 
3 174 59 175 
3 173 176 58 
3 175 59 118 
3 59 58 118 
3 176 118 58 
3 174 177 56 
3 174 56 59 
3 51 60 161 
3 51 161 169 
3 61 164 167 
3 61 167 160 
3 178 179 62 
3 178 62 163 
3 179 180 63 
3 179 63 62 
3 180 181 63 
3 181 114 63 
3 63 114 162 
3 114 182 162 
3 182 183 162 
3 184 185 186 
3 184 186 187 
3 152 42 188 
3 152 188 189 
3 84 131 132 
3 84 132 93 
3 43 153 190 
3 43 190 191 
3 134 91 94 
3 134 94 133 
3 158 192 40 
3 40 192 105 
3 105 192 107 
3 107 192 104 
3 192 193 104 
3 194 195 196 
3 194 196 197 
3 159 41 198 
3 41 96 198 
3 96 98 198 
3 98 97 198 
3 97 199 198 
3 42 46 74 
3 42 74 72 
3 47 43 73 
3 47 73 75 
3 41 45 76 
3 41 76 77 
3 44 40 79 
3 44 79 78 
3 46 109 74 
3 44 78 108 
3 108 78 111 
3 78 74 111 
3 109 111 74 
3 45 101 76 
3 47 75 100 
3 100 75 103 
3 75 76 103 
3 101 103 76 
3 43 191 80 
3 43 80 73 
3 66 81 200 
3 66 200 67 
3 188 42 72 
3 188 72 201 
3 40 105 79 
3 79 105 82 
3 105 106 82 
3 106 104 82 
3 104 193 82 
3 202 68 69 
3 202 69 83 
3 41 77 96 
3 199 97 203 
3 96 77 99 
3 77 203 99 
3 97 99 203 
3 204 205 206 
3 204 206 207 
3 208 209 85 
3 208 85 87 
3 210 211 88 
3 210 88 89 
3 212 213 214 
3 212 214 215 
3 205 212 215 
3 205 215 206 
3 211 208 87 
3 211 87 88 
3 209 216 92 
3 209 92 85 
3 217 218 219 
3 220 204 207 
3 220 207 221 
3 213 222 223 
3 213 223 214 
3 224 225 226 
3 227 210 89 
3 227 89 95 
3 99 98 96 
3 97 98 99 
3 103 102 100 
3 101 102 103 
3 105 107 106 
3 106 107 104 
3 110 111 109 
3 108 111 110 
3 112 228 115 
3 115 228 113 
3 119 229 117 
3 116 229 119 
3 122 123 120 
3 121 123 122 
3 230 125 124 
3 230 124 231 
3 126 125 230 
3 126 230 232 
3 233 234 235 
3 127 236 237 
3 238 128 239 
3 238 239 240 
3 238 241 129 
3 238 129 128 
3 242 243 244 
3 242 244 245 
3 125 131 130 
3 125 130 124 
3 132 131 125 
3 132 125 126 
3 233 217 219 
3 233 219 234 
3 225 224 236 
3 225 236 127 
3 128 134 133 
3 128 133 239 
3 128 129 135 
3 128 135 134 
3 244 243 155 
3 244 155 154 
