ply
format ascii 1.0
comment TextureFile Dungeons_2_Texture_01_A.png
element vertex 387
property float x
property float y
property float z
property float nx
property float ny
property float nz
property uchar red
property uchar green
property uchar blue
property uchar alpha
property float texture_u
property float texture_v
element face 508
property list uchar int vertex_indices
end_header
436.8935 7.8496 0 0.9999741 0.007167571 -0.0005947224 192 192 192 255 0.222536 0.754413
63.10632 7.8496 0 -0.9999547 0.009519164 0 192 192 192 255 0.015696 0.754413
356.7962 7.8496 0 0.3740852 0.9273193 0.01179577 192 192 192 255 0.178213 0.754413
143.2037 7.8496 0 -0.3740844 0.9273196 -0.01179585 192 192 192 255 0.060019 0.754413
196.6018 7.8496 0 0.3740858 0.9273191 0.01179645 192 192 192 255 0.089567 0.754413
303.3982 7.8496 0 -0.3740858 0.927319 -0.01179641 192 192 192 255 0.148665 0.754413
276.699 7.8496 0 0.3740849 0.9273194 0.01179635 192 192 192 255 0.133890 0.754413
223.3008 7.8496 0 -0.3740854 0.9273192 -0.01179675 192 192 192 255 0.104342 0.754413
116.5046 7.8496 0 0.3740848 0.9273195 0.0117966 192 192 192 255 0.045244 0.754413
383.4954 7.8496 -4e-06 -0.3740844 0.9273196 -0.01179648 192 192 192 255 0.192988 0.754413
236.6517 20.57044 0 -0.3730079 0.9246473 -0.07676245 192 192 192 255 0.111730 0.761452
263.3481 20.57047 0 0.3730068 0.9246477 0.07676289 192 192 192 255 0.126502 0.761452
396.8463 20.57047 0 -0.3730063 0.924648 -0.07676268 192 192 192 255 0.200376 0.761452
423.5427 20.57044 0 0.3730077 0.9246474 0.07676289 192 192 192 255 0.215148 0.761452
76.45729 20.57048 0 -0.2983983 0.9529625 -0.05311364 192 192 192 255 0.023084 0.761452
103.1536 20.57048 0 0.3730069 0.9246477 0.0767624 192 192 192 255 0.037856 0.761452
343.4454 20.57042 0 0.3730074 0.9246475 0.0767637 192 192 192 255 0.170825 0.761452
316.749 20.57043 0 -0.373008 0.9246472 -0.07676303 192 192 192 255 0.156053 0.761452
183.2509 20.57043 0 0.373008 0.9246473 0.07676294 192 192 192 255 0.082179 0.761452
156.5546 20.57043 0 -0.3730067 0.9246477 -0.07676355 192 192 192 255 0.067407 0.761452
436.8936 0 25.59539 0.514177 -0.0001061157 0.8576841 192 192 192 255 0.222662 0.751671
436.8936 0 0 0.9999909 -0.004259447 0 192 192 192 255 0.222692 0.751882
63.10641 0 0 -0.9999949 -0.003200555 0 192 192 192 255 0.015540 0.751882
63.10641 0 25.59539 -0.518505 -0.002475763 0.8550711 192 192 192 255 0.015569 0.751672
436.8936 0 -25.59539 0.5185065 -0.0008629864 -0.8550733 192 192 192 255 0.222663 0.751672
410.1945 0 -25.59539 0 -0.002948951 -0.9999957 192 192 192 255 0.207762 0.751882
63.10641 0 -25.59539 -0.5141768 -0.000107364 -0.8576843 192 192 192 255 0.015570 0.751671
330.0972 0 -25.59539 0 -0.002448777 -0.999997 192 192 192 255 0.163439 0.751882
89.80548 0 -25.59539 0 -0.0022122 -0.9999976 192 192 192 255 0.030470 0.751882
169.9027 0 -25.59539 0 -0.002448781 -0.999997 192 192 192 255 0.074793 0.751882
250 0 -25.59539 0 -0.002448776 -0.999997 192 192 192 255 0.119116 0.751882
250 0 25.59539 0 -0.002448778 0.999997 192 192 192 255 0.119116 0.751882
410.1945 0 25.59539 0 -0.002212198 0.9999976 192 192 192 255 0.207762 0.751882
89.80548 0 25.59539 0 -0.002211719 0.9999976 192 192 192 255 0.030470 0.751882
330.0972 0 25.59539 0 -0.002448779 0.999997 192 192 192 255 0.163439 0.751882
169.9027 0 25.59539 0 -0.002448781 0.999997 192 192 192 255 0.074793 0.751882
89.80536 0 0 0 -1 0 192 192 192 255 0.030470 0.751882
169.9027 0 0 0 -1 0 192 192 192 255 0.074793 0.751882
249.9999 0 0 0 -1 0 192 192 192 255 0.119116 0.751882
330.0972 0 0 0 -1 0 192 192 192 255 0.163439 0.751882
410.1944 0 0 0 -1 0 192 192 192 255 0.207762 0.751882
356.7963 12.53407 18.80897 0.236858 0.9414448 0.2399584 192 192 192 255 0.178213 0.757005
353.9508 7.112846 25.59539 0.002598675 0.004640355 0.9999859 192 192 192 255 0.176639 0.754912
343.4454 25.25492 18.80897 0.4105267 0.8934314 0.1823408 192 192 192 255 0.170825 0.764044
340.6941 20.06908 25.59539 0.0006314373 0.002571412 0.9999965 192 192 192 255 0.169303 0.761609
356.7963 12.53407 -18.80897 0.47207 0.842836 -0.2584136 192 192 192 255 0.178213 0.757005
354.045 7.348228 -25.59539 0.001314206 0.005303635 -0.9999851 192 192 192 255 0.176691 0.755012
343.4454 25.25492 -18.80897 0.2837284 0.8954421 -0.3430478 192 192 192 255 0.170825 0.764044
340.5999 19.83369 -25.59539 0.001275905 0.002311433 -0.9999965 192 192 192 255 0.169251 0.761493
143.2036 12.53408 18.80897 -0.4720693 0.8428364 0.2584135 192 192 192 255 0.060019 0.757005
145.9549 7.34823 25.59539 -0.001314206 0.00530364 0.9999851 192 192 192 255 0.061541 0.755012
116.5045 12.53408 18.80898 0.2368581 0.9414445 0.2399595 192 192 192 255 0.045244 0.757005
113.659 7.112846 25.59539 0.002598681 0.004640357 0.9999859 192 192 192 255 0.043670 0.754912
143.2036 12.53408 -18.80897 -0.2368576 0.9414449 -0.2399582 192 192 192 255 0.060019 0.757005
146.0491 7.112846 -25.59539 -0.002598673 0.00464036 -0.9999859 192 192 192 255 0.061593 0.754912
116.5045 12.53408 -18.80898 0.4720694 0.8428357 -0.2584153 192 192 192 255 0.045244 0.757005
113.7532 7.348245 -25.59539 0.001314209 0.005303642 -0.9999851 192 192 192 255 0.043722 0.755012
196.6018 12.53408 18.80898 0.2368583 0.9414444 0.2399597 192 192 192 255 0.089567 0.757005
193.7562 7.112846 25.59539 0.002598683 0.004640356 0.9999859 192 192 192 255 0.087993 0.754912
183.2509 25.25492 18.80898 0.4105271 0.8934308 0.1823428 192 192 192 255 0.082179 0.764044
180.4996 20.06909 25.59539 0.0006314379 0.002571415 0.9999965 192 192 192 255 0.080657 0.761609
196.6018 12.53408 -18.80898 0.4720703 0.8428351 -0.2584157 192 192 192 255 0.089567 0.757005
193.8504 7.34824 -25.59539 0.001314209 0.005303644 -0.9999851 192 192 192 255 0.088045 0.755012
183.2509 25.25492 -18.80898 0.2837284 0.8954415 -0.3430494 192 192 192 255 0.082179 0.764044
180.4054 19.83369 -25.59539 0.001275907 0.002311433 -0.9999965 192 192 192 255 0.080605 0.761493
303.3982 12.53408 18.80898 -0.4720703 0.8428351 0.2584155 192 192 192 255 0.148665 0.757005
306.1495 7.348239 25.59539 -0.001314208 0.005303641 0.9999851 192 192 192 255 0.150187 0.755012
276.699 12.53408 18.80897 0.236858 0.9414447 0.2399588 192 192 192 255 0.133890 0.757005
273.8536 7.112846 25.59539 0.002598673 0.004640353 0.9999859 192 192 192 255 0.132316 0.754912
303.3982 12.53408 -18.80898 -0.2368584 0.9414444 -0.2399596 192 192 192 255 0.148665 0.757005
306.2437 7.112846 -25.59539 -0.002598676 0.004640348 -0.9999859 192 192 192 255 0.150239 0.754912
276.699 12.53408 -18.80897 0.4720697 0.8428359 -0.2584142 192 192 192 255 0.133890 0.757005
273.9478 7.348232 -25.59539 0.001314205 0.005303631 -0.9999851 192 192 192 255 0.132368 0.755012
263.3481 25.25493 18.80898 0.4105262 0.8934314 0.182342 192 192 192 255 0.126502 0.764044
260.5968 20.06909 25.59539 0.0006314379 0.002571415 0.9999965 192 192 192 255 0.124980 0.761609
263.3481 25.25493 -18.80898 0.2837281 0.8954419 -0.3430486 192 192 192 255 0.126502 0.764044
260.5026 19.8337 -25.59539 0.001275905 0.002311433 -0.9999965 192 192 192 255 0.124928 0.761493
223.3008 12.53408 18.80898 -0.4720692 0.8428355 0.2584163 192 192 192 255 0.104342 0.757005
226.0522 7.348243 25.59539 -0.001314201 0.005303629 0.9999851 192 192 192 255 0.105864 0.755012
223.3008 12.53408 -18.80898 -0.2368581 0.9414444 -0.2399597 192 192 192 255 0.104342 0.757005
226.1464 7.112846 -25.59539 -0.002598674 0.00464035 -0.9999859 192 192 192 255 0.105916 0.754912
103.1537 25.25494 18.80898 0.410494 0.89348 0.1821763 192 192 192 255 0.037856 0.764044
100.4024 20.06909 25.59539 0.0006312607 0.002572389 0.9999965 192 192 192 255 0.036334 0.761609
103.1537 25.25494 -18.80898 0.2836845 0.8956313 -0.3425897 192 192 192 255 0.037856 0.764044
100.3082 19.8337 -25.59539 0.001275561 0.002311651 -0.9999965 192 192 192 255 0.036282 0.761493
383.4954 12.53408 18.80898 -0.4720693 0.842836 0.2584147 192 192 192 255 0.192988 0.757005
386.2467 7.348242 25.59539 -0.001314208 0.005303639 0.9999851 192 192 192 255 0.194510 0.755012
383.4954 12.53408 -18.80898 -0.2368579 0.9414446 -0.2399593 192 192 192 255 0.192988 0.757005
386.3409 7.112846 -25.59539 -0.002598675 0.004640352 -0.9999859 192 192 192 255 0.194562 0.754912
436.8936 12.55067 18.87559 0.9999962 0.002507023 0.001145805 192 192 192 255 0.222536 0.757014
423.5427 25.25193 18.79698 0.4155314 0.8848681 0.2105758 192 192 192 255 0.215148 0.764043
420.7961 20.08097 25.59539 0.0005315734 0.002130726 0.9999976 192 192 192 255 0.213629 0.761615
436.8936 12.55067 -18.87559 0.9999849 0.004990663 -0.002316582 192 192 192 255 0.222536 0.757014
423.5427 25.25193 -18.79698 0.2847125 0.8863165 -0.3652149 192 192 192 255 0.215148 0.764043
420.7022 19.8462 -25.59539 0.001073843 0.001802061 -0.9999978 192 192 192 255 0.213577 0.761500
236.6518 25.25493 18.80898 -0.2837279 0.8954412 0.3430502 192 192 192 255 0.111730 0.764044
239.4973 19.8337 25.59539 -0.001275902 0.002311434 0.9999965 192 192 192 255 0.113304 0.761493
236.6518 25.25493 -18.80898 -0.4105268 0.8934309 -0.1823433 192 192 192 255 0.111730 0.764044
239.4031 20.0691 -25.59539 -0.0006314363 0.002571411 -0.9999965 192 192 192 255 0.113252 0.761609
396.8463 25.25493 18.80898 -0.2836841 0.8956317 0.342589 192 192 192 255 0.200376 0.764044
399.6918 19.8337 25.59539 -0.00127556 0.002311649 0.9999965 192 192 192 255 0.201950 0.761493
396.8463 25.25493 -18.80898 -0.4104934 0.8934805 -0.1821754 192 192 192 255 0.200376 0.764044
399.5976 20.0691 -25.59539 -0.0006312582 0.002572387 -0.9999965 192 192 192 255 0.201898 0.761609
63.10638 12.55067 18.8756 -0.9999903 0.003479262 0.00269915 192 192 192 255 0.015696 0.757014
76.45731 25.25195 18.79698 -0.3747136 0.8865869 0.2712074 192 192 192 255 0.023084 0.764043
79.29781 19.8462 25.59539 -0.001073839 0.001802059 0.9999978 192 192 192 255 0.024655 0.761500
63.10638 12.55067 -18.8756 -0.9999962 0.002500774 -0.001148355 192 192 192 255 0.015696 0.757014
76.45731 25.25195 -18.79698 -0.4155302 0.8848683 -0.2105774 192 192 192 255 0.023084 0.764043
79.20387 20.08097 -25.59539 -0.0005315712 0.002130726 -0.9999976 192 192 192 255 0.024603 0.761615
316.749 25.25492 18.80898 -0.2837284 0.8954415 0.3430491 192 192 192 255 0.156053 0.764044
319.5945 19.83369 25.59539 -0.001275905 0.002311431 0.9999965 192 192 192 255 0.157627 0.761493
316.749 25.25492 -18.80898 -0.410527 0.8934309 -0.1823425 192 192 192 255 0.156053 0.764044
319.5004 20.06909 -25.59539 -0.0006314365 0.002571411 -0.9999965 192 192 192 255 0.157575 0.761609
156.5546 25.25492 18.80897 -0.2837279 0.8954422 0.3430478 192 192 192 255 0.067407 0.764044
159.4 19.83369 25.59539 -0.001275906 0.002311437 0.9999965 192 192 192 255 0.068981 0.761493
156.5546 25.25492 -18.80897 -0.4105259 0.8934318 -0.1823407 192 192 192 255 0.067407 0.764044
159.3058 20.06908 -25.59539 -0.0006314378 0.002571416 -0.9999965 192 192 192 255 0.068929 0.761609
30.61743 427.6974 31.19531 0.7335778 -0.322304 0.5983174 192 192 192 255 0.016465 0.704802
0.000122 390.6668 31.19531 -0.8697873 -0.2961415 0.3946775 192 192 192 255 0.002065 0.687385
30.61743 500 31.19531 0.6166352 0.7071068 0.3460651 192 192 192 255 0.016465 0.739053
24.46362 438.1332 42.16045 0.5467703 -0.1077308 0.830323 192 192 192 255 0.013571 0.959711
0.000122 401.1934 42.16045 0.1043053 -0.382149 0.9181953 192 192 192 255 0.002065 0.942336
24.46362 500 42.16045 0.4371859 0.5013291 0.7466845 192 192 192 255 0.013571 0.989053
499.9999 390.6668 31.19531 -0.2045137 -0.706136 0.6778983 192 192 192 255 0.237238 0.687385
469.3824 427.6974 31.19531 -0.8085219 -0.1729289 0.5624838 192 192 192 255 0.222837 0.704802
469.3824 500 31.19531 -0.6010152 0.6978092 0.3896706 192 192 192 255 0.222837 0.739053
499.9999 401.1934 42.16045 0.6390321 -0.2587293 0.7243599 192 192 192 255 0.237238 0.692336
475.5366 430.7809 42.16045 -0.497743 -0.2463677 0.8315978 192 192 192 255 0.225732 0.706253
475.5366 500 42.16045 -0.001934993 0.002246625 0.9999956 192 192 192 255 0.225732 0.739053
500 500 42.16045 0.001152237 0.001152236 0.9999987 192 192 192 255 0.237238 0.739054
500 500 31.19531 0.7071072 0.7071064 3.98119e-07 192 192 192 255 0.237238 0.739054
0.000122 500 31.19531 -0.7071066 0.707107 3.734746e-06 192 192 192 255 0.002065 0.989053
0.000244 500 42.16045 -0.5773492 0.5773494 0.5773522 192 192 192 255 0.002065 0.989053
14.15401 73.99417 42.16045 0.2397133 0.443705 0.8635181 192 192 192 255 0.032239 0.538711
33.43406 42.09052 42.16045 0.001353846 0.0006273797 0.9999989 192 192 192 255 0.041307 0.526452
13.22339 84.52074 31.19531 0.3412541 0.6316552 0.6961015 192 192 192 255 0.031801 0.543390
43.84094 47.49014 31.19531 0.7387803 0.1715824 0.6517386 192 192 192 255 0.046202 0.525973
43.84094 0 31.19531 0.5439079 -0.700151 0.4625503 192 192 192 255 0.046202 0.519639
35.73665 0 42.16045 0.001011823 -0.001302479 0.9999986 192 192 192 255 0.042391 0.519796
456.1592 47.49014 31.19531 -0.7161575 0.3635988 0.595747 192 192 192 255 0.193100 0.525973
486.7766 84.52074 31.19531 -0.3630434 0.6258426 0.6903047 192 192 192 255 0.207501 0.543390
456.1592 0 31.19531 -0.5852439 -0.7140289 0.3842556 192 192 192 255 0.193100 0.503636
462.3132 44.40664 42.16045 -0.001444795 0.0003123262 0.9999989 192 192 192 255 0.219846 0.774229
486.7766 70.6944 42.16045 -0.3038047 0.5237222 0.7958755 192 192 192 255 0.231344 0.786585
464.4766 0 42.16045 -0.0005296252 -0.0006461711 0.9999996 192 192 192 255 0.220863 0.753357
461.7281 87.63455 31.19531 -0.0004113148 0.0001470368 0.9999999 192 192 192 255 0.219571 0.794548
38.27173 87.63455 31.19531 0.6222616 0.5778652 0.5280743 192 192 192 255 0.020534 0.794548
38.27173 412.3654 31.19531 0.0002359599 -8.743646e-05 1 192 192 192 255 0.055341 0.697591
461.7281 412.3654 31.19531 -0.3674748 -0.008163941 0.9299977 192 192 192 255 0.219571 0.947180
68.87135 446.7633 31.19531 0.0003121868 -0.000690561 0.9999997 192 192 192 255 0.067303 0.712166
427.6626 446.7633 31.19531 -0.0001466125 -0.0003301917 0.9999999 192 192 192 255 0.203559 0.963348
435.787 56.64627 31.19531 -0.0004179771 0.0001560236 0.9999999 192 192 192 255 0.207378 0.779982
67.16992 49.30039 31.19531 0.04654654 0.02925096 0.9984878 192 192 192 255 0.034117 0.776529
454.9343 93.00985 17.1535 -0.911689 0.2407784 0.3329398 192 192 192 255 0.180765 0.547383
45.06592 93.00985 17.1535 0.6294048 0.5769995 0.520501 192 192 192 255 0.058537 0.547383
72.52783 63.04747 17.1535 0.9313787 0.002627256 0.3640423 192 192 192 255 0.071454 0.533290
427.4722 63.04747 17.1535 -0.8790617 0.4223008 0.2211618 192 192 192 255 0.167849 0.533290
454.9343 406.9901 17.1535 -0.900543 -0.001813543 0.4347633 192 192 192 255 0.180765 0.695062
45.06592 406.9901 17.1535 0.9140279 -0.2178715 0.3421769 192 192 192 255 0.058537 0.695062
427.4722 436.9525 17.1535 -0.3721168 -0.840924 0.392907 192 192 192 255 0.167849 0.709155
72.52783 436.9525 17.1535 0.3963966 -0.8938155 0.2096749 192 192 192 255 0.071454 0.709155
500 500.2594 31.19531 0.0002318236 0.0004636472 0.9999999 192 192 192 255 0.237560 0.988493
0 500.2594 31.19531 -0.000317699 0.0001588495 1 192 192 192 255 0.002546 0.988493
432.8303 0 31.19531 -0.0002287678 -0.2405722 0.9706312 192 192 192 255 0.205988 0.753357
67.16992 0 31.19531 0.0002716092 -0.2738999 0.9617582 192 192 192 255 0.034117 0.753357
427.4722 0 17.1535 -0.004018192 -0.9999915 0.0009356864 192 192 192 255 0.203469 0.753357
72.52783 0 17.1535 0.4197593 -0.8926162 0.1644335 192 192 192 255 0.071454 0.519732
500 0 42.16045 0.001267043 -0.001267043 0.9999984 192 192 192 255 0.237560 0.753357
500 73.99417 42.16045 0.3091275 0.2248528 0.9240571 192 192 192 255 0.237560 0.788136
500 84.52074 31.19531 0.6770509 0.4924725 0.5468756 192 192 192 255 0.237238 0.543390
0 0 42.16045 -0.0006643747 -0.0006643747 0.9999996 192 192 192 255 0.002546 0.753357
0 73.99416 42.16045 -0.4775425 0.3444925 0.8082563 192 192 192 255 0.002546 0.788136
0 84.52074 31.19531 -0.7071069 0.510097 0.4896948 192 192 192 255 0.002122 0.543361
0 0 31.19531 -0.0001135961 -0.1074832 0.9942069 192 192 192 255 0.002546 0.753357
500 0 31.19531 0.0002729833 -0.1290097 0.9916433 192 192 192 255 0.237560 0.753357
500 0 31.19531 0.7071068 -0.7071068 0 192 192 192 255 0.237560 0.753357
0 0 31.19531 -0.7071068 -0.7071068 0 192 192 192 255 0.002546 0.753357
38.27172 396.4026 31.19531 0.304895 -0.1782707 0.9355526 192 192 192 255 0.055341 0.690083
38.27173 291.3568 31.19531 0.3222913 0.1017922 0.9411519 192 192 192 255 0.055341 0.640675
24.617 334.4086 31.19531 0.1155132 0.01465567 0.9931979 192 192 192 255 0.014116 0.910538
27.30163 377.821 31.19531 0.1702738 -0.03750428 0.9846829 192 192 192 255 0.015378 0.930943
43.03111 368.2602 21.23993 0.4057168 -4.111063e-07 0.9139988 192 192 192 255 0.057580 0.676846
461.7281 123.6435 31.19531 -0.177186 0.0854449 0.9804613 192 192 192 255 0.219571 0.811473
461.7281 167.7075 31.19531 -0.2478189 -0.05233194 0.967392 192 192 192 255 0.219571 0.832184
468.2724 136.8836 31.19531 -0.3488671 0 0.9371722 192 192 192 255 0.222647 0.817696
459.0161 144.5868 25.74195 -0.5125961 5.663188e-06 0.8586299 192 192 192 255 0.218296 0.821317
69.78029 59.76492 24.15044 0.8331896 0.143674 0.5339971 192 192 192 255 0.070161 0.531746
52.50391 72.37302 31.19531 0.6029854 0.4852065 0.6332324 192 192 192 255 0.027224 0.787374
38.27174 262.7875 31.19531 0.5490362 -0.06259686 0.8334513 192 192 192 255 0.055341 0.627237
38.27173 112.9485 31.19531 0.633029 0.05666409 0.7720514 192 192 192 255 0.055341 0.556761
30.74255 196.8539 31.19531 0.1768814 -8.36967e-09 0.9842322 192 192 192 255 0.016995 0.845884
42.36046 184.2964 22.58678 0.5962017 1.511055e-07 0.8028347 192 192 192 255 0.057265 0.590319
461.7281 204.0254 31.19531 -0.2529769 0.07925756 0.9642204 192 192 192 255 0.183962 0.599599
461.7281 298.6146 31.19531 -0.7196261 -0.009444553 0.6942976 192 192 192 255 0.183961 0.644090
473.3576 240.8512 31.19531 -0.3068301 0 0.9517643 192 192 192 255 0.185048 0.616920
458.8823 232.9909 25.08244 -0.6704912 -0.0006027701 0.7419173 192 192 192 255 0.182623 0.613223
454.9343 338.0419 17.1535 -0.8623114 -0.0003620744 0.5063784 192 192 192 255 0.180765 0.662633
465.1728 322.4777 31.19531 -0.8072948 0 0.5901484 192 192 192 255 0.221190 0.904930
500 223.4319 31.19531 0.3939193 0 0.919145 192 192 192 255 0.237560 0.858376
469.3824 469.334 31.19531 -0.8379177 -0.009825634 0.5457081 192 192 192 255 0.222837 0.724386
477.5941 464.6052 42.16045 -0.002889723 2.237908e-05 0.9999958 192 192 192 255 0.226066 0.722162
30.61743 427.6974 -31.19531 0.7335778 -0.322304 -0.5983174 192 192 192 255 0.016465 0.704802
0.000122 390.6668 -31.19531 -0.8697873 -0.2961415 -0.3946775 192 192 192 255 0.002065 0.687385
30.61743 500 -31.19531 0.6166352 0.7071068 -0.3460651 192 192 192 255 0.016465 0.739053
24.46362 438.1332 -42.16045 0.5467703 -0.1077308 -0.830323 192 192 192 255 0.013571 0.959711
0.000122 401.1934 -42.16045 0.1043053 -0.382149 -0.9181953 192 192 192 255 0.002065 0.942336
24.46362 500 -42.16045 0.4371859 0.5013291 -0.7466845 192 192 192 255 0.013571 0.989053
499.9999 390.6668 -31.19531 -0.2045137 -0.706136 -0.6778983 192 192 192 255 0.237238 0.687385
469.3824 427.6974 -31.19531 -0.8085219 -0.1729289 -0.5624838 192 192 192 255 0.222837 0.704802
469.3824 500 -31.19531 -0.6010152 0.6978092 -0.3896706 192 192 192 255 0.222837 0.739053
499.9999 401.1934 -42.16045 0.6390321 -0.2587293 -0.7243599 192 192 192 255 0.237238 0.692336
475.5366 430.7809 -42.16045 -0.497743 -0.2463677 -0.8315978 192 192 192 255 0.225732 0.706253
475.5366 500 -42.16045 -0.001934993 0.002246625 -0.9999956 192 192 192 255 0.225732 0.739053
500 500 -42.16045 0.001152237 0.001152236 -0.9999987 192 192 192 255 0.237238 0.739054
500 500 -31.19531 0.7071072 0.7071064 -3.98119e-07 192 192 192 255 0.237238 0.739054
0.000122 500 -31.19531 -0.7071066 0.707107 -3.734746e-06 192 192 192 255 0.002065 0.989053
0.000244 500 -42.16045 -0.5773492 0.5773494 -0.5773522 192 192 192 255 0.002065 0.989053
14.15401 73.99417 -42.16045 0.2397133 0.443705 -0.8635181 192 192 192 255 0.032239 0.538711
33.43406 42.09052 -42.16045 0.001353846 0.0006273797 -0.9999989 192 192 192 255 0.041307 0.526452
13.22339 84.52074 -31.19531 0.3412541 0.6316552 -0.6961015 192 192 192 255 0.031801 0.543390
43.84094 47.49014 -31.19531 0.7387803 0.1715824 -0.6517386 192 192 192 255 0.046202 0.525973
43.84094 0 -31.19531 0.5439079 -0.700151 -0.4625503 192 192 192 255 0.046202 0.519639
35.73665 0 -42.16045 0.001011823 -0.001302479 -0.9999986 192 192 192 255 0.042391 0.519796
456.1592 47.49014 -31.19531 -0.7161575 0.3635988 -0.595747 192 192 192 255 0.193100 0.525973
486.7766 84.52074 -31.19531 -0.3630434 0.6258426 -0.6903047 192 192 192 255 0.207501 0.543390
456.1592 0 -31.19531 -0.5852439 -0.7140289 -0.3842556 192 192 192 255 0.193100 0.503636
462.3132 44.40664 -42.16045 -0.001444795 0.0003123262 -0.9999989 192 192 192 255 0.219846 0.774229
486.7766 70.6944 -42.16045 -0.3038047 0.5237222 -0.7958755 192 192 192 255 0.231344 0.786585
464.4766 0 -42.16045 -0.0005296252 -0.0006461711 -0.9999996 192 192 192 255 0.220863 0.753357
461.7281 87.63455 -31.19531 -0.0004113148 0.0001470368 -0.9999999 192 192 192 255 0.219571 0.794548
38.27173 87.63455 -31.19531 0.6222616 0.5778652 -0.5280743 192 192 192 255 0.020534 0.794548
38.27173 412.3654 -31.19531 0.0002359599 -8.743646e-05 -1 192 192 192 255 0.055341 0.697591
461.7281 412.3654 -31.19531 -0.3674748 -0.008163941 -0.9299977 192 192 192 255 0.219571 0.947180
68.87135 446.7633 -31.19531 0.0003121536 -0.0004860459 -0.9999998 192 192 192 255 0.067303 0.712166
427.6626 446.7633 -31.19531 -0.000146627 -0.000520275 -0.9999999 192 192 192 255 0.203559 0.963348
435.787 56.64627 -31.19531 -0.0004179771 0.0001560236 -0.9999999 192 192 192 255 0.207378 0.779982
67.16992 49.30039 -31.19531 0.04654654 0.02925096 -0.9984878 192 192 192 255 0.034117 0.776529
454.9343 93.00985 -17.1535 -0.8807577 0.3349048 -0.3348206 192 192 192 255 0.180765 0.547383
45.06592 93.00985 -17.1535 0.6305564 0.57544 -0.5208333 192 192 192 255 0.058537 0.547383
72.52783 63.04747 -17.1535 0.9313013 0.004045057 -0.3642274 192 192 192 255 0.071454 0.533290
427.4722 63.04747 -17.1535 -0.93619 0.2733348 -0.2209897 192 192 192 255 0.167849 0.533290
454.9343 406.9901 -17.1535 -0.9005898 -0.001186803 -0.4346683 192 192 192 255 0.180765 0.695062
45.06592 406.9901 -17.1535 0.8889346 -0.3015845 -0.3447349 192 192 192 255 0.058537 0.695062
427.4722 436.9525 -17.1535 -0.4396126 -0.8634608 -0.2473383 192 192 192 255 0.167849 0.709155
72.52783 436.9525 -17.1535 0.3067425 -0.8731222 -0.3789021 192 192 192 255 0.071454 0.709155
500 500.2594 -31.19531 0.0004635398 0.0002317699 -0.9999999 192 192 192 255 0.237560 0.988493
0 500.2594 -31.19531 -0.0001588747 0.0003177494 -0.9999999 192 192 192 255 0.002546 0.988493
432.8303 -0 -31.19531 -0.0002356897 -0.0002569656 -0.9999999 192 192 192 255 0.205988 0.753357
67.16992 -0 -31.19531 0.000282409 -0.000603631 -0.9999998 192 192 192 255 0.034117 0.753357
427.4722 0 -17.1535 -0.6712667 -0.7101727 -0.2122635 192 192 192 255 0.203469 0.753357
72.52783 0 -17.1535 0.9313774 -0.004182269 -0.3640313 192 192 192 255 0.071454 0.519639
500 0 -42.16045 0.001267043 -0.001267043 -0.9999984 192 192 192 255 0.237560 0.753357
500 73.99417 -42.16045 0.3091275 0.2248528 -0.9240571 192 192 192 255 0.237560 0.788136
500 84.52074 -31.19531 0.6770509 0.4924725 -0.5468756 192 192 192 255 0.237238 0.543390
0 -0 -42.16045 -0.0006643747 -0.0006643747 -0.9999996 192 192 192 255 0.002546 0.753357
0 73.99416 -42.16045 -0.4775425 0.3444925 -0.8082563 192 192 192 255 0.002546 0.788136
0 84.52074 -31.19531 -0.7071069 0.510097 -0.4896948 192 192 192 255 0.002122 0.543361
-0 -0 -31.19531 -0.0006024996 -0.0003012498 -0.9999998 192 192 192 255 0.002546 0.753357
500 -0 -31.19531 0.0001376419 -0.0002752838 -1 192 192 192 255 0.237560 0.753357
500 0 -31.19531 0.7071068 -0.7071068 0 192 192 192 255 0.237560 0.753357
0 0 -31.19531 -0.7071068 -0.7071068 0 192 192 192 255 0.002546 0.753357
38.27172 396.4026 -31.19531 0.304895 -0.1782707 -0.9355526 192 192 192 255 0.055341 0.690083
38.27173 291.3568 -31.19531 0.3222912 0.1017922 -0.9411519 192 192 192 255 0.020534 0.890303
24.617 334.4086 -31.19531 0.40047 0.05080942 -0.9149001 192 192 192 255 0.014116 0.910538
27.30163 377.821 -31.19531 0.1702738 -0.03750428 -0.9846829 192 192 192 255 0.015378 0.930943
43.03111 368.2602 -21.23993 0.4057169 -4.110109e-07 -0.9139988 192 192 192 255 0.057580 0.676846
461.7281 123.6435 -31.19531 -0.177186 0.0854449 -0.9804613 192 192 192 255 0.219571 0.811473
461.7281 167.7075 -31.19531 -0.2478189 -0.05233194 -0.967392 192 192 192 255 0.219571 0.832184
468.2724 136.8836 -31.19531 -0.3488671 0 -0.9371722 192 192 192 255 0.222647 0.817696
459.0161 144.5868 -25.74195 -0.5125961 5.663188e-06 -0.8586299 192 192 192 255 0.218296 0.821317
69.78029 59.76492 -24.15044 0.8331896 0.143674 -0.5339971 192 192 192 255 0.070161 0.531746
52.50391 72.37302 -31.19531 0.6029854 0.4852065 -0.6332324 192 192 192 255 0.027224 0.787374
38.27174 262.7875 -31.19531 0.5485945 -0.0625465 -0.8337458 192 192 192 255 0.020534 0.876874
38.27173 112.9485 -31.19531 0.633029 0.05666409 -0.7720514 192 192 192 255 0.055341 0.556761
30.74255 196.8539 -31.19531 0.5949056 -2.814973e-08 -0.8037956 192 192 192 255 0.016995 0.845884
42.36046 184.2964 -22.58678 0.5962017 1.513324e-07 -0.8028347 192 192 192 255 0.057265 0.590319
461.7281 204.0254 -31.19531 -0.2529769 0.07925756 -0.9642204 192 192 192 255 0.183962 0.599599
461.7281 298.6146 -31.19531 -0.7196261 -0.009444553 -0.6942976 192 192 192 255 0.183961 0.644090
473.3576 240.8512 -31.19531 -0.3068301 0 -0.9517643 192 192 192 255 0.185048 0.616920
458.8823 232.9909 -25.08244 -0.6704912 -0.0006027701 -0.7419173 192 192 192 255 0.182623 0.613223
454.9343 338.0419 -17.1535 -0.8623114 -0.0003620744 -0.5063784 192 192 192 255 0.180765 0.662633
465.1728 322.4777 -31.19531 -0.8072948 0 -0.5901484 192 192 192 255 0.221190 0.904930
500 223.4319 -31.19531 0.3939193 0 -0.919145 192 192 192 255 0.237560 0.858376
469.3824 469.334 -31.19531 -0.8379177 -0.009825634 -0.5457081 192 192 192 255 0.222837 0.724386
477.5941 464.6052 -42.16045 -0.002889723 2.237908e-05 -0.9999958 192 192 192 255 0.226066 0.722162
24.46362 438.1332 42.16045 0.5467703 -0.1077308 0.830323 192 192 192 255 0.013571 0.709711
0.000122 401.1934 42.16045 0.1043053 -0.382149 0.9181953 192 192 192 255 0.002065 0.692336
24.46362 500 42.16045 0.4371859 0.5013291 0.7466845 192 192 192 255 0.013571 0.739053
30.61743 500 31.19531 0.6166352 0.7071068 0.3460651 192 192 192 255 0.016465 0.989053
477.5941 464.6052 42.16045 -0.002889723 2.237908e-05 0.9999958 192 192 192 255 0.226699 0.972162
500 500 42.16045 0.001152237 0.001152236 0.9999987 192 192 192 255 0.237238 0.989053
475.5366 500 42.16045 -0.001934993 0.002246625 0.9999956 192 192 192 255 0.225732 0.989053
0.000122 390.6668 31.19531 -0.8697873 -0.2961415 0.3946775 192 192 192 255 0.002065 0.937385
462.3132 44.40664 42.16045 -0.001444795 0.0003123262 0.9999989 192 192 192 255 0.195995 0.524523
486.7766 70.6944 42.16045 -0.3038047 0.5237222 0.7958755 192 192 192 255 0.207501 0.536887
464.4766 0 42.16045 -0.0005296252 -0.0006461711 0.9999996 192 192 192 255 0.196347 0.503636
500 73.99417 42.16045 0.3091275 0.2248528 0.9240571 192 192 192 255 0.237238 0.538439
38.27173 87.63455 31.19531 0.6222616 0.5778652 0.5280743 192 192 192 255 0.055341 0.544855
52.50391 72.37302 31.19531 0.6029854 0.4852065 0.6332324 192 192 192 255 0.062036 0.537677
435.787 56.64627 31.19531 -0.0004179771 0.0001560236 0.9999999 192 192 192 255 0.171760 0.530280
461.7281 87.63455 31.19531 -0.0004113148 0.0001470368 0.9999999 192 192 192 255 0.183961 0.544855
465.1728 322.4777 31.19531 -0.8072948 0 0.5901484 192 192 192 255 0.184283 0.655314
461.7281 412.3654 31.19531 -0.3674748 -0.008163941 0.9299977 192 192 192 255 0.183961 0.697591
427.6626 446.7633 31.19531 -0.0001466125 -0.0003301917 0.9999999 192 192 192 255 0.170369 0.712166
427.4722 0 17.1535 -0.004018192 -0.9999915 0.0009356864 192 192 192 255 0.167849 0.503636
432.8303 0 31.19531 -0.0002287678 -0.2405722 0.9706312 192 192 192 255 0.170369 0.503636
67.16992 49.30039 31.19531 0.04654654 0.02925096 0.9984878 192 192 192 255 0.068934 0.529214
67.16992 0 31.19531 0.0002716092 -0.2738999 0.9617582 192 192 192 255 0.068934 0.519639
68.87135 446.7633 31.19531 0.0003121868 -0.000690561 0.9999997 192 192 192 255 0.034917 0.963348
38.27173 412.3654 31.19531 0.0002359599 -8.743646e-05 1 192 192 192 255 0.020534 0.947180
38.27173 112.9485 31.19531 0.633029 0.05666409 0.7720514 192 192 192 255 0.020534 0.806446
38.27172 396.4026 31.19531 0.304895 -0.1782707 0.9355526 192 192 192 255 0.020534 0.939677
35.73665 0 42.16045 0.001011823 -0.001302479 0.9999986 192 192 192 255 0.019343 0.753357
33.43406 42.09052 42.16045 0.001353846 0.0006273797 0.9999989 192 192 192 255 0.018261 0.773141
14.15401 73.99417 42.16045 0.2397133 0.443705 0.8635181 192 192 192 255 0.009198 0.788136
0 73.99416 42.16045 -0.4775425 0.3444925 0.8082563 192 192 192 255 0.004415 0.538501
456.1592 0 31.19531 -0.5852439 -0.7140289 0.3842556 192 192 192 255 0.216953 0.753357
43.84094 0 31.19531 0.5439079 -0.700151 0.4625503 192 192 192 255 0.023152 0.753357
500 84.52074 31.19531 0.6770509 0.4924725 0.5468756 192 192 192 255 0.237560 0.793084
27.30163 377.821 31.19531 0.1702738 -0.03750428 0.9846829 192 192 192 255 0.054316 0.681343
24.617 334.4086 31.19531 0.1155132 0.01465567 0.9931979 192 192 192 255 0.054065 0.660924
30.74255 196.8539 31.19531 0.1768814 -8.36967e-09 0.9842322 192 192 192 255 0.054638 0.596226
0 84.52074 31.19531 -0.7071069 0.510097 0.4896948 192 192 192 255 0.002546 0.793084
473.3576 240.8512 31.19531 -0.3068301 0 0.9517643 192 192 192 255 0.225037 0.866563
461.7281 204.0254 31.19531 -0.2529769 0.07925756 0.9642204 192 192 192 255 0.219571 0.849254
461.7281 123.6435 31.19531 -0.177186 0.0854449 0.9804613 192 192 192 255 0.183961 0.561793
459.0161 144.5868 25.74195 -0.5125961 5.663188e-06 0.8586299 192 192 192 255 0.182685 0.571643
461.7281 167.7075 31.19531 -0.2478189 -0.05233194 0.967392 192 192 192 255 0.183961 0.582517
461.7281 298.6146 31.19531 -0.7196261 -0.009444553 0.6942976 192 192 192 255 0.219571 0.893714
475.5366 430.7809 42.16045 -0.497743 -0.2463677 0.8315978 192 192 192 255 0.225732 0.956253
499.9999 401.1934 42.16045 0.6390321 -0.2587293 0.7243599 192 192 192 255 0.237238 0.942336
499.9999 390.6668 31.19531 -0.2045137 -0.706136 0.6778983 192 192 192 255 0.237238 0.937385
500 500 31.19531 0.7071072 0.7071064 3.98119e-07 192 192 192 255 0.237238 0.989052
72.52783 0 17.1535 0.4197593 -0.8926162 0.1644335 192 192 192 255 0.036636 0.753357
0.000122 401.1934 -42.16045 0.1043053 -0.382149 -0.9181953 192 192 192 255 0.002065 0.692336
24.46362 438.1332 -42.16045 0.5467703 -0.1077308 -0.830323 192 192 192 255 0.013571 0.709711
24.46362 500 -42.16045 0.4371859 0.5013291 -0.7466845 192 192 192 255 0.013571 0.739053
30.61743 500 -31.19531 0.6166352 0.7071068 -0.3460651 192 192 192 255 0.016465 0.989053
477.5941 464.6052 -42.16045 -0.002889723 2.237908e-05 -0.9999958 192 192 192 255 0.226699 0.972162
475.5366 500 -42.16045 -0.001934993 0.002246625 -0.9999956 192 192 192 255 0.225732 0.989053
500 500 -42.16045 0.001152237 0.001152236 -0.9999987 192 192 192 255 0.237238 0.989053
0.000122 390.6668 -31.19531 -0.8697873 -0.2961415 -0.3946775 192 192 192 255 0.002065 0.937385
486.7766 70.6944 -42.16045 -0.3038047 0.5237222 -0.7958755 192 192 192 255 0.207501 0.536887
462.3132 44.40664 -42.16045 -0.001444795 0.0003123262 -0.9999989 192 192 192 255 0.195995 0.524523
464.4766 0 -42.16045 -0.0005296252 -0.0006461711 -0.9999996 192 192 192 255 0.196347 0.503636
500 73.99417 -42.16045 0.3091275 0.2248528 -0.9240571 192 192 192 255 0.237238 0.538439
38.27173 87.63455 -31.19531 0.6222616 0.5778652 -0.5280743 192 192 192 255 0.055341 0.544855
52.50391 72.37302 -31.19531 0.6029854 0.4852065 -0.6332324 192 192 192 255 0.062036 0.537677
435.787 56.64627 -31.19531 -0.0004179771 0.0001560236 -0.9999999 192 192 192 255 0.171760 0.530280
461.7281 87.63455 -31.19531 -0.0004113148 0.0001470368 -0.9999999 192 192 192 255 0.183961 0.544855
461.7281 412.3654 -31.19531 -0.3674748 -0.008163941 -0.9299977 192 192 192 255 0.183961 0.697591
465.1728 322.4777 -31.19531 -0.8072948 0 -0.5901484 192 192 192 255 0.184283 0.655314
427.6626 446.7633 -31.19531 -0.000146627 -0.000520275 -0.9999999 192 192 192 255 0.170369 0.712166
432.8303 -0 -31.19531 -0.0002356897 -0.0002569656 -0.9999999 192 192 192 255 0.170369 0.503636
427.4722 0 -17.1535 -0.6712667 -0.7101727 -0.2122635 192 192 192 255 0.167849 0.503636
67.16992 -0 -31.19531 0.000282409 -0.000603631 -0.9999998 192 192 192 255 0.068934 0.519639
67.16992 49.30039 -31.19531 0.04654654 0.02925096 -0.9984878 192 192 192 255 0.068934 0.529214
68.87135 446.7633 -31.19531 0.0003121536 -0.0004860459 -0.9999998 192 192 192 255 0.034917 0.963348
38.27173 412.3654 -31.19531 0.0002359599 -8.743646e-05 -1 192 192 192 255 0.020534 0.947180
38.27173 112.9485 -31.19531 0.633029 0.05666409 -0.7720514 192 192 192 255 0.020534 0.806446
38.27172 396.4026 -31.19531 0.304895 -0.1782707 -0.9355526 192 192 192 255 0.020534 0.939677
33.43406 42.09052 -42.16045 0.001353846 0.0006273797 -0.9999989 192 192 192 255 0.018261 0.773141
35.73665 0 -42.16045 0.001011823 -0.001302479 -0.9999986 192 192 192 255 0.019343 0.753357
14.15401 73.99417 -42.16045 0.2397133 0.443705 -0.8635181 192 192 192 255 0.009198 0.788136
0 73.99416 -42.16045 -0.4775425 0.3444925 -0.8082563 192 192 192 255 0.004415 0.538501
456.1592 0 -31.19531 -0.5852439 -0.7140289 -0.3842556 192 192 192 255 0.216953 0.753357
43.84094 0 -31.19531 0.5439079 -0.700151 -0.4625503 192 192 192 255 0.023152 0.753357
500 84.52074 -31.19531 0.6770509 0.4924725 -0.5468756 192 192 192 255 0.237560 0.793084
27.30163 377.821 -31.19531 0.1702738 -0.03750428 -0.9846829 192 192 192 255 0.054316 0.681343
38.27173 291.3568 -31.19531 0.3222912 0.1017922 -0.9411519 192 192 192 255 0.055341 0.640675
24.617 334.4086 -31.19531 0.40047 0.05080942 -0.9149001 192 192 192 255 0.054065 0.660924
30.74255 196.8539 -31.19531 0.5949056 -2.814973e-08 -0.8037956 192 192 192 255 0.054638 0.596226
38.27174 262.7875 -31.19531 0.5485945 -0.0625465 -0.8337458 192 192 192 255 0.055341 0.627237
0 84.52074 -31.19531 -0.7071069 0.510097 -0.4896948 192 192 192 255 0.002546 0.793084
461.7281 204.0254 -31.19531 -0.2529769 0.07925756 -0.9642204 192 192 192 255 0.219571 0.849254
473.3576 240.8512 -31.19531 -0.3068301 0 -0.9517643 192 192 192 255 0.225037 0.866563
459.0161 144.5868 -25.74195 -0.5125961 5.663188e-06 -0.8586299 192 192 192 255 0.182685 0.571643
461.7281 123.6435 -31.19531 -0.177186 0.0854449 -0.9804613 192 192 192 255 0.183961 0.561793
461.7281 167.7075 -31.19531 -0.2478189 -0.05233194 -0.967392 192 192 192 255 0.183961 0.582517
461.7281 298.6146 -31.19531 -0.7196261 -0.009444553 -0.6942976 192 192 192 255 0.219571 0.893714
475.5366 430.7809 -42.16045 -0.497743 -0.2463677 -0.8315978 192 192 192 255 0.225732 0.956253
499.9999 401.1934 -42.16045 0.6390321 -0.2587293 -0.7243599 192 192 192 255 0.237238 0.942336
500 500 -31.19531 0.7071072 0.7071064 -3.98119e-07 192 192 192 255 0.237238 0.989052
499.9999 390.6668 -31.19531 -0.2045137 -0.706136 -0.6778983 192 192 192 255 0.237238 0.937385
72.52783 0 -17.1535 0.9313774 -0.004182269 -0.3640313 192 192 192 255 0.036636 0.753357
38.27174 262.7875 31.19531 0.5490362 -0.06259686 0.8334513 192 192 192 255 0.020534 0.876874
38.27173 291.3568 31.19531 0.3222913 0.1017922 0.9411519 192 192 192 255 0.020534 0.890303
3 0 89 21 
3 22 106 26 
3 32 40 21 
3 32 21 20 
3 21 40 25 
3 21 25 24 
3 23 22 36 
3 23 36 33 
3 28 36 22 
3 28 22 26 
3 33 36 37 
3 33 37 35 
3 29 37 36 
3 29 36 28 
3 35 37 38 
3 35 38 31 
3 30 38 37 
3 30 37 29 
3 31 38 39 
3 31 39 34 
3 27 39 38 
3 27 38 30 
3 34 39 40 
3 34 40 32 
3 25 40 39 
3 25 39 27 
3 21 92 0 
3 23 103 22 
3 41 42 86 
3 41 86 85 
3 42 41 43 
3 42 43 44 
3 44 43 109 
3 44 109 110 
3 45 46 48 
3 45 48 47 
3 46 45 87 
3 46 87 88 
3 47 48 112 
3 47 112 111 
3 49 50 114 
3 49 114 113 
3 50 49 51 
3 50 51 52 
3 52 51 81 
3 52 81 82 
3 53 54 56 
3 53 56 55 
3 54 53 115 
3 54 115 116 
3 55 56 84 
3 55 84 83 
3 57 58 78 
3 57 78 77 
3 58 57 59 
3 58 59 60 
3 60 59 113 
3 60 113 114 
3 61 62 64 
3 61 64 63 
3 62 61 79 
3 62 79 80 
3 63 64 116 
3 63 116 115 
3 65 66 110 
3 65 110 109 
3 66 65 67 
3 66 67 68 
3 68 67 73 
3 68 73 74 
3 69 70 72 
3 69 72 71 
3 70 69 111 
3 70 111 112 
3 71 72 76 
3 71 76 75 
3 74 73 95 
3 74 95 96 
3 75 76 98 
3 75 98 97 
3 77 78 96 
3 77 96 95 
3 80 79 97 
3 80 97 98 
3 82 81 104 
3 82 104 105 
3 83 84 108 
3 83 108 107 
3 85 86 100 
3 85 100 99 
3 88 87 101 
3 88 101 102 
3 20 89 90 
3 20 90 91 
3 91 90 99 
3 91 99 100 
3 92 24 94 
3 92 94 93 
3 93 94 102 
3 93 102 101 
3 103 23 105 
3 103 105 104 
3 26 106 107 
3 26 107 108 
3 51 49 3 
3 51 3 8 
3 8 3 53 
3 8 53 55 
3 67 65 5 
3 67 5 6 
3 6 5 69 
3 6 69 71 
3 57 77 7 
3 57 7 4 
3 4 7 79 
3 4 79 61 
3 41 85 9 
3 41 9 2 
3 2 9 87 
3 2 87 45 
3 73 11 10 
3 73 10 95 
3 11 75 97 
3 11 97 10 
3 90 13 12 
3 90 12 99 
3 13 93 101 
3 13 101 12 
3 81 15 14 
3 81 14 104 
3 15 83 107 
3 15 107 14 
3 43 16 17 
3 43 17 109 
3 16 47 111 
3 16 111 17 
3 59 18 19 
3 59 19 113 
3 18 63 115 
3 18 115 19 
3 77 95 10 
3 77 10 7 
3 7 10 97 
3 7 97 79 
3 43 41 2 
3 43 2 16 
3 16 2 45 
3 16 45 47 
3 59 57 4 
3 59 4 18 
3 18 4 61 
3 18 61 63 
3 85 99 12 
3 85 12 9 
3 9 12 101 
3 9 101 87 
3 1 103 104 
3 1 104 14 
3 1 14 107 
3 1 107 106 
3 65 109 17 
3 65 17 5 
3 5 17 111 
3 5 111 69 
3 73 67 6 
3 73 6 11 
3 11 6 71 
3 11 71 75 
3 49 113 19 
3 49 19 3 
3 3 19 115 
3 3 115 53 
3 81 51 8 
3 81 8 15 
3 15 8 55 
3 15 55 83 
3 90 89 0 
3 90 0 13 
3 13 0 92 
3 13 92 93 
3 42 44 34 
3 48 46 27 
3 50 52 33 
3 50 33 35 
3 56 54 29 
3 56 29 28 
3 58 60 35 
3 64 62 29 
3 66 68 31 
3 66 31 34 
3 72 70 27 
3 72 27 30 
3 68 74 31 
3 76 72 30 
3 78 58 35 
3 78 35 31 
3 62 80 30 
3 62 30 29 
3 52 82 33 
3 84 56 28 
3 86 42 34 
3 86 34 32 
3 46 88 25 
3 46 25 27 
3 20 91 32 
3 94 24 25 
3 96 78 31 
3 74 96 31 
3 80 98 30 
3 98 76 30 
3 100 86 32 
3 91 100 32 
3 88 102 25 
3 102 94 25 
3 105 23 33 
3 82 105 33 
3 26 108 28 
3 108 84 28 
3 110 66 34 
3 44 110 34 
3 70 112 27 
3 112 48 27 
3 114 50 35 
3 60 114 35 
3 54 116 29 
3 116 64 29 
3 22 103 1 
3 1 106 22 
3 21 89 20 
3 24 92 21 
3 132 121 120 
3 132 120 122 
3 117 285 286 
3 117 286 118 
3 119 287 285 
3 119 285 117 
3 132 122 288 
3 132 288 131 
3 123 126 127 
3 123 127 124 
3 199 200 128 
3 199 128 125 
3 128 129 130 
3 128 130 125 
3 289 290 291 
3 292 121 132 
3 292 132 131 
3 135 133 134 
3 135 134 136 
3 136 134 138 
3 136 138 137 
3 168 143 142 
3 168 142 167 
3 144 167 142 
3 139 293 294 
3 139 294 140 
3 141 295 293 
3 141 293 139 
3 294 296 169 
3 294 169 140 
3 165 174 163 
3 174 151 163 
3 173 152 187 
3 173 187 146 
3 174 145 151 
3 161 148 197 
3 161 197 198 
3 161 150 148 
3 297 298 154 
3 186 155 154 
3 186 154 298 
3 299 300 153 
3 299 153 156 
3 196 301 302 
3 189 297 154 
3 189 154 191 
3 158 147 177 
3 158 177 181 
3 191 181 178 
3 191 178 188 
3 302 303 159 
3 302 159 157 
3 149 147 158 
3 149 158 160 
3 164 152 173 
3 299 156 304 
3 299 304 305 
3 155 186 166 
3 166 186 306 
3 166 306 307 
3 308 162 309 
3 180 162 173 
3 180 173 179 
3 173 146 310 
3 173 310 190 
3 190 179 173 
3 311 309 180 
3 170 312 313 
3 171 170 313 
3 171 313 314 
3 315 133 135 
3 315 135 172 
3 167 144 316 
3 167 316 175 
3 312 170 176 
3 312 176 317 
3 318 168 167 
3 318 167 175 
3 319 181 177 
3 178 181 320 
3 320 181 319 
3 182 184 185 
3 185 184 183 
3 186 298 306 
3 321 191 188 
3 189 191 321 
3 171 322 176 
3 171 176 170 
3 193 195 194 
3 194 195 192 
3 183 323 324 
3 153 300 325 
3 153 325 326 
3 196 153 326 
3 196 326 195 
3 193 196 195 
3 192 195 326 
3 192 326 327 
3 145 174 198 
3 145 198 184 
3 198 197 328 
3 198 328 323 
3 198 323 183 
3 198 183 184 
3 184 182 145 
3 196 193 301 
3 124 127 200 
3 124 200 199 
3 329 330 290 
3 329 290 289 
3 330 331 332 
3 330 332 290 
3 180 309 162 
3 196 302 157 
3 173 333 164 
3 216 206 204 
3 216 204 205 
3 201 202 334 
3 201 334 335 
3 203 201 335 
3 203 335 336 
3 216 215 337 
3 216 337 206 
3 207 208 211 
3 207 211 210 
3 283 209 212 
3 283 212 284 
3 212 209 214 
3 212 214 213 
3 338 339 340 
3 341 215 216 
3 341 216 205 
3 219 220 218 
3 219 218 217 
3 220 221 222 
3 220 222 218 
3 252 251 226 
3 252 226 227 
3 228 226 251 
3 223 224 342 
3 223 342 343 
3 225 223 343 
3 225 343 344 
3 342 224 253 
3 342 253 345 
3 249 247 258 
3 249 258 174 
3 249 174 165 
3 258 247 235 
3 257 230 271 
3 257 271 236 
3 258 235 229 
3 245 282 281 
3 245 281 232 
3 245 232 234 
3 346 238 347 
3 270 347 238 
3 270 238 239 
3 348 240 237 
3 348 237 349 
3 280 350 351 
3 273 275 238 
3 273 238 346 
3 242 265 261 
3 242 261 231 
3 275 265 242 
3 275 242 238 
3 350 241 243 
3 350 243 352 
3 233 244 242 
3 233 242 231 
3 248 257 236 
3 348 353 354 
3 348 354 240 
3 239 250 270 
3 250 355 356 
3 250 356 270 
3 357 358 246 
3 264 263 257 
3 264 257 246 
3 257 274 359 
3 257 359 230 
3 360 264 358 
3 272 274 257 
3 272 257 263 
3 272 263 262 
3 254 361 362 
3 255 363 361 
3 255 361 254 
3 364 256 219 
3 364 219 217 
3 251 259 365 
3 251 365 228 
3 362 366 260 
3 362 260 254 
3 282 198 174 
3 282 174 258 
3 367 259 251 
3 367 251 252 
3 368 261 265 
3 369 370 265 
3 370 368 265 
3 266 269 268 
3 269 267 268 
3 270 356 347 
3 371 372 275 
3 273 371 275 
3 255 254 260 
3 255 260 373 
3 277 278 279 
3 278 276 279 
3 267 374 375 
3 237 376 377 
3 237 377 349 
3 280 279 376 
3 280 376 237 
3 277 279 280 
3 276 378 376 
3 276 376 279 
3 229 268 282 
3 229 282 258 
3 282 375 379 
3 282 379 281 
3 282 268 267 
3 282 267 375 
3 268 229 266 
3 280 351 277 
3 208 283 284 
3 208 284 211 
3 380 338 340 
3 380 340 381 
3 381 340 382 
3 381 382 383 
3 264 246 358 
3 280 241 350 
3 173 257 248 
3 173 248 384 
3 173 384 333 
3 162 246 257 
3 162 257 173 
3 198 282 245 
3 198 245 161 
3 160 158 242 
3 160 242 244 
3 158 154 238 
3 158 238 242 
3 154 155 239 
3 154 239 238 
3 155 166 250 
3 155 250 239 
3 304 156 240 
3 304 240 354 
3 156 153 237 
3 156 237 240 
3 153 196 280 
3 153 280 237 
3 196 157 241 
3 196 241 280 
3 157 159 243 
3 157 243 241 
3 385 386 179 
3 385 179 190 
3 191 154 158 
3 191 158 181 
3 275 372 369 
3 275 369 265 
3 162 308 150 
3 162 150 161 
3 149 160 159 
3 149 159 303 
3 160 244 243 
3 160 243 159 
3 244 233 352 
3 244 352 243 
3 357 246 245 
3 357 245 234 
3 246 162 161 
3 246 161 245 
