ply
format ascii 1.0
comment TextureFile Dungeons_2_Texture_01_A.png
element vertex 326
property float x
property float y
property float z
property float nx
property float ny
property float nz
property uchar red
property uchar green
property uchar blue
property uchar alpha
property float texture_u
property float texture_v
element face 314
property list uchar int vertex_indices
end_header
1.6e-05 500 30.54131 -0.0002149275 0.0002149275 1 192 192 192 255 0.125558 0.974690
1.7e-05 322.6448 30.54131 -0.3270379 -0.1787266 0.9279563 192 192 192 255 0.008763 0.900425
99.27448 322.6448 30.54131 6.363669e-05 -0.0003483983 1 192 192 192 255 0.051775 0.900425
187.5126 372.5106 30.54131 0.0001441705 -0.0003883471 1 192 192 192 255 0.090005 0.922030
2e-05 357.7455 30.5413 -0.5682302 0.3020014 0.7654474 192 192 192 255 0.008763 0.915633
1.7e-05 475.9546 30.54131 -0.0006448036 -0.0001142329 0.9999998 192 192 192 255 0.013066 0.723728
92.68567 357.7455 30.54131 -0.0895128 0.1676029 0.9817824 192 192 192 255 0.048920 0.915633
193.4564 411.7177 30.54131 -0.09506556 0.1737012 0.9801992 192 192 192 255 0.092580 0.939016
193.4564 475.9546 30.54131 -0.0001080745 -0.0002282346 1 192 192 192 255 0.094138 0.723728
1.7e-05 373.064 20.93003 -0.0005174231 6.874966e-05 0.9999999 192 192 192 255 0.013066 0.680610
88.26746 373.064 20.93003 -0.05012263 0.09369621 0.9943384 192 192 192 255 0.050057 0.680610
1.7e-05 460.6361 20.93003 -0.0005172995 -0.0001374665 0.9999999 192 192 192 255 0.013066 0.717309
176.9564 420.5652 20.93003 -0.2478317 0.4620726 0.8515095 192 192 192 255 0.087224 0.700516
176.9564 460.6361 20.93003 -0.2135151 -0.1127267 0.9704144 192 192 192 255 0.087224 0.717309
187.5126 362.1813 23.80071 1.121132e-05 -6.135953e-05 1 192 192 192 255 0.091647 0.676049
99.27448 312.3155 23.80071 6.382664e-05 -0.0001721057 1 192 192 192 255 0.054669 0.655152
1.7e-05 312.3155 23.80071 -0.8106101 -0.2214998 0.5420786 192 192 192 255 0.013066 0.655152
159.8589 246.7154 7.295292 0.2357023 -0.2357023 0.9428091 192 192 192 255 0.078024 0.867527
142.9716 260.9771 7.295292 0.5732334 -0.510079 0.6412666 192 192 192 255 0.070707 0.873706
129.5757 0 23.80071 0.2107438 -0.0002696991 0.9775413 192 192 192 255 0.064903 0.760635
142.9716 0 7.295292 0.80551 -0.008864157 0.5925159 192 192 192 255 0.070707 0.760635
159.8589 0 7.295292 0.6666667 -0.6666667 0.3333333 192 192 192 255 0.078024 0.760635
1.7e-05 258.7374 23.80071 -0.6805921 0.1110474 0.7241981 192 192 192 255 0.008763 0.872736
66.41073 0 23.80071 4.276283e-05 -0.0001173081 1 192 192 192 255 0.037536 0.760635
66.41075 207.579 23.80071 6.165286e-05 4.409975e-05 1 192 192 192 255 0.037536 0.850571
1.7e-05 240.9975 33.01601 -0.5254413 0.1961008 0.8279226 192 192 192 255 0.008763 0.865050
1.7e-05 0 33.01601 -0.6666667 -0.6666667 0.3333333 192 192 192 255 0.008763 0.760635
52.31075 200.7457 33.016 0.3746026 0.1139957 0.9201511 192 192 192 255 0.031427 0.847610
52.31073 0 33.01601 0.1556868 -0.5691494 0.8073603 192 192 192 255 0.031427 0.760635
129.5757 274.7197 23.80071 0.0377429 -0.03253043 0.9987578 192 192 192 255 0.064903 0.879660
1.6e-05 500 -30.54131 -0.0005898628 0.0005898628 -0.9999996 192 192 192 255 0.099094 0.974690
1.7e-05 322.6448 -30.54131 -0.3270379 -0.1787266 -0.9279563 192 192 192 255 0.013628 0.836812
99.27448 322.6448 -30.54131 0.05162556 -0.2825709 -0.9578562 192 192 192 255 0.056640 0.836812
187.5126 372.5106 -30.54131 0.1036065 -0.2792713 -0.9546064 192 192 192 255 0.094871 0.815207
2e-05 357.7455 -30.5413 -0.5682302 0.3020014 -0.7654474 192 192 192 255 0.013628 0.821604
1.7e-05 475.9546 -30.54131 -0.004722695 -0.237194 -0.9714509 192 192 192 255 0.099094 0.964272
92.68567 357.7455 -30.54131 -0.08605021 0.2529511 -0.9636447 192 192 192 255 0.053786 0.821604
193.4564 411.7177 -30.54131 -0.1629905 0.06010839 -0.984795 192 192 192 255 0.097446 0.798220
193.4564 475.9546 -30.54131 -0.0002751564 -0.2367098 -0.9715804 192 192 192 255 0.094988 0.531494
1.7e-05 373.064 -20.93003 -0.0005174231 6.874966e-05 -0.9999999 192 192 192 255 0.013916 0.574613
88.26746 373.064 -20.93003 -3.203607e-05 0.0001972476 -1 192 192 192 255 0.050906 0.574613
1.7e-05 460.6361 -20.93003 -0.0001648817 -0.2131104 -0.9770281 192 192 192 255 0.103258 0.957635
176.9564 420.5652 -20.93003 -0.2616532 0.2423616 -0.9342368 192 192 192 255 0.088073 0.554706
176.9564 460.6361 -20.93003 -0.0002505417 -0.5310596 -0.8473344 192 192 192 255 0.088073 0.537914
187.5126 362.1813 -23.80071 6.105221e-05 -0.0003342402 -0.9999999 192 192 192 255 0.092497 0.579173
99.27448 312.3155 -23.80071 6.382664e-05 -0.0001721057 -1 192 192 192 255 0.055519 0.600070
1.7e-05 312.3155 -23.80071 -0.9009595 -0.1641252 -0.4016653 192 192 192 255 0.102014 0.893373
159.8589 246.7154 -7.295292 0.4082483 -0.4082483 -0.8164966 192 192 192 255 0.082889 0.869709
142.9716 260.9771 -7.295292 0.8313214 -0.0001615554 -0.555792 192 192 192 255 0.075573 0.863530
129.5757 0 -23.80071 0.4841905 -0.005877252 -0.8749429 192 192 192 255 0.100517 0.773091
142.9716 0 -7.295292 0.7762783 -0.0005406421 -0.6303902 192 192 192 255 0.103379 0.767287
159.8589 -0 -7.295292 0.5773503 -0.5773503 -0.5773503 192 192 192 255 0.103379 0.759971
1.7e-05 258.7374 -23.80071 -0.6805921 0.1110474 -0.7241981 192 192 192 255 0.102014 0.870160
66.41073 0 -23.80071 4.739657e-05 -0.0001300962 -1 192 192 192 255 0.100517 0.800458
66.41075 207.579 -23.80071 5.760613e-05 4.127115e-05 -1 192 192 192 255 0.042402 0.886666
1.7e-05 240.9975 -33.01601 -0.5254413 0.1961008 -0.8279226 192 192 192 255 0.098021 0.862474
1.7e-05 0 -33.01601 -0.5773503 -0.5773503 -0.5773503 192 192 192 255 0.098021 0.758059
52.31075 200.7457 -33.016 0.3746026 0.1139957 -0.9201511 192 192 192 255 0.036293 0.889626
52.31073 -0 -33.01601 0.1108718 -0.8106355 -0.5749588 192 192 192 255 0.096524 0.806567
129.5757 274.7197 -23.80071 0.04849535 -6.434281e-05 -0.9988234 192 192 192 255 0.069769 0.857576
500.0001 500 30.54131 0.0002148813 0.0004297626 0.9999999 192 192 192 255 0.129405 0.758059
500.0001 322.6448 30.54131 0.3270379 -0.1787267 0.9279563 192 192 192 255 0.225394 0.900425
400.7256 322.6448 30.54131 -0.000762918 -0.00417581 0.999991 192 192 192 255 0.182382 0.900425
312.4875 372.5106 30.54131 -0.0001439221 -0.0005212126 0.9999999 192 192 192 255 0.144152 0.922030
500.0001 357.7455 30.5413 0.5682303 0.3020015 0.7654473 192 192 192 255 0.225394 0.915633
500.0001 475.9546 30.54131 0.0006448036 -0.0001142328 0.9999998 192 192 192 255 0.222602 0.723728
407.3145 357.7455 30.54131 7.83262e-05 0.0002302458 1 192 192 192 255 0.185237 0.915633
306.5437 411.7177 30.54131 0.0003450351 0.0001272435 0.9999999 192 192 192 255 0.141577 0.939016
306.5437 475.9546 30.54131 0.0001080745 -0.0002282347 1 192 192 192 255 0.141530 0.723728
500.0001 373.064 20.93003 0.0005174232 6.874968e-05 0.9999999 192 192 192 255 0.222602 0.680610
411.7327 373.064 20.93003 3.203607e-05 0.0001972477 1 192 192 192 255 0.185611 0.680610
500.0001 460.6361 20.93003 0.0005172996 -0.0001374665 0.9999999 192 192 192 255 0.222602 0.717309
323.0437 420.5652 20.93003 0.2616532 0.2423616 0.9342368 192 192 192 255 0.148444 0.700516
323.0437 460.6361 20.93003 0.213515 -0.1127268 0.9704143 192 192 192 255 0.148444 0.717309
312.4875 362.1813 23.80071 -1.446757e-05 -5.237237e-05 1 192 192 192 255 0.144021 0.676049
400.7256 312.3155 23.80071 -0.0001336121 -0.0003602594 0.9999999 192 192 192 255 0.180999 0.655152
500.0001 312.3155 23.80071 0.8106101 -0.2214998 0.5420786 192 192 192 255 0.222602 0.655152
340.1412 246.7154 7.295292 -0.2672613 -0.5345225 0.8017837 192 192 192 255 0.156134 0.867527
357.0285 260.9771 7.295292 0.01111534 -0.8069211 0.5905547 192 192 192 255 0.163450 0.873706
370.4244 0 23.80071 -0.3820604 -0.7380863 0.5561101 192 192 192 255 0.169254 0.760635
357.0285 0 7.295292 -0.1910302 -0.7380863 0.6470982 192 192 192 255 0.163450 0.760635
340.1412 0 7.295292 -0.6666667 -0.6666667 0.3333333 192 192 192 255 0.156134 0.760635
500.0001 258.7374 23.80071 0.6805921 0.1110473 0.724198 192 192 192 255 0.225394 0.872736
433.5894 0 23.80071 -0.5468236 -0.0008576625 0.8372474 192 192 192 255 0.196621 0.760635
433.5894 207.579 23.80071 -0.3186491 9.072432e-05 0.9478728 192 192 192 255 0.196621 0.850571
500.0001 240.9975 33.01601 0.0001847526 6.897899e-05 1 192 192 192 255 0.225394 0.865050
500.0001 0 33.01601 9.216525e-05 -9.220429e-05 1 192 192 192 255 0.225394 0.760635
447.6894 200.7457 33.016 -0.01974113 2.958373e-05 0.9998052 192 192 192 255 0.202730 0.847610
447.6894 -0 33.01601 -0.3244483 -0.0002698402 0.9459034 192 192 192 255 0.202730 0.760635
370.4244 274.7197 23.80071 -5.019241e-05 -0.1154646 0.9933116 192 192 192 255 0.169254 0.879660
500.0001 500 -30.54131 0.0004297626 0.0002148813 -0.9999999 192 192 192 255 0.155870 0.758059
500.0001 322.6448 -30.54131 0.3270379 -0.1787267 -0.9279563 192 192 192 255 0.230260 0.836812
400.7256 322.6448 -30.54131 -0.0008534545 -0.003090777 -0.9999949 192 192 192 255 0.187248 0.836812
312.4875 372.5106 -30.54131 -0.0001437 -0.0005204089 -0.9999999 192 192 192 255 0.149017 0.815207
500.0001 357.7455 -30.5413 0.5682303 0.3020015 -0.7654473 192 192 192 255 0.230260 0.821604
500.0001 475.9546 -30.54131 0.0006448036 -0.0001142328 -0.9999998 192 192 192 255 0.207501 0.966184
407.3145 357.7455 -30.54131 7.71073e-05 0.0002266628 -1 192 192 192 255 0.190102 0.821604
306.5437 411.7177 -30.54131 0.0003450351 0.0001272435 -0.9999999 192 192 192 255 0.146442 0.798220
306.5437 475.9546 -30.54131 0.0001080745 -0.0002282347 -1 192 192 192 255 0.146442 0.770389
500.0001 373.064 -20.93003 0.0005174232 6.874968e-05 -0.9999999 192 192 192 255 0.223451 0.574613
411.7327 373.064 -20.93003 3.203607e-05 0.0001972477 -1 192 192 192 255 0.186461 0.574613
500.0001 460.6361 -20.93003 0.0002586498 -0.0001374665 -1 192 192 192 255 0.203337 0.959547
323.0437 420.5652 -20.93003 0.2616532 0.2423616 -0.9342368 192 192 192 255 0.149294 0.554706
323.0437 460.6361 -20.93003 0.213515 -0.1127268 -0.9704143 192 192 192 255 0.149294 0.537914
312.4875 362.1813 -23.80071 -0.05135927 -0.1859973 -0.9812071 192 192 192 255 0.144870 0.579173
400.7256 312.3155 -23.80071 -6.679555e-05 -0.000242049 -1 192 192 192 255 0.181848 0.600070
500.0001 312.3155 -23.80071 0.9009595 -0.1641252 -0.4016652 192 192 192 255 0.204581 0.895285
340.1412 246.7154 -7.295292 -0.5345225 -0.2672613 -0.8017837 192 192 192 255 0.160999 0.869709
357.0285 260.9771 -7.295292 -0.2987796 -0.1478582 -0.9427984 192 192 192 255 0.168315 0.863530
370.4244 0 -23.80071 -0.3820604 -0.7380863 -0.5561101 192 192 192 255 0.069375 0.816111
357.0285 0 -7.295292 -0.1910302 -0.7380863 -0.6470982 192 192 192 255 0.072237 0.821915
340.1412 -0 -7.295292 -0.5773503 -0.5773503 -0.5773503 192 192 192 255 0.072237 0.829231
500.0001 258.7374 -23.80071 0.6805921 0.1110473 -0.724198 192 192 192 255 0.204581 0.872072
433.5894 0 -23.80071 -0.5468585 -0.0007429575 -0.8372247 192 192 192 255 0.069375 0.788744
433.5894 207.579 -23.80071 -0.1946405 0.0001346425 -0.9808747 192 192 192 255 0.201486 0.886666
500.0001 240.9975 -33.01601 0.0001847526 6.897899e-05 -1 192 192 192 255 0.208574 0.864386
500.0001 0 -33.01601 4.656343e-05 -4.662457e-05 -1 192 192 192 255 0.208574 0.759971
447.6894 200.7457 -33.016 -0.01129485 3.222459e-05 -0.9999362 192 192 192 255 0.207595 0.889626
447.6894 -0 -33.01601 -0.1374453 -0.001087819 -0.9905088 192 192 192 255 0.065382 0.782635
370.4244 274.7197 -23.80071 -0.0001758184 -0.0003481071 -1 192 192 192 255 0.169150 0.615826
324.4979 365.7232 30.54131 -0.04345332 -0.1435681 0.988686 192 192 192 255 0.149356 0.919089
390.8526 328.2243 30.54131 -0.07725265 -0.07595133 0.9941144 192 192 192 255 0.178105 0.902842
354.9953 338.159 23.80071 -0.167648 -0.2966545 0.9401544 192 192 192 255 0.161834 0.665982
366.5465 353.0168 30.54131 -0.07655419 -0.1354633 0.9878204 192 192 192 255 0.167574 0.913584
447.6894 169.2932 33.016 -0.2438073 -0.01211439 0.9697481 192 192 192 255 0.202730 0.833983
447.6894 63.70683 33.01601 -0.05782474 0.006628752 0.9983048 192 192 192 255 0.202730 0.788236
461.1242 117.1971 33.016 -0.07118492 3.559335e-08 0.9974632 192 192 192 255 0.208551 0.811412
441.2771 118.8882 28.82518 -0.3793117 2.504213e-08 0.9252689 192 192 192 255 0.199952 0.812145
129.5757 142.0337 23.80071 0.2113311 -0.00219207 0.9774121 192 192 192 255 0.064903 0.822172
129.5757 240.88 23.80071 0.2354849 0.007272034 0.9718508 192 192 192 255 0.064903 0.864999
137.285 203.1019 19.99881 0.807899 -8.799561e-11 0.589321 192 192 192 255 0.070598 0.609384
120.7897 206.4011 23.80071 0.01867739 0 0.9998255 192 192 192 255 0.061097 0.850061
137.2852 203.1019 19.99878 0.2245947 0 0.9744523 192 192 192 255 0.062849 0.776338
15.67517 475.9547 -30.54131 1.073789e-08 -0.2548872 -0.9669708 192 192 192 255 0.020485 0.531494
148.4046 475.9546 -30.54131 -5.765154e-09 -0.3640723 -0.9313707 192 192 192 255 0.076108 0.531494
63.01372 485.4635 -30.54131 0 0 -1 192 192 192 255 0.040930 0.766269
73.35535 469.4429 -26.45567 -1.218728e-07 -0.5314763 -0.8470733 192 192 192 255 0.044657 0.534223
68.79433 475.9547 -30.54131 -5.681727e-08 -0.247114 -0.9689865 192 192 192 255 0.043434 0.770389
383.0243 332.6483 -30.54131 -0.06629996 -0.06962164 -0.9953679 192 192 192 255 0.179578 0.832478
324.6611 365.631 -30.54131 -0.03192151 -0.1528095 -0.98774 192 192 192 255 0.154292 0.818188
348.3856 341.8943 -23.80071 -0.1691629 -0.2993352 -0.9390327 192 192 192 255 0.164571 0.828472
355.0602 359.3084 -30.54131 3.083286e-07 5.455901e-07 -1 192 192 192 255 0.167463 0.820927
355.0601 359.3084 -30.54132 -0.1688783 -0.2988316 -0.9392443 192 192 192 255 0.167463 0.820927
129.5757 239.6377 -23.80071 0.2175919 0.003713889 -0.9760328 192 192 192 255 0.069769 0.872776
129.5757 116.2015 -23.80071 0.04689446 0.003122855 -0.998895 192 192 192 255 0.069769 0.926256
117.9668 174.3231 -23.80071 0.02195436 0 -0.999759 192 192 192 255 0.064739 0.901074
137.4699 178.1919 -19.90766 0.6484742 -3.752513e-09 -0.7612367 192 192 192 255 0.071525 0.656278
447.6894 54.84332 -33.01601 -0.1741854 0.005739111 -0.9846962 192 192 192 255 0.207595 0.952840
447.6894 184.2516 -33.016 -0.4050615 -0.03217079 -0.9137233 192 192 192 255 0.207595 0.896772
437.6509 140.7981 -26.45519 -0.4462971 -2.850787e-08 -0.8948848 192 192 192 255 0.203246 0.915599
459.0896 148.2409 -33.016 -0.0946347 2.551187e-08 -0.9955121 192 192 192 255 0.212535 0.912374
262.2339 274.7197 23.80071 0.001473399 -0.1159223 0.9932572 192 192 192 255 0.122961 0.639396
158.742 274.7197 23.80071 -0.004195692 -0.165349 0.9862262 192 192 192 255 0.079590 0.639396
217.1292 284.881 23.80071 0 -0.04082965 0.9991661 192 192 192 255 0.102837 0.884063
209.3113 266.5942 19.89466 -1.012323e-09 -0.6954503 0.7185742 192 192 192 255 0.100783 0.635991
184.5043 406.923 30.54131 -0.1266968 0.1990893 0.9717569 192 192 192 255 0.088702 0.936939
112.1294 368.1594 30.54131 -0.09490487 0.2076412 0.9735904 192 192 192 255 0.057344 0.920145
142.7007 397.3862 23.55603 -0.2081785 0.388687 0.8975434 192 192 192 255 0.072868 0.690803
147.2288 376.9236 30.54131 -0.03903735 0.07288603 0.9965761 192 192 192 255 0.072552 0.923942
2e-05 357.7455 30.5413 -0.5682302 0.3020014 0.7654474 192 192 192 255 0.013066 0.674191
92.68567 357.7455 30.54131 -0.0895128 0.1676029 0.9817824 192 192 192 255 0.051908 0.674191
193.4564 411.7177 30.54131 -0.09506556 0.1737012 0.9801992 192 192 192 255 0.094138 0.696808
184.5043 406.923 30.54131 -0.1266968 0.1990893 0.9717569 192 192 192 255 0.090387 0.694799
112.1294 368.1594 30.54131 -0.09490487 0.2076412 0.9735904 192 192 192 255 0.060056 0.678555
187.5126 372.5106 30.54131 0.0001441705 -0.0003883471 1 192 192 192 255 0.091647 0.680378
99.27448 322.6448 30.54131 6.363669e-05 -0.0003483983 1 192 192 192 255 0.054669 0.659480
1.7e-05 322.6448 30.54131 -0.3270379 -0.1787266 0.9279563 192 192 192 255 0.013066 0.659480
99.27448 312.3155 23.80071 6.382664e-05 -0.0001721057 1 192 192 192 255 0.051775 0.895949
1.7e-05 312.3155 23.80071 -0.8106101 -0.2214998 0.5420786 192 192 192 255 0.008763 0.895949
2e-05 357.7455 30.5413 -0.5682302 0.3020014 0.7654474 192 192 192 255 0.125558 0.913057
1.7e-05 373.064 20.93003 -0.0005174231 6.874966e-05 0.9999999 192 192 192 255 0.121394 0.919694
1.7e-05 312.3155 23.80071 -0.8106101 -0.2214998 0.5420786 192 192 192 255 0.122638 0.893373
1.7e-05 322.6448 30.54131 -0.3270379 -0.1787266 0.9279563 192 192 192 255 0.125558 0.897849
1.7e-05 475.9546 30.54131 -0.0006448036 -0.0001142329 0.9999998 192 192 192 255 0.125558 0.964272
1.7e-05 460.6361 20.93003 -0.0005172995 -0.0001374665 0.9999999 192 192 192 255 0.121394 0.957635
159.8589 0 7.295292 0.6666667 -0.6666667 0.3333333 192 192 192 255 0.118279 0.759971
142.9716 0 7.295292 0.80551 -0.008864157 0.5925159 192 192 192 255 0.118279 0.767287
1.7e-05 258.7374 23.80071 -0.6805921 0.1110474 0.7241981 192 192 192 255 0.122638 0.870160
66.41073 0 23.80071 4.276283e-05 -0.0001173081 1 192 192 192 255 0.121141 0.800458
52.31073 0 33.01601 0.1556868 -0.5691494 0.8073603 192 192 192 255 0.125134 0.806567
129.5757 0 23.80071 0.2107438 -0.0002696991 0.9775413 192 192 192 255 0.121141 0.773091
193.4564 475.9546 30.54131 -0.0001080745 -0.0002282346 1 192 192 192 255 0.092580 0.966848
1.6e-05 500 30.54131 -0.0002149275 0.0002149275 1 192 192 192 255 0.008763 0.977266
1.7e-05 475.9546 30.54131 -0.0006448036 -0.0001142329 0.9999998 192 192 192 255 0.008763 0.966848
1.7e-05 0 33.01601 -0.6666667 -0.6666667 0.3333333 192 192 192 255 0.126631 0.758059
1.7e-05 240.9975 33.01601 -0.5254413 0.1961008 0.8279226 192 192 192 255 0.126631 0.862474
1.6e-05 500 -30.54131 -0.0005898628 0.0005898628 -0.9999996 192 192 192 255 0.155870 0.974690
1.6e-05 500 30.54131 -0.0002149275 0.0002149275 1 192 192 192 255 0.129405 0.974690
187.5126 362.1813 23.80071 1.121132e-05 -6.135953e-05 1 192 192 192 255 0.090005 0.917554
129.5757 274.7197 23.80071 0.0377429 -0.03253043 0.9987578 192 192 192 255 0.067368 0.639396
129.5757 240.88 23.80071 0.2354849 0.007272034 0.9718508 192 192 192 255 0.067368 0.625215
142.9716 260.9771 7.295292 0.5732334 -0.510079 0.6412666 192 192 192 255 0.072981 0.633637
129.5757 0 23.80071 0.2107438 -0.0002696991 0.9775413 192 192 192 255 0.067368 0.524270
142.9716 0 7.295292 0.80551 -0.008864157 0.5925159 192 192 192 255 0.072981 0.524270
129.5757 142.0337 23.80071 0.2113311 -0.00219207 0.9774121 192 192 192 255 0.067368 0.583791
1.7e-05 460.6361 -20.93003 -0.0001648817 -0.2131104 -0.9770281 192 192 192 255 0.013916 0.537914
2e-05 357.7455 -30.5413 -0.5682302 0.3020014 -0.7654474 192 192 192 255 0.013916 0.581032
92.68567 357.7455 -30.54131 -0.08605021 0.2529511 -0.9636447 192 192 192 255 0.052758 0.581032
193.4564 411.7177 -30.54131 -0.1629905 0.06010839 -0.984795 192 192 192 255 0.094988 0.558414
1.7e-05 475.9546 -30.54131 -0.004722695 -0.237194 -0.9714509 192 192 192 255 0.013916 0.531494
187.5126 372.5106 -30.54131 0.1036065 -0.2792713 -0.9546064 192 192 192 255 0.092497 0.574845
99.27448 322.6448 -30.54131 0.05162556 -0.2825709 -0.9578562 192 192 192 255 0.055519 0.595742
1.7e-05 312.3155 -23.80071 -0.9009595 -0.1641252 -0.4016653 192 192 192 255 0.013916 0.600070
1.7e-05 322.6448 -30.54131 -0.3270379 -0.1787266 -0.9279563 192 192 192 255 0.013916 0.595742
159.8589 -0 -7.295292 0.5773503 -0.5773503 -0.5773503 192 192 192 255 0.082889 0.976602
142.9716 0 -7.295292 0.7762783 -0.0005406421 -0.6303902 192 192 192 255 0.075573 0.976602
99.27448 312.3155 -23.80071 6.382664e-05 -0.0001721057 -1 192 192 192 255 0.056640 0.841287
1.7e-05 258.7374 -23.80071 -0.6805921 0.1110474 -0.7241981 192 192 192 255 0.013628 0.864501
1.7e-05 312.3155 -23.80071 -0.9009595 -0.1641252 -0.4016653 192 192 192 255 0.013628 0.841287
2e-05 357.7455 -30.5413 -0.5682302 0.3020014 -0.7654474 192 192 192 255 0.099094 0.913057
1.7e-05 322.6448 -30.54131 -0.3270379 -0.1787266 -0.9279563 192 192 192 255 0.099094 0.897849
1.7e-05 373.064 -20.93003 -0.0005174231 6.874966e-05 -0.9999999 192 192 192 255 0.103258 0.919694
52.31073 -0 -33.01601 0.1108718 -0.8106355 -0.5749588 192 192 192 255 0.036293 0.976602
1.7e-05 0 -33.01601 -0.5773503 -0.5773503 -0.5773503 192 192 192 255 0.013628 0.976602
1.7e-05 240.9975 -33.01601 -0.5254413 0.1961008 -0.8279226 192 192 192 255 0.013628 0.872186
66.41073 0 -23.80071 4.739657e-05 -0.0001300962 -1 192 192 192 255 0.042402 0.976602
129.5757 0 -23.80071 0.4841905 -0.005877252 -0.8749429 192 192 192 255 0.069769 0.976602
193.4564 475.9546 -30.54131 -0.0002751564 -0.2367098 -0.9715804 192 192 192 255 0.097446 0.770389
148.4046 475.9546 -30.54131 -5.765154e-09 -0.3640723 -0.9313707 192 192 192 255 0.077927 0.770389
1.6e-05 500 -30.54131 -0.0005898628 0.0005898628 -0.9999996 192 192 192 255 0.013628 0.759971
1.7e-05 475.9546 -30.54131 -0.004722695 -0.237194 -0.9714509 192 192 192 255 0.013628 0.770389
15.67517 475.9547 -30.54131 1.073789e-08 -0.2548872 -0.9669708 192 192 192 255 0.020420 0.770389
159.8589 0 7.295292 0.6666667 -0.6666667 0.3333333 192 192 192 255 0.162532 0.759971
159.8589 -0 -7.295292 0.5773503 -0.5773503 -0.5773503 192 192 192 255 0.177431 0.759971
159.8589 246.7154 -7.295292 0.4082483 -0.4082483 -0.8164966 192 192 192 255 0.177431 0.866863
159.8589 246.7154 7.295292 0.2357023 -0.2357023 0.9428091 192 192 192 255 0.162532 0.866863
500.0001 500 -30.54131 0.0004297626 0.0002148813 -0.9999999 192 192 192 255 0.230260 0.759971
312.4875 372.5106 -30.54131 -0.0001437 -0.0005204089 -0.9999999 192 192 192 255 0.144870 0.574845
187.5126 362.1813 -23.80071 6.105221e-05 -0.0003342402 -0.9999999 192 192 192 255 0.094871 0.819682
129.5757 274.7197 -23.80071 0.04849535 -6.434281e-05 -0.9988234 192 192 192 255 0.068217 0.615826
142.9716 260.9771 -7.295292 0.8313214 -0.0001615554 -0.555792 192 192 192 255 0.073831 0.621585
129.5757 239.6377 -23.80071 0.2175919 0.003713889 -0.9760328 192 192 192 255 0.068217 0.630527
142.9716 0 -7.295292 0.7762783 -0.0005406421 -0.6303902 192 192 192 255 0.073831 0.730953
129.5757 0 -23.80071 0.4841905 -0.005877252 -0.8749429 192 192 192 255 0.068217 0.730953
129.5757 116.2015 -23.80071 0.04689446 0.003122855 -0.998895 192 192 192 255 0.068217 0.682256
357.0285 260.9771 -7.295292 -0.2987796 -0.1478582 -0.9427984 192 192 192 255 0.163536 0.621585
312.4875 362.1813 -23.80071 -0.05135927 -0.1859973 -0.9812071 192 192 192 255 0.149017 0.819682
370.4244 274.7197 -23.80071 -0.0001758184 -0.0003481071 -1 192 192 192 255 0.174119 0.857576
1.7e-05 0 33.01601 -0.6666667 -0.6666667 0.3333333 192 192 192 255 0.125134 0.829231
1.7e-05 0 -33.01601 -0.5773503 -0.5773503 -0.5773503 192 192 192 255 0.096524 0.829231
500.0001 357.7455 30.5413 0.5682303 0.3020015 0.7654473 192 192 192 255 0.222602 0.674191
407.3145 357.7455 30.54131 7.83262e-05 0.0002302458 1 192 192 192 255 0.183760 0.674191
306.5437 411.7177 30.54131 0.0003450351 0.0001272435 0.9999999 192 192 192 255 0.141530 0.696808
390.8526 328.2243 30.54131 -0.07725265 -0.07595133 0.9941144 192 192 192 255 0.176861 0.661819
400.7256 322.6448 30.54131 -0.000762918 -0.00417581 0.999991 192 192 192 255 0.180999 0.659480
500.0001 322.6448 30.54131 0.3270379 -0.1787267 0.9279563 192 192 192 255 0.222602 0.659480
400.7256 312.3155 23.80071 -0.0001336121 -0.0003602594 0.9999999 192 192 192 255 0.182382 0.895949
500.0001 312.3155 23.80071 0.8106101 -0.2214998 0.5420786 192 192 192 255 0.225394 0.895949
500.0001 357.7455 30.5413 0.5682303 0.3020015 0.7654473 192 192 192 255 0.181037 0.914968
500.0001 322.6448 30.54131 0.3270379 -0.1787267 0.9279563 192 192 192 255 0.181037 0.899760
500.0001 312.3155 23.80071 0.8106101 -0.2214998 0.5420786 192 192 192 255 0.183957 0.895285
500.0001 373.064 20.93003 0.0005174232 6.874968e-05 0.9999999 192 192 192 255 0.185201 0.921605
500.0001 475.9546 30.54131 0.0006448036 -0.0001142328 0.9999998 192 192 192 255 0.181037 0.966184
500.0001 500 -30.54131 0.0004297626 0.0002148813 -0.9999999 192 192 192 255 0.207501 0.976602
500.0001 500 30.54131 0.0002148813 0.0004297626 0.9999999 192 192 192 255 0.181037 0.976602
500.0001 460.6361 20.93003 0.0005172996 -0.0001374665 0.9999999 192 192 192 255 0.185201 0.959547
340.1412 0 7.295292 -0.6666667 -0.6666667 0.3333333 192 192 192 255 0.087136 0.829231
357.0285 0 7.295292 -0.1910302 -0.7380863 0.6470982 192 192 192 255 0.087136 0.821915
500.0001 258.7374 23.80071 0.6805921 0.1110473 0.724198 192 192 192 255 0.183957 0.872072
433.5894 0 23.80071 -0.5468236 -0.0008576625 0.8372474 192 192 192 255 0.089999 0.788744
447.6894 -0 33.01601 -0.3244483 -0.0002698402 0.9459034 192 192 192 255 0.093991 0.782635
370.4244 0 23.80071 -0.3820604 -0.7380863 0.5561101 192 192 192 255 0.089999 0.816111
306.5437 475.9546 30.54131 0.0001080745 -0.0002282347 1 192 192 192 255 0.141577 0.966848
500.0001 475.9546 30.54131 0.0006448036 -0.0001142328 0.9999998 192 192 192 255 0.225394 0.966848
500.0001 500 30.54131 0.0002148813 0.0004297626 0.9999999 192 192 192 255 0.225394 0.977266
500.0001 0 33.01601 9.216525e-05 -9.220429e-05 1 192 192 192 255 0.179965 0.759971
500.0001 240.9975 33.01601 0.0001847526 6.897899e-05 1 192 192 192 255 0.179965 0.864386
159.8589 246.7154 -7.295292 0.4082483 -0.4082483 -0.8164966 192 192 192 255 0.127667 0.838080
340.1412 246.7154 -7.295292 -0.5345225 -0.2672613 -0.8017837 192 192 192 255 0.127667 0.759971
340.1412 246.7154 7.295292 -0.2672613 -0.5345225 0.8017837 192 192 192 255 0.142566 0.759971
159.8589 246.7154 7.295292 0.2357023 -0.2357023 0.9428091 192 192 192 255 0.142566 0.838080
312.4875 372.5106 30.54131 -0.0001439221 -0.0005212126 0.9999999 192 192 192 255 0.144021 0.680378
312.4875 362.1813 23.80071 -1.446757e-05 -5.237237e-05 1 192 192 192 255 0.144152 0.917554
354.9953 338.159 23.80071 -0.167648 -0.2966545 0.9401544 192 192 192 255 0.162569 0.907146
357.0285 260.9771 7.295292 0.01111534 -0.8069211 0.5905547 192 192 192 255 0.162686 0.633637
357.0285 0 7.295292 -0.1910302 -0.7380863 0.6470982 192 192 192 255 0.162686 0.524270
370.4244 0 23.80071 -0.3820604 -0.7380863 0.5561101 192 192 192 255 0.168300 0.524270
370.4244 274.7197 23.80071 -5.019241e-05 -0.1154646 0.9933116 192 192 192 255 0.168300 0.639396
158.742 274.7197 23.80071 -0.004195692 -0.165349 0.9862262 192 192 192 255 0.077540 0.879660
262.2339 274.7197 23.80071 0.001473399 -0.1159223 0.9932572 192 192 192 255 0.122379 0.879660
500.0001 460.6361 -20.93003 0.0002586498 -0.0001374665 -1 192 192 192 255 0.223451 0.537914
500.0001 357.7455 -30.5413 0.5682303 0.3020015 -0.7654473 192 192 192 255 0.223451 0.581032
407.3145 357.7455 -30.54131 7.71073e-05 0.0002266628 -1 192 192 192 255 0.184609 0.581032
306.5437 411.7177 -30.54131 0.0003450351 0.0001272435 -0.9999999 192 192 192 255 0.142379 0.558414
306.5437 475.9546 -30.54131 0.0001080745 -0.0002282347 -1 192 192 192 255 0.142379 0.531494
500.0001 475.9546 -30.54131 0.0006448036 -0.0001142328 -0.9999998 192 192 192 255 0.223451 0.531494
400.7256 322.6448 -30.54131 -0.0008534545 -0.003090777 -0.9999949 192 192 192 255 0.181848 0.595742
500.0001 322.6448 -30.54131 0.3270379 -0.1787267 -0.9279563 192 192 192 255 0.223451 0.595742
500.0001 312.3155 -23.80071 0.9009595 -0.1641252 -0.4016652 192 192 192 255 0.223451 0.600070
357.0285 0 -7.295292 -0.1910302 -0.7380863 -0.6470982 192 192 192 255 0.168315 0.976602
340.1412 -0 -7.295292 -0.5773503 -0.5773503 -0.5773503 192 192 192 255 0.160999 0.976602
400.7256 312.3155 -23.80071 -6.679555e-05 -0.000242049 -1 192 192 192 255 0.187248 0.841287
500.0001 312.3155 -23.80071 0.9009595 -0.1641252 -0.4016652 192 192 192 255 0.230260 0.841287
500.0001 258.7374 -23.80071 0.6805921 0.1110473 -0.724198 192 192 192 255 0.230260 0.864501
500.0001 357.7455 -30.5413 0.5682303 0.3020015 -0.7654473 192 192 192 255 0.207501 0.914968
500.0001 373.064 -20.93003 0.0005174232 6.874968e-05 -0.9999999 192 192 192 255 0.203337 0.921605
500.0001 322.6448 -30.54131 0.3270379 -0.1787267 -0.9279563 192 192 192 255 0.207501 0.899760
500.0001 240.9975 -33.01601 0.0001847526 6.897899e-05 -1 192 192 192 255 0.230260 0.872186
500.0001 0 -33.01601 4.656343e-05 -4.662457e-05 -1 192 192 192 255 0.230260 0.976602
447.6894 -0 -33.01601 -0.1374453 -0.001087819 -0.9905088 192 192 192 255 0.207595 0.976602
433.5894 0 -23.80071 -0.5468585 -0.0007429575 -0.8372247 192 192 192 255 0.201486 0.976602
370.4244 0 -23.80071 -0.3820604 -0.7380863 -0.5561101 192 192 192 255 0.174119 0.976602
500.0001 475.9546 -30.54131 0.0006448036 -0.0001142328 -0.9999998 192 192 192 255 0.230260 0.770389
340.1412 0 7.295292 -0.6666667 -0.6666667 0.3333333 192 192 192 255 0.159999 0.759971
340.1412 246.7154 7.295292 -0.2672613 -0.5345225 0.8017837 192 192 192 255 0.159999 0.866863
340.1412 246.7154 -7.295292 -0.5345225 -0.2672613 -0.8017837 192 192 192 255 0.145099 0.866863
340.1412 -0 -7.295292 -0.5773503 -0.5773503 -0.5773503 192 192 192 255 0.145099 0.759971
370.4244 0 -23.80071 -0.3820604 -0.7380863 -0.5561101 192 192 192 255 0.169150 0.730953
357.0285 0 -7.295292 -0.1910302 -0.7380863 -0.6470982 192 192 192 255 0.163536 0.730953
500.0001 0 -33.01601 4.656343e-05 -4.662457e-05 -1 192 192 192 255 0.065382 0.759971
500.0001 0 33.01601 9.216525e-05 -9.220429e-05 1 192 192 192 255 0.093991 0.759971
324.4979 365.7232 30.54131 -0.04345332 -0.1435681 0.988686 192 192 192 255 0.149054 0.677534
137.285 203.1019 19.99881 0.807899 -8.799561e-11 0.589321 192 192 192 255 0.062849 0.776338
129.5757 240.88 23.80071 0.2354849 0.007272034 0.9718508 192 192 192 255 0.059509 0.759971
137.2852 203.1019 19.99878 0.2245947 0 0.9744523 192 192 192 255 0.068244 0.848631
129.5757 142.0337 23.80071 0.2113311 -0.00219207 0.9774121 192 192 192 255 0.059509 0.802797
73.35535 469.4429 -26.45567 -1.218728e-07 -0.5314763 -0.8470733 192 192 192 255 0.045411 0.773210
348.3856 341.8943 -23.80071 -0.1691629 -0.2993352 -0.9390327 192 192 192 255 0.159914 0.587675
383.0243 332.6483 -30.54131 -0.06629996 -0.06962164 -0.9953679 192 192 192 255 0.174430 0.591550
324.6611 365.631 -30.54131 -0.03192151 -0.1528095 -0.98774 192 192 192 255 0.149972 0.577728
324.6611 365.631 -30.54131 -0.03192151 -0.1528095 -0.98774 192 192 192 255 0.056975 0.773142
355.0602 359.3084 -30.54131 3.083286e-07 5.455901e-07 -1 192 192 192 255 0.056975 0.759971
355.0601 359.3084 -30.54132 -0.1688783 -0.2988316 -0.9392443 192 192 192 255 0.056975 0.759971
137.4699 178.1919 -19.90766 0.6484742 -3.752513e-09 -0.7612367 192 192 192 255 0.073189 0.899398
209.3113 266.5942 19.89466 -1.012323e-09 -0.6954503 0.7185742 192 192 192 255 0.099450 0.876140
142.7007 397.3862 23.55603 -0.2081785 0.388687 0.8975434 192 192 192 255 0.070590 0.932807
3 9 10 11 
3 10 12 13 
3 10 13 11 
3 1 2 6 
3 1 6 4 
3 7 155 3 
3 155 158 3 
3 3 158 2 
3 158 156 2 
3 2 156 6 
3 159 160 10 
3 159 10 9 
3 161 12 162 
3 162 12 157 
3 12 10 157 
3 157 10 163 
3 160 163 10 
3 161 8 13 
3 161 13 12 
3 11 13 8 
3 11 8 5 
3 164 165 15 
3 164 15 14 
3 165 166 16 
3 165 16 15 
3 17 18 20 
3 17 20 21 
3 167 168 22 
3 167 22 24 
3 169 170 171 
3 169 171 172 
3 173 0 30 
3 173 30 35 
3 174 173 35 
3 174 35 41 
3 175 176 50 
3 175 50 51 
3 28 27 25 
3 28 25 26 
3 29 24 129 
3 129 24 131 
3 24 23 131 
3 131 23 128 
3 23 19 128 
3 177 171 46 
3 177 46 52 
3 23 24 27 
3 23 27 28 
3 24 22 25 
3 24 25 27 
3 178 179 58 
3 178 58 53 
3 180 178 53 
3 180 53 49 
3 176 180 49 
3 176 49 50 
3 181 182 183 
3 184 185 55 
3 184 55 56 
3 186 187 60 
3 186 60 90 
3 188 167 29 
3 189 190 191 
3 192 193 194 
3 190 130 191 
3 191 130 193 
3 130 194 193 
3 167 24 29 
3 185 177 52 
3 185 52 55 
3 39 195 40 
3 40 195 43 
3 40 43 42 
3 31 34 36 
3 31 36 32 
3 32 36 37 
3 32 37 33 
3 196 39 40 
3 196 40 197 
3 197 40 42 
3 197 42 198 
3 198 42 43 
3 198 43 38 
3 38 43 134 
3 43 195 134 
3 134 195 136 
3 199 133 195 
3 195 133 136 
3 200 44 45 
3 200 45 201 
3 201 45 202 
3 201 202 203 
3 47 204 205 
3 47 205 48 
3 206 54 207 
3 206 207 208 
3 209 210 46 
3 209 46 211 
3 212 213 214 
3 212 214 57 
3 59 143 54 
3 143 145 54 
3 54 145 215 
3 145 144 215 
3 144 216 215 
3 215 212 57 
3 215 57 54 
3 54 57 214 
3 54 214 207 
3 217 218 219 
3 218 135 219 
3 220 219 221 
3 135 221 219 
3 174 41 211 
3 174 211 170 
3 170 211 46 
3 170 46 171 
3 222 223 224 
3 222 224 225 
3 47 48 108 
3 47 108 107 
3 217 219 226 
3 217 226 98 
3 37 217 98 
3 37 98 97 
3 33 37 97 
3 33 97 93 
3 44 200 227 
3 44 227 104 
3 228 59 206 
3 229 230 231 
3 232 233 230 
3 231 230 146 
3 230 233 146 
3 233 234 146 
3 230 229 119 
3 230 119 235 
3 206 59 54 
3 59 228 236 
3 59 236 237 
3 58 179 238 
3 58 238 239 
3 69 71 70 
3 70 71 73 
3 70 73 72 
3 61 64 66 
3 61 66 62 
3 67 63 66 
3 63 120 66 
3 120 123 66 
3 123 121 66 
3 62 66 121 
3 240 69 70 
3 240 70 241 
3 241 70 72 
3 241 72 242 
3 242 72 73 
3 242 73 68 
3 71 65 68 
3 71 68 73 
3 243 122 75 
3 243 75 244 
3 244 75 76 
3 244 76 245 
3 77 81 80 
3 77 80 78 
3 246 84 82 
3 246 82 247 
3 248 249 250 
3 248 250 251 
3 252 95 253 
3 252 253 254 
3 255 101 95 
3 255 95 252 
3 256 111 110 
3 256 110 257 
3 85 87 86 
3 87 124 86 
3 124 126 86 
3 126 125 86 
3 88 86 125 
3 89 79 83 
3 89 83 84 
3 258 112 106 
3 258 106 250 
3 83 88 84 
3 87 84 124 
3 124 84 127 
3 84 88 127 
3 88 125 127 
3 84 87 85 
3 84 85 82 
3 259 113 118 
3 259 118 260 
3 261 109 113 
3 261 113 259 
3 257 110 109 
3 257 109 261 
3 262 263 264 
3 265 116 115 
3 265 115 266 
3 17 77 78 
3 17 78 18 
3 267 268 269 
3 267 269 270 
3 181 262 264 
3 181 264 182 
3 7 67 262 
3 7 262 181 
3 3 63 67 
3 3 67 7 
3 14 74 271 
3 14 271 164 
3 272 89 246 
3 272 246 273 
3 274 275 276 
3 274 276 277 
3 277 151 274 
3 189 191 152 
3 152 191 154 
3 191 274 154 
3 274 151 154 
3 246 89 84 
3 266 115 112 
3 266 112 258 
3 29 278 188 
3 89 272 279 
3 278 153 188 
3 272 188 279 
3 153 279 188 
3 99 100 280 
3 100 102 103 
3 100 103 280 
3 91 92 96 
3 91 96 94 
3 97 96 93 
3 93 96 139 
3 139 96 141 
3 141 96 138 
3 92 138 96 
3 281 282 100 
3 281 100 99 
3 282 283 102 
3 282 102 100 
3 283 284 103 
3 283 103 102 
3 280 103 284 
3 280 284 285 
3 140 142 138 
3 286 287 288 
3 286 288 105 
3 107 108 289 
3 107 289 290 
3 291 292 293 
3 291 293 114 
3 294 295 106 
3 294 106 296 
3 297 298 117 
3 299 147 298 
3 148 117 150 
3 117 298 150 
3 147 150 298 
3 237 114 300 
3 237 300 301 
3 299 300 147 
3 117 148 114 
3 148 149 114 
3 114 149 300 
3 300 149 147 
3 114 293 297 
3 114 297 117 
3 98 226 302 
3 255 251 295 
3 255 295 101 
3 251 250 106 
3 251 106 295 
3 303 304 305 
3 303 305 306 
3 236 140 291 
3 236 291 237 
3 235 119 307 
3 235 307 308 
3 291 114 237 
3 118 309 310 
3 118 310 260 
3 273 123 120 
3 271 74 122 
3 271 122 311 
3 121 123 273 
3 127 126 124 
3 125 126 127 
3 132 312 313 
3 129 131 314 
3 314 131 128 
3 315 312 132 
3 137 135 218 
3 218 316 137 
3 137 316 221 
3 221 135 137 
3 317 318 286 
3 317 286 105 
3 227 319 317 
3 227 317 104 
3 142 141 138 
3 140 139 142 
3 320 321 322 
3 143 323 145 
3 145 323 144 
3 150 149 148 
3 147 149 150 
3 324 153 278 
3 279 153 324 
3 158 325 156 
3 155 325 158 
