ply
format ascii 1.0
comment TextureFile Dungeons_2_Texture_01_A.png
element vertex 17
property float x
property float y
property float z
property float nx
property float ny
property float nz
property uchar red
property uchar green
property uchar blue
property uchar alpha
property float texture_u
property float texture_v
element face 30
property list uchar int vertex_indices
end_header
0 -5 0 0 -1 0 192 192 192 255 0.426111 0.030864
-3.124848 1.809923 1.562582 -0.2881686 0.9547517 0.07353939 192 192 192 255 0.426357 0.030322
-1.562582 1.809923 3.124848 -0.2041474 0.840395 0.5020558 192 192 192 255 0.426197 0.030348
3.124848 1.809923 1.562582 0.3571686 0.9109275 0.2064987 192 192 192 255 0.425832 0.030286
1.562582 1.809923 3.124848 0.1292299 0.9393055 0.3178125 192 192 192 255 0.425929 0.030329
-3.124848 1.809923 -1.562582 -0.2974004 0.9391424 -0.1719435 192 192 192 255 0.426401 0.030255
-1.562582 1.809923 -3.124848 -0.128073 0.8554133 -0.5018619 192 192 192 255 0.426296 0.030216
1.562582 1.809923 -3.124848 0.2064987 0.9109275 -0.3571686 192 192 192 255 0.426049 0.030201
3.124848 1.809923 -1.562582 0.3375505 0.9373577 -0.08614144 192 192 192 255 0.425897 0.030223
-5 0 2.50025 -0.6674544 -0.7084584 0.2293282 192 192 192 255 0.426546 0.030534
-5 0 -2.50025 -0.6705714 -0.7081575 -0.2210133 192 192 192 255 0.426608 0.030403
-2.50025 0 -5 -0.2293282 -0.7084584 -0.6674544 192 192 192 255 0.426419 0.030329
2.50025 0 -5 0.2210133 -0.7081575 -0.6705714 192 192 192 255 0.425998 0.030301
5 0 -2.50025 0.6674544 -0.7084584 -0.2293282 192 192 192 255 0.425736 0.030342
5 0 2.50025 0.6705714 -0.7081575 0.2210133 192 192 192 255 0.425608 0.030463
2.50025 0 5 0.2294757 -0.6966387 0.6797318 192 192 192 255 0.425772 0.030550
-2.50025 0 5 -0.2208165 -0.7197723 0.658155 192 192 192 255 0.426259 0.030588
3 15 16 0 
3 0 11 12 
3 13 14 0 
3 9 10 0 
3 5 8 7 
3 5 7 6 
3 0 16 9 
3 0 14 15 
3 10 11 0 
3 12 13 0 
3 10 9 1 
3 10 1 5 
3 11 10 5 
3 11 5 6 
3 12 11 6 
3 12 6 7 
3 13 12 7 
3 13 7 8 
3 14 13 8 
3 14 8 3 
3 15 14 3 
3 15 3 4 
3 2 16 15 
3 2 15 4 
3 9 16 2 
3 9 2 1 
3 1 2 4 
3 1 4 3 
3 1 3 8 
3 1 8 5 
