ply
format ascii 1.0
comment TextureFile Dungeons_2_Texture_01_A.png
element vertex 17
property float x
property float y
property float z
property float nx
property float ny
property float nz
property uchar red
property uchar green
property uchar blue
property uchar alpha
property float texture_u
property float texture_v
element face 30
property list uchar int vertex_indices
end_header
0 -5.171207 0 0 -1 0 192 192 192 255 0.442377 0.031392
-3.25 1.809923 -3.25 -0.5577841 0.5944117 -0.5792682 192 192 192 255 0.442391 0.031053
3.25 1.809923 -3.25 0.5434458 0.6187428 -0.5672955 192 192 192 255 0.442131 0.031267
3.25 1.809923 3.25 0.6044653 0.5726542 0.553795 192 192 192 255 0.442361 0.031523
-3.25 1.809923 3.25 -0.4986586 0.6349607 0.5900547 192 192 192 255 0.442626 0.031298
-4 -1.034242 4 -0.437501 -0.779839 0.4477099 192 192 192 255 0.442627 0.031372
4 -1.034242 4 0.4461594 -0.7798495 0.4390634 192 192 192 255 0.442362 0.031603
2.422733 0 5 0.5396537 0.2918678 0.7896754 192 192 192 255 0.442523 0.031659
-2.422733 0 5 -0.5899802 0.3190865 0.7416921 192 192 192 255 0.442700 0.031505
-4 -1.034242 -4 -0.4415924 -0.780147 -0.443133 192 192 192 255 0.442391 0.031123
-5 0 2.547783 -0.766866 0.2936715 0.5706782 192 192 192 255 0.442720 0.031186
-5 0 -2.547783 -0.7142246 0.3202606 -0.6223475 192 192 192 255 0.442563 0.031020
4 -1.034242 -4 0.4420895 -0.7795644 -0.4436625 192 192 192 255 0.442127 0.031343
-2.422733 0 -5 -0.5899802 0.3190865 -0.7416921 192 192 192 255 0.442230 0.031001
2.422733 0 -5 0.5396537 0.2918678 -0.7896754 192 192 192 255 0.442054 0.031148
5 0 -2.547783 0.766866 0.2936715 -0.5706782 192 192 192 255 0.442034 0.031467
5 0 2.547783 0.7142246 0.3202606 0.6223475 192 192 192 255 0.442190 0.031640
3 16 3 7 
3 8 4 10 
3 4 3 2 
3 4 2 1 
3 4 8 7 
3 4 7 3 
3 1 13 11 
3 5 6 7 
3 5 7 8 
3 14 15 12 
3 9 5 10 
3 9 10 11 
3 1 11 10 
3 1 10 4 
3 3 16 15 
3 3 15 2 
3 6 12 15 
3 6 15 16 
3 9 13 14 
3 9 14 12 
3 1 2 14 
3 1 14 13 
3 2 15 14 
3 11 13 9 
3 8 10 5 
3 16 7 6 
3 0 6 5 
3 0 12 6 
3 9 12 0 
3 0 5 9 
