ply
format ascii 1.0
comment TextureFile Dungeons_2_Texture_01_A.png
element vertex 14
property float x
property float y
property float z
property float nx
property float ny
property float nz
property uchar red
property uchar green
property uchar blue
property uchar alpha
property float texture_u
property float texture_v
element face 24
property list uchar int vertex_indices
end_header
0 -5 0 -3.149414e-08 -1 0 192 192 192 255 0.409169 0.032806
1.330702 1.52904 2.304842 0.2371302 0.8803844 0.410722 192 192 192 255 0.408794 0.032047
2.661402 1.52904 2e-06 0.4742607 0.8803845 3.159669e-08 192 192 192 255 0.408837 0.031965
1.3307 1.52904 -2.304839 0.2371303 0.8803846 -0.4107217 192 192 192 255 0.409196 0.031933
-1.330702 1.52904 -2.304841 -0.2371304 0.8803844 -0.410722 192 192 192 255 0.409535 0.031976
-2.661401 1.52904 -2e-06 -0.4742607 0.8803844 1.497141e-08 192 192 192 255 0.409532 0.032059
-1.330699 1.52904 2.304839 -0.2371304 0.8803846 0.4107217 192 192 192 255 0.409148 0.032098
4.330127 0 2.500001 0.8637413 0.07257968 0.4986815 192 192 192 255 0.408797 0.032458
0 0 5 -2.194212e-07 0.07258001 0.9973626 192 192 192 255 0.409146 0.032521
-4.330127 0 2.5 -0.8637413 0.07258004 0.4986814 192 192 192 255 0.409524 0.032473
-4.330127 0 -2.5 -0.8637413 0.07257982 -0.4986814 192 192 192 255 0.409528 0.032368
1e-06 0 -5 2.298699e-07 0.07258005 -0.9973626 192 192 192 255 0.409193 0.032314
4.330128 0 -2.499999 0.8637414 0.07258002 -0.4986812 192 192 192 255 0.408840 0.032355
0 2.471633 0 -7.391174e-08 1 -2.186881e-08 192 192 192 255 0.409174 0.032013
3 0 12 7 
3 0 11 12 
3 0 10 11 
3 0 9 10 
3 0 8 9 
3 0 7 8 
3 8 1 6 
3 9 6 5 
3 10 5 4 
3 11 4 3 
3 12 3 2 
3 7 2 1 
3 1 2 13 
3 2 3 13 
3 3 4 13 
3 4 5 13 
3 5 6 13 
3 6 1 13 
3 9 8 6 
3 8 7 1 
3 7 12 2 
3 12 11 3 
3 11 10 4 
3 10 9 5 
