ply
format ascii 1.0
comment TextureFile Dungeons_2_Texture_01_A.png
element vertex 50
property float x
property float y
property float z
property float nx
property float ny
property float nz
property uchar red
property uchar green
property uchar blue
property uchar alpha
property float texture_u
property float texture_v
element face 96
property list uchar int vertex_indices
end_header
1.755312 1.832113 -4.023596 0.3292132 0.9340261 -0.1386141 192 192 192 255 0.474988 0.030631
0 1.81918 -5.423082 -0.00279973 0.9781883 -0.207701 192 192 192 255 0.475245 0.030581
-1.755312 1.822314 -4.023598 -0.3317356 0.9330452 -0.1392054 192 192 192 255 0.475484 0.030664
-2.44333 1.809923 -0.334042 -0.3475353 0.9376046 0.0108104 192 192 192 255 0.475580 0.030845
-1.727695 1.809923 1.727695 -0.2488475 0.9381809 0.2406068 192 192 192 255 0.475457 0.031028
0 1.809923 2.443329 0 0.938192 0.3461152 192 192 192 255 0.475170 0.031092
1.727695 1.809923 1.727695 0.2488473 0.9381809 0.2406069 192 192 192 255 0.474910 0.030988
2.443331 1.809923 -0.334042 0.3465414 0.9379541 0.01229661 192 192 192 255 0.474844 0.030793
1.767767 -0 -7.98543 0.8004896 0 -0.5993467 192 192 192 255 0.475117 0.030860
0 0 -10.0035 -0.001125477 9.233244e-09 -0.9999994 192 192 192 255 0.475242 0.030851
3.300898 0 -5.567905 0.9274462 -1.402225e-08 -0.3739566 192 192 192 255 0.475004 0.030900
-1.767767 0 -7.98543 -0.8004872 1.064588e-08 -0.5993498 192 192 192 255 0.475363 0.030877
-3.300898 0 -5.567907 -0.9274761 1.763344e-08 -0.3738824 192 192 192 255 0.475465 0.030934
-4.267767 -0 -2.353994 -0.9758519 0 -0.2184335 192 192 192 255 0.475530 0.031016
-4.633883 0 -0.00824 -0.9998922 1.528376e-08 0.01468338 192 192 192 255 0.475552 0.031113
-4.267767 0 1.767767 -0.9240432 -1.375366e-08 0.3822879 192 192 192 255 0.475519 0.031211
-3.276649 0 3.276649 -0.7071069 -2.287866e-08 0.7071067 192 192 192 255 0.475437 0.031294
-1.767767 0 4.267767 -0.3826838 1.375012e-08 0.9238794 192 192 192 255 0.475314 0.031345
0 -0 4.633883 -7.626225e-09 1.525245e-08 1 192 192 192 255 0.475173 0.031356
1.767767 -0 4.267767 0.3826835 0 0.9238796 192 192 192 255 0.475039 0.031323
3.276649 -0 3.276651 0.7071067 1.525245e-08 0.7071069 192 192 192 255 0.474934 0.031254
4.267767 -0 1.767767 0.9240432 0 0.3822879 192 192 192 255 0.474877 0.031161
4.633884 0 -0.00824 0.9998677 2.2864e-08 0.01626467 192 192 192 255 0.474872 0.031062
4.267767 -0 -2.353994 0.9758472 0 -0.2184542 192 192 192 255 0.474918 0.030971
-1.468122 0.904961 3.544361 -0.2475164 0.7626669 0.5975573 192 192 192 255 0.475319 0.031212
1.468122 0.904961 3.544361 0.2475163 0.7626671 0.5975572 192 192 192 255 0.475031 0.031190
3.544361 0.904961 1.468122 0.5949928 0.7657912 0.2440233 192 192 192 255 0.474863 0.031027
3.535135 0.883811 -2.279976 0.661373 0.738075 -0.1335334 192 192 192 255 0.474907 0.030837
1.458897 0.879337 -7.744007 0.4566481 0.7616747 -0.4597001 192 192 192 255 0.475114 0.030725
-1.458897 0.869539 -7.744007 -0.4580107 0.7616643 -0.4583598 192 192 192 255 0.475369 0.030742
-3.535135 0.874012 -2.279976 -0.6601059 0.7390969 -0.1341488 192 192 192 255 0.475543 0.030882
-3.54436 0.904961 1.468122 -0.595076 0.7658705 0.2435715 192 192 192 255 0.475532 0.031077
1.755312 -1.832113 -4.023596 0.3292132 -0.9340261 -0.1386141 192 192 192 255 0.474988 0.030631
0 -1.81918 -5.423082 -0.00279973 -0.9781883 -0.207701 192 192 192 255 0.475245 0.030581
-1.755312 -1.822314 -4.023598 -0.3317356 -0.9330453 -0.1392054 192 192 192 255 0.475484 0.030664
-2.44333 -1.809923 -0.334042 -0.3475353 -0.9376046 0.0108104 192 192 192 255 0.475580 0.030845
-1.727695 -1.809923 1.727695 -0.2488475 -0.9381809 0.2406068 192 192 192 255 0.475457 0.031028
0 -1.809923 2.443329 0 -0.938192 0.3461152 192 192 192 255 0.475170 0.031092
1.727695 -1.809923 1.727695 0.2488473 -0.9381809 0.2406069 192 192 192 255 0.474910 0.030988
2.443331 -1.809923 -0.334042 0.3465414 -0.9379541 0.01229661 192 192 192 255 0.474844 0.030793
-1.468122 -0.904961 3.544361 -0.2475164 -0.7626669 0.5975573 192 192 192 255 0.475319 0.031212
1.468122 -0.904961 3.544361 0.2475163 -0.7626671 0.5975572 192 192 192 255 0.475031 0.031190
3.544361 -0.904961 1.468122 0.5949928 -0.7657912 0.2440233 192 192 192 255 0.474863 0.031027
3.535135 -0.883811 -2.279976 0.661373 -0.738075 -0.1335334 192 192 192 255 0.474907 0.030837
1.458897 -0.879337 -7.744007 0.4566481 -0.7616747 -0.4597001 192 192 192 255 0.475114 0.030725
-1.458897 -0.869539 -7.744007 -0.4580107 -0.7616643 -0.4583598 192 192 192 255 0.475369 0.030742
-3.535135 -0.874012 -2.279976 -0.6601059 -0.7390969 -0.1341488 192 192 192 255 0.475543 0.030882
-3.54436 -0.904961 1.468122 -0.595076 -0.7658705 0.2435715 192 192 192 255 0.475532 0.031077
0 1.815403 -1.029955 -0.0006387461 0.9999967 0.002482614 192 192 192 255 0.475210 0.030828
0 -1.815403 -1.029955 -0.000638746 -0.9999967 0.002482614 192 192 192 255 0.475210 0.030828
3 28 1 0 
3 29 2 1 
3 30 3 2 
3 31 4 3 
3 24 5 4 
3 25 6 5 
3 26 7 6 
3 27 0 7 
3 24 18 25 
3 25 20 26 
3 26 22 27 
3 27 10 28 
3 28 9 29 
3 29 12 30 
3 30 14 31 
3 31 16 24 
3 5 24 25 
3 6 25 26 
3 7 26 27 
3 0 27 28 
3 1 28 29 
3 2 29 30 
3 3 30 31 
3 4 31 24 
3 18 24 17 
3 25 18 19 
3 20 25 19 
3 26 20 21 
3 22 26 21 
3 27 22 23 
3 10 27 23 
3 28 10 8 
3 9 28 8 
3 29 9 11 
3 12 29 11 
3 30 12 13 
3 14 30 13 
3 31 14 15 
3 16 31 15 
3 24 16 17 
3 44 32 33 
3 45 33 34 
3 46 34 35 
3 47 35 36 
3 40 36 37 
3 41 37 38 
3 42 38 39 
3 43 39 32 
3 40 41 18 
3 41 42 20 
3 42 43 22 
3 43 44 10 
3 44 45 9 
3 45 46 12 
3 46 47 14 
3 47 40 16 
3 37 41 40 
3 38 42 41 
3 39 43 42 
3 32 44 43 
3 33 45 44 
3 34 46 45 
3 35 47 46 
3 36 40 47 
3 18 17 40 
3 41 19 18 
3 20 19 41 
3 42 21 20 
3 22 21 42 
3 43 23 22 
3 10 23 43 
3 44 8 10 
3 9 8 44 
3 45 11 9 
3 12 11 45 
3 46 13 12 
3 14 13 46 
3 47 15 14 
3 16 15 47 
3 40 17 16 
3 0 1 48 
3 1 2 48 
3 2 3 48 
3 3 4 48 
3 4 5 48 
3 5 6 48 
3 6 7 48 
3 7 0 48 
3 32 39 49 
3 39 38 49 
3 38 37 49 
3 37 36 49 
3 36 35 49 
3 35 34 49 
3 34 33 49 
3 33 32 49 
